<svg width="321" height="237" viewBox="0 0 321 237" fill="none" xmlns="http://www.w3.org/2000/svg">
<path d="M302.609 237C317.017 216.146 333.071 186.882 307.525 168.117C299.606 162.299 286.225 160.199 280.234 153.138C273.18 144.831 286.397 129.309 283.316 111.266C277.084 74.7775 237.099 67.352 189.561 76.8841C145.085 85.8018 139.496 64.9059 97.1285 69.7345C55.3129 74.5006 56.7624 95.0433 53.9924 116.032C51.7914 132.713 35.6422 128.631 24.5009 134.416C-7.00137 149.092 -3.2756 180.118 8.84863 206.844C12.3559 217.595 16.0129 224.629 21.3956 234.908L302.609 237Z" fill="#E3EAFF"/>
<path d="M51.6683 115.925C51.6683 116.701 51.8985 117.46 52.3297 118.105C52.761 118.75 53.3739 119.253 54.091 119.55C54.8082 119.847 55.5973 119.925 56.3586 119.774C57.1199 119.622 57.8192 119.249 58.368 118.7C58.9169 118.151 59.2907 117.452 59.4421 116.69C59.5935 115.929 59.5158 115.14 59.2188 114.423C58.9217 113.706 58.4187 113.093 57.7733 112.661C57.1279 112.23 56.3691 112 55.5929 112C55.0775 112 54.5672 112.102 54.091 112.299C53.6149 112.496 53.1822 112.785 52.8178 113.149C52.4534 113.514 52.1643 113.947 51.9671 114.423C51.7698 114.899 51.6683 115.409 51.6683 115.925Z" fill="white"/>
<path d="M30 182.566C30 183.342 30.2302 184.101 30.6614 184.747C31.0926 185.392 31.7056 185.895 32.4227 186.192C33.1398 186.489 33.9289 186.567 34.6902 186.415C35.4515 186.264 36.1508 185.89 36.6997 185.341C37.2486 184.792 37.6223 184.093 37.7738 183.332C37.9252 182.57 37.8475 181.781 37.5504 181.064C37.2534 180.347 36.7504 179.734 36.105 179.303C35.4596 178.872 34.7008 178.642 33.9246 178.642C32.8837 178.642 31.8855 179.055 31.1495 179.791C30.4135 180.527 30 181.525 30 182.566Z" fill="white"/>
<path d="M268.492 169.295C268.492 170.071 268.722 170.83 269.153 171.476C269.584 172.121 270.197 172.624 270.914 172.921C271.632 173.218 272.421 173.296 273.182 173.144C273.943 172.993 274.643 172.619 275.191 172.07C275.74 171.522 276.114 170.822 276.265 170.061C276.417 169.3 276.339 168.511 276.042 167.793C275.745 167.076 275.242 166.463 274.597 166.032C273.951 165.601 273.193 165.371 272.416 165.371C271.901 165.371 271.391 165.472 270.914 165.669C270.438 165.867 270.006 166.156 269.641 166.52C269.277 166.885 268.988 167.317 268.79 167.793C268.593 168.27 268.492 168.78 268.492 169.295Z" fill="white"/>
<path d="M287.46 153.269C287.46 154.045 287.69 154.804 288.121 155.449C288.552 156.095 289.165 156.598 289.883 156.895C290.6 157.192 291.389 157.27 292.15 157.118C292.911 156.967 293.611 156.593 294.16 156.044C294.708 155.495 295.082 154.796 295.234 154.035C295.385 153.273 295.307 152.484 295.01 151.767C294.713 151.05 294.21 150.437 293.565 150.006C292.919 149.575 292.161 149.344 291.384 149.344C290.869 149.344 290.359 149.446 289.883 149.643C289.406 149.84 288.974 150.129 288.609 150.494C288.245 150.858 287.956 151.291 287.759 151.767C287.561 152.243 287.46 152.754 287.46 153.269Z" fill="#E3EAFF"/>
<path d="M294.393 206.577C294.845 206.577 295.286 206.443 295.662 206.192C296.037 205.941 296.33 205.584 296.503 205.167C296.676 204.75 296.721 204.29 296.633 203.847C296.545 203.405 296.327 202.998 296.008 202.678C295.688 202.359 295.281 202.141 294.838 202.053C294.395 201.965 293.936 202.01 293.519 202.183C293.102 202.356 292.745 202.649 292.494 203.024C292.243 203.4 292.109 203.841 292.109 204.293C292.11 204.899 292.351 205.479 292.779 205.907C293.207 206.335 293.787 206.576 294.393 206.577ZM294.393 202.922C294.664 202.922 294.929 203.003 295.154 203.153C295.38 203.304 295.556 203.518 295.659 203.768C295.763 204.019 295.79 204.295 295.737 204.56C295.685 204.826 295.554 205.071 295.362 205.262C295.171 205.454 294.926 205.585 294.66 205.638C294.394 205.69 294.119 205.663 293.868 205.56C293.618 205.456 293.404 205.28 293.253 205.055C293.102 204.829 293.022 204.564 293.022 204.293C293.022 203.929 293.166 203.581 293.423 203.323C293.681 203.066 294.029 202.921 294.393 202.921V202.922Z" fill="white"/>
<path d="M44.3023 217.557C45.0418 217.557 45.7647 217.338 46.3796 216.927C46.9944 216.516 47.4736 215.932 47.7566 215.249C48.0395 214.566 48.1135 213.814 47.9692 213.089C47.8248 212.364 47.4686 211.697 46.9456 211.175C46.4227 210.652 45.7564 210.296 45.0311 210.152C44.3057 210.007 43.554 210.082 42.8708 210.365C42.1877 210.648 41.6038 211.127 41.1931 211.742C40.7824 212.357 40.5634 213.08 40.5636 213.82C40.5647 214.811 40.959 215.761 41.66 216.462C42.3609 217.162 43.3112 217.556 44.3023 217.557ZM44.3023 211.575C44.7463 211.575 45.1803 211.707 45.5495 211.953C45.9187 212.2 46.2066 212.55 46.3766 212.96C46.5466 213.37 46.5912 213.821 46.5048 214.257C46.4183 214.692 46.2046 215.092 45.8908 215.406C45.577 215.72 45.1771 215.934 44.7417 216.021C44.3063 216.107 43.855 216.063 43.4448 215.893C43.0346 215.723 42.6841 215.436 42.4374 215.067C42.1907 214.698 42.0591 214.264 42.0591 213.82C42.0597 213.225 42.2961 212.654 42.7167 212.234C43.1372 211.813 43.7075 211.576 44.3023 211.575Z" fill="white"/>
<path d="M255.631 116.303C256.181 116.304 256.718 116.141 257.175 115.836C257.632 115.531 257.988 115.097 258.199 114.589C258.409 114.082 258.464 113.523 258.357 112.984C258.25 112.445 257.985 111.95 257.597 111.561C257.208 111.173 256.713 110.908 256.174 110.801C255.635 110.694 255.076 110.749 254.569 110.959C254.061 111.17 253.627 111.526 253.322 111.983C253.017 112.44 252.854 112.977 252.855 113.527C252.855 114.263 253.148 114.969 253.669 115.489C254.189 116.01 254.895 116.303 255.631 116.303ZM255.631 111.86C255.961 111.859 256.283 111.957 256.558 112.14C256.832 112.323 257.046 112.583 257.172 112.888C257.299 113.193 257.332 113.528 257.268 113.851C257.203 114.175 257.045 114.472 256.812 114.705C256.578 114.938 256.281 115.097 255.958 115.162C255.635 115.226 255.299 115.193 254.995 115.067C254.69 114.941 254.43 114.727 254.246 114.453C254.063 114.179 253.965 113.856 253.965 113.527C253.965 113.085 254.141 112.66 254.453 112.347C254.765 112.035 255.189 111.858 255.631 111.857V111.86Z" fill="white"/>
<path d="M114.036 93.1127C94.0334 89.054 51.1165 145.875 62.8265 164.138C76.1557 184.925 126.559 137.457 126.559 137.457C126.559 137.457 126.245 95.5955 114.036 93.1127Z" fill="#3E6393"/>
<path d="M246.139 177.176H53.1739C53.1367 177.176 53.1011 177.161 53.0749 177.135C53.0486 177.109 53.0339 177.073 53.0339 177.036C53.0339 176.999 53.0486 176.963 53.0749 176.937C53.1011 176.911 53.1367 176.896 53.1739 176.896H246.139C246.177 176.896 246.212 176.911 246.238 176.937C246.265 176.963 246.279 176.999 246.279 177.036C246.279 177.073 246.265 177.109 246.238 177.135C246.212 177.161 246.177 177.176 246.139 177.176Z" fill="#363E44"/>
<path d="M105.804 79.5092C106.953 78.8682 108.12 78.1796 109.291 77.4435C119.749 70.8755 126.624 62.9988 126.624 62.9988C126.624 62.9988 116.548 65.7727 106.086 72.3408C104.737 73.1889 103.448 74.058 102.225 74.9285C103.276 73.7851 104.335 72.5689 105.378 71.2897C113.134 61.7463 117.085 52.116 117.085 52.116C117.085 52.116 108.458 57.9353 100.705 67.4858C100.332 67.942 99.9688 68.3987 99.6161 68.8559C100.149 67.7139 100.671 66.536 101.182 65.3221C106.393 52.8662 107.837 41.6027 107.837 41.6027C107.837 41.6027 100.839 50.5387 95.6233 62.996C94.7667 65.045 94.0124 67.0547 93.349 68.9987C93.7059 66.8238 94.0166 64.5201 94.2419 62.1297C95.5421 48.4003 93.5967 36.987 93.5967 36.987C93.5967 36.987 89.5381 47.832 88.2435 61.5615C88.0532 63.5727 87.9328 65.5348 87.8656 67.4172C87.5535 65.115 87.1575 62.6966 86.655 60.2124C83.7706 45.9875 78.4845 35.0529 78.4845 35.0529C78.4845 35.0529 77.8659 47.1827 80.7462 61.409C80.9916 62.6219 81.2528 63.8073 81.5299 64.9652C81.0191 63.8918 80.4817 62.8057 79.912 61.7155C72.9018 48.2883 63.9419 39.1143 63.9419 39.1143C63.9419 39.1143 66.3463 51.7102 73.3552 65.1373C73.8003 65.9892 74.2518 66.8238 74.71 67.6411C74.0858 66.9507 73.4429 66.2593 72.7814 65.567C62.7565 55.0705 52.4503 48.6438 52.4503 48.6438C52.4503 48.6438 58.3983 59.2341 68.4246 69.7292C70.1852 71.5724 71.9543 73.2897 73.6757 74.8697C72.0578 73.8215 70.3406 72.7704 68.538 71.7544C56.5775 64.9988 45.3994 62.1465 45.3994 62.1465C45.3994 62.1465 53.6133 70.2513 65.5766 77.0012C67.7165 78.2104 69.8298 79.2923 71.8605 80.258C69.8746 79.6883 67.7724 79.1495 65.5836 78.6779C52.3845 75.8312 41.0482 76.4694 41.0482 76.4694C41.0482 76.4694 51.1109 81.7275 64.317 84.5685C65.6018 84.8484 66.8697 85.0892 68.1111 85.3047C67.5345 85.3346 66.9523 85.3709 66.3645 85.4139C54.1003 86.3208 44.3792 90.0617 44.3792 90.0617C44.3792 90.0617 54.544 92.3304 66.8096 91.4235C68.4708 91.3003 70.0845 91.1254 71.6338 90.9141C70.1825 91.4291 68.6947 92.0029 67.186 92.6425C55.8652 97.4485 47.8724 104.119 47.8724 104.119C47.8724 104.119 58.229 102.999 69.5471 98.1917C70.8598 97.6318 72.125 97.0524 73.3412 96.459C73.2516 96.5318 73.1607 96.599 73.0711 96.6773C65.0937 103.167 60.1324 110.263 60.1324 110.263C60.1324 110.263 68.0873 106.835 76.0591 100.346C82.9826 94.7068 87.6417 88.6132 88.7445 87.1101C89.1266 87.523 89.3379 87.7399 89.3379 87.7399C89.3379 87.7399 89.275 87.4138 89.142 86.8148C90.6367 86.7868 98.5385 86.5153 107.43 83.9695C117.311 81.1397 124.668 76.5716 124.668 76.5716C124.668 76.5716 116.008 76.5912 106.127 79.421L105.804 79.5092Z" fill="#F7F1EB"/>
<path d="M106.817 140.498C106.784 140.499 106.751 140.488 106.726 140.467C106.7 140.446 106.683 140.416 106.677 140.384C103.852 124.822 99.1984 109.648 92.813 95.1784C89.9384 88.6821 86.7191 82.3439 83.1688 76.1909C83.1587 76.1749 83.1519 76.1571 83.1488 76.1385C83.1457 76.1199 83.1465 76.1008 83.151 76.0825C83.1555 76.0642 83.1636 76.0469 83.1749 76.0318C83.1863 76.0167 83.2005 76.0041 83.2169 75.9946C83.2332 75.9852 83.2513 75.9791 83.27 75.9769C83.2888 75.9746 83.3078 75.9761 83.3259 75.9814C83.344 75.9866 83.3609 75.9955 83.3755 76.0074C83.3901 76.0194 83.4022 76.0342 83.4109 76.0509C86.9659 82.2126 90.1895 88.5597 93.0677 95.0651C99.4623 109.555 104.122 124.751 106.951 140.335C106.955 140.353 106.954 140.371 106.951 140.39C106.947 140.408 106.939 140.425 106.929 140.44C106.918 140.455 106.905 140.468 106.889 140.478C106.873 140.488 106.856 140.495 106.838 140.498H106.817Z" fill="#F7F1EB"/>
<path d="M68.3379 68.2555C68.3379 68.2555 70.7954 81.0235 77.4265 95.0763C77.9919 96.2724 78.5666 97.4387 79.1507 98.5751C78.3464 97.5889 77.5067 96.6004 76.6315 95.6095C65.9111 83.4433 54.2501 76.1965 54.2501 76.1965C54.2501 76.1965 59.9714 88.6776 70.6905 100.844C71.3707 101.616 72.0536 102.368 72.7394 103.1C71.9137 102.54 71.0684 101.986 70.2034 101.437C57.0982 93.0889 44.7416 89.0429 44.7416 89.0429C44.7416 89.0429 53.6329 98.5303 66.7382 106.877C69.0404 108.344 71.3189 109.676 73.512 110.878C71.5624 110.204 69.5093 109.553 67.3736 108.954C53.213 104.989 40.8635 104.881 40.8635 104.881C40.8635 104.881 51.4734 111.202 65.6353 115.167C68.1685 115.876 70.6429 116.461 73.0011 116.945C70.7912 116.862 68.468 116.839 66.072 116.908C51.6218 117.328 40 120.885 40 120.885C40 120.885 51.8079 123.772 66.2581 123.357C67.6647 123.316 69.0446 123.245 70.391 123.151C69.7994 123.328 69.2032 123.515 68.6024 123.711C56.0849 127.79 46.9347 134.165 46.9347 134.165C46.9347 134.165 58.0834 133.925 70.6023 129.845C72.2971 129.285 73.929 128.697 75.4867 128.083C74.111 128.99 72.7086 129.967 71.3049 131.022C60.7692 138.906 54.1563 147.884 54.1563 147.884C54.1563 147.884 64.6347 144.07 75.176 136.181C76.3964 135.267 77.5636 134.338 78.6749 133.41L78.4495 133.705C71.8227 142.49 68.4708 151.136 68.4708 151.136C68.4708 151.136 75.866 145.538 82.4928 136.755C88.2505 129.123 91.5352 121.598 92.298 119.752C92.8004 120.085 93.0761 120.255 93.0761 120.255C93.0761 120.255 92.7864 119.624 92.2182 118.512C91.6332 115.777 89.023 104.536 83.2611 92.3234C76.6329 78.2706 68.3379 68.2555 68.3379 68.2555Z" fill="#E6D0BE"/>
<path d="M110.808 107.087L134.56 88.2787L141.422 87.1143L148.386 79.4113L171.919 83.0277L175.684 93.2555L180.123 94.6774L189.292 106.692L184.348 177.205L105.086 176.993L110.808 107.087Z" fill="#C5D1F9"/>
<path d="M153.1 94.8691L141.38 87.4068C141.364 87.3969 141.351 87.3839 141.34 87.3687C141.33 87.3535 141.322 87.3364 141.318 87.3183C141.314 87.3002 141.314 87.2815 141.317 87.2633C141.321 87.2451 141.328 87.2278 141.338 87.2123C141.358 87.1811 141.389 87.1592 141.426 87.1514C141.462 87.1435 141.5 87.1503 141.531 87.1703L153.034 94.494L160.605 84.5266C160.628 84.4989 160.661 84.4811 160.697 84.4771C160.733 84.473 160.769 84.4829 160.798 84.5048C160.826 84.5266 160.845 84.5587 160.851 84.5943C160.857 84.6299 160.848 84.6663 160.828 84.6959L153.1 94.8691Z" fill="#363E44"/>
<path d="M170.571 97.8137L162.511 87.6307C162.5 87.6163 162.492 87.5997 162.487 87.5821C162.482 87.5644 162.48 87.5459 162.482 87.5276C162.484 87.5093 162.49 87.4917 162.499 87.4756C162.508 87.4596 162.52 87.4455 162.535 87.4341C162.549 87.4227 162.565 87.4142 162.583 87.4092C162.601 87.4042 162.619 87.4027 162.638 87.4049C162.656 87.407 162.674 87.4127 162.69 87.4217C162.706 87.4307 162.72 87.4427 162.731 87.4572L170.577 97.3701L175.145 91.9119C175.169 91.8833 175.203 91.8653 175.24 91.8619C175.277 91.8585 175.314 91.8699 175.342 91.8937C175.371 91.9174 175.389 91.9516 175.392 91.9886C175.396 92.0256 175.384 92.0625 175.361 92.091L170.571 97.8137Z" fill="#363E44"/>
<path d="M172.591 87.9708L162.714 94.0882L152.477 88.5936L152.856 100.844L162.734 94.725L172.972 100.22L172.591 87.9708Z" fill="#363E44"/>
<path d="M149.783 176.969H149.762C149.743 176.966 149.726 176.96 149.71 176.95C149.694 176.941 149.681 176.928 149.67 176.913C149.659 176.899 149.651 176.882 149.647 176.864C149.642 176.846 149.641 176.828 149.644 176.809L162.211 94.4745C162.216 94.4373 162.237 94.404 162.267 94.3819C162.297 94.3597 162.335 94.3504 162.372 94.3562C162.409 94.3619 162.443 94.3822 162.465 94.4125C162.487 94.4428 162.496 94.4807 162.49 94.5178L149.924 176.851C149.919 176.885 149.901 176.915 149.875 176.937C149.849 176.958 149.816 176.97 149.783 176.969Z" fill="#363E44"/>
<path d="M110.058 92.2604L107.914 138.484L99.3335 177.205L127.464 176.993C129.962 146.063 132.006 119.217 134.504 88.2885L110.058 92.2604Z" fill="#335B90"/>
<path d="M117.942 177.061C117.907 177.061 117.873 177.048 117.847 177.025C117.821 177.001 117.805 176.969 117.802 176.934L114.572 139.464L123.781 131.026L115.588 116.652L115.606 116.594L122.793 92.4242C122.805 92.3915 122.83 92.3648 122.861 92.3493C122.893 92.3339 122.929 92.3309 122.963 92.341C122.997 92.351 123.025 92.3734 123.043 92.4036C123.061 92.4338 123.067 92.4696 123.06 92.504L115.89 116.617L124.135 131.082L114.861 139.577L118.08 176.91C118.083 176.947 118.072 176.984 118.048 177.012C118.024 177.04 117.99 177.058 117.953 177.061H117.942Z" fill="#363E44"/>
<path d="M168.194 168.184L148.893 146.168L123.86 164.262L125.368 173.31L137.129 169.39L143.161 184.469L168.194 168.184Z" fill="white"/>
<path d="M189.391 138.326L198.628 101.394L175.477 92.4367C172.584 109.732 159.57 170.362 156.863 177.529L188.718 178.788L189.391 138.326Z" fill="#335B90"/>
<path d="M168.163 164.061C168.139 164.061 168.115 164.055 168.094 164.044C168.073 164.032 168.056 164.015 168.043 163.995C168.03 163.974 168.023 163.951 168.022 163.927C168.021 163.903 168.026 163.879 168.037 163.858L178.866 142.274L171.606 132.024L182.718 119.627L180.805 94.5444C180.802 94.5073 180.814 94.4706 180.838 94.4424C180.863 94.4142 180.897 94.3968 180.934 94.394C180.971 94.3912 181.008 94.4033 181.036 94.4275C181.065 94.4518 181.082 94.4863 181.085 94.5234L182.998 119.725L182.957 119.77L171.953 132.045L179.181 142.249L179.144 142.325L168.276 163.984C168.265 164.005 168.249 164.024 168.23 164.037C168.21 164.051 168.187 164.059 168.163 164.061Z" fill="#363E44"/>
<path d="M189.016 151.431C188.979 151.431 188.943 151.417 188.917 151.39C188.891 151.364 188.876 151.329 188.876 151.292L189.37 119.679C189.37 119.642 189.385 119.606 189.411 119.58C189.437 119.554 189.473 119.539 189.51 119.539C189.547 119.539 189.583 119.554 189.609 119.58C189.635 119.606 189.65 119.642 189.65 119.679L189.156 151.294C189.155 151.331 189.14 151.366 189.114 151.391C189.088 151.417 189.053 151.431 189.016 151.431Z" fill="#363E44"/>
<path d="M169.72 84.5041L148.34 79.5484L150.631 62.1423L167.443 60.9639L169.72 84.5041Z" fill="#E2A18D"/>
<path d="M159.929 47.0273C160.642 46.8874 167.487 45.618 172.118 49.9118C175.566 53.1069 176.396 57.5728 176.655 65.2759C176.96 74.3477 175.876 79.8129 173.463 81.8548C169.652 85.0821 156.734 80.048 151.315 72.6528C147.405 67.3136 147.041 59.9618 149.991 53.9872C152.941 48.0126 159.474 47.1197 159.929 47.0273Z" fill="#E2A18D"/>
<path d="M168.122 83.127H168.103C165.365 82.724 162.059 81.4896 159.031 79.7373C155.77 77.8494 152.986 75.4645 151.193 73.0195C151.183 73.0047 151.175 72.9878 151.17 72.9699C151.166 72.952 151.165 72.9334 151.168 72.9152C151.171 72.897 151.177 72.8795 151.187 72.8638C151.197 72.8481 151.209 72.8344 151.224 72.8236C151.239 72.8127 151.256 72.8049 151.274 72.8005C151.292 72.7962 151.31 72.7954 151.329 72.7983C151.347 72.8012 151.364 72.8076 151.38 72.8172C151.396 72.8268 151.409 72.8395 151.42 72.8544C155.293 78.1419 162.963 82.0914 168.142 82.8499C168.16 82.8513 168.178 82.8563 168.194 82.8646C168.211 82.8729 168.226 82.8844 168.238 82.8983C168.25 82.9123 168.259 82.9285 168.265 82.946C168.27 82.9635 168.273 82.982 168.271 83.0004C168.27 83.0188 168.265 83.0367 168.257 83.0531C168.248 83.0696 168.237 83.0842 168.223 83.0963C168.209 83.1083 168.193 83.1174 168.175 83.1232C168.158 83.129 168.139 83.1312 168.121 83.1298L168.122 83.127Z" fill="#363E44"/>
<path d="M162.085 62.8337C162.085 62.8337 163.178 65.392 165.485 67.2282C165.971 67.6145 168.157 62.9568 167.515 62.8071C164.699 62.1591 162.085 62.8337 162.085 62.8337Z" fill="white"/>
<path d="M174.461 68.9189C174.461 68.9189 172.861 65.1724 169.442 63.4929C168.827 63.1938 168.18 62.9661 167.513 62.8141C166.824 63.3134 166.275 63.9811 165.917 64.7535C165.56 65.5259 165.407 66.377 165.473 67.2255C165.976 67.63 166.521 67.9786 167.099 68.2653C170.521 69.9448 174.461 68.9189 174.461 68.9189Z" fill="#363E44"/>
<path d="M169.982 43.5201C166.779 41.1758 162.192 40.4929 157.788 41.152L162.91 42.6663L154.741 41.8266C151.284 42.8665 148.191 44.7545 146.316 47.3254C141.353 54.1286 141.847 60.4279 149.787 74.3827C150.235 69.9602 150.18 63.4201 153.112 61.9842C155.009 61.0563 156.961 61.4174 157.871 61.6595C158.485 57.2551 158.632 53.1545 162.541 52.4463C166.686 51.6962 173.564 55.4175 174.017 55.8052C174.072 54.9081 175.685 47.6879 169.982 43.5201Z" fill="#333333"/>
<path d="M156.935 69.0983C159.217 67.7169 159.742 64.409 158.108 61.71C156.474 59.0109 153.3 57.9427 151.018 59.3241C148.736 60.7055 148.211 64.0134 149.845 66.7124C151.479 69.4115 154.654 70.4797 156.935 69.0983Z" fill="#E2A18D"/>
<path d="M152.221 66.1058C152.201 66.1056 152.181 66.1012 152.163 66.0927C152.145 66.0843 152.129 66.072 152.116 66.0569C151.982 65.9027 151.862 65.7374 151.756 65.5628C151.343 64.9002 151.178 64.1131 151.289 63.3403C151.335 62.9889 151.459 62.6521 151.651 62.3541C151.842 62.056 152.098 61.804 152.398 61.6161C152.701 61.4323 153.043 61.323 153.396 61.297C153.415 61.2955 153.433 61.2977 153.451 61.3034C153.468 61.309 153.484 61.3181 153.498 61.3301C153.513 61.342 153.524 61.3566 153.532 61.3731C153.541 61.3895 153.546 61.4074 153.547 61.4258C153.549 61.4441 153.547 61.4626 153.541 61.4802C153.535 61.4977 153.526 61.514 153.514 61.528C153.502 61.542 153.488 61.5536 153.471 61.562C153.455 61.5704 153.437 61.5754 153.419 61.5769C153.109 61.5996 152.809 61.6955 152.544 61.8568C152.278 62.0236 152.052 62.2471 151.883 62.5113C151.714 62.7755 151.605 63.0739 151.564 63.3851C151.463 64.0924 151.615 64.8128 151.994 65.4187C152.091 65.5801 152.202 65.7327 152.326 65.8749C152.35 65.9029 152.362 65.9395 152.359 65.9765C152.357 66.0135 152.34 66.0479 152.312 66.0723C152.286 66.0939 152.254 66.1058 152.221 66.1058Z" fill="#363E44"/>
<path d="M157.493 58.6771C158.215 58.5861 157.994 66.9063 160.712 69.9559C164.581 74.2945 170.83 74.086 176.455 73.4394C177.796 75.9823 183.243 86.6846 179.727 90.2338C176.102 93.8992 163.243 89.66 157.941 80.7659C153.26 72.9103 156.341 58.8226 157.493 58.6771Z" fill="#333333"/>
<path d="M175.282 77.9571C175.305 77.8983 175.304 77.8328 175.279 77.7747C175.254 77.7167 175.207 77.6708 175.149 77.647L175.148 77.6468C175.119 77.6351 175.087 77.6293 175.056 77.6297C175.024 77.6301 174.993 77.6368 174.964 77.6492C174.935 77.6617 174.909 77.6798 174.887 77.7025C174.865 77.7251 174.848 77.7518 174.836 77.7812L174.836 77.7812L174.835 77.783C174.712 78.1114 174.487 78.3914 174.192 78.5817C173.898 78.7717 173.551 78.862 173.201 78.8394C172.409 78.7625 172.017 78.0619 171.93 77.9075C171.926 77.9005 171.923 77.8947 171.92 77.8901C171.893 77.8339 171.844 77.7906 171.785 77.7694C171.725 77.7476 171.658 77.7508 171.6 77.7781C171.542 77.8054 171.498 77.8546 171.476 77.9149C171.454 77.975 171.457 78.0412 171.484 78.099C171.499 78.1314 171.632 78.4056 171.9 78.6864C172.17 78.9701 172.584 79.2658 173.157 79.3177L173.158 79.3178C173.625 79.3588 174.093 79.235 174.479 78.9678C174.841 78.7188 175.121 78.3667 175.282 77.9571ZM175.282 77.9571L175.188 77.9205L175.282 77.957C175.282 77.957 175.282 77.9571 175.282 77.9571Z" fill="white" stroke="white" stroke-width="0.2"/>
<path d="M176.048 66.0722C178.272 68.4123 180.125 69.8048 179.575 71.2645C178.855 73.1721 175.843 73.4114 175.656 73.3946L176.048 66.0722Z" fill="#E2A18D"/>
<path d="M134.451 95.6109L134.431 95.4709L130.21 65.581L133.825 65.0212L138.973 94.9083L134.451 95.6109ZM130.532 65.8147L134.696 95.2904L138.655 94.669L133.594 65.3347L130.532 65.8147Z" fill="#363E44"/>
<path d="M131.26 65.665L131.237 65.525L128.123 45.6516L129.715 45.401L129.737 45.541L132.851 65.4144L131.26 65.665ZM128.442 45.8825L131.495 65.3529L132.535 65.1891L129.482 45.7201L128.442 45.8825Z" fill="#363E44"/>
<path d="M124.948 46.4297L124.927 46.2898L122.618 31.5554C122.612 31.5189 122.621 31.4816 122.643 31.4517C122.665 31.4218 122.697 31.4017 122.734 31.3959C122.752 31.3929 122.771 31.3935 122.789 31.3977C122.806 31.4019 122.823 31.4097 122.838 31.4205C122.853 31.4313 122.866 31.4449 122.876 31.4606C122.885 31.4763 122.892 31.4938 122.895 31.512L125.182 46.1078L132.589 44.9476L130.302 30.3546C130.297 30.3175 130.306 30.2796 130.328 30.2493C130.35 30.219 130.384 30.1987 130.421 30.193C130.458 30.1872 130.496 30.1964 130.526 30.2186C130.556 30.2408 130.577 30.2741 130.582 30.3112L132.913 45.1828L124.948 46.4297Z" fill="#363E44"/>
<path d="M127.382 46.049L127.361 45.909L125.057 31.1775C125.051 31.1404 125.06 31.1025 125.083 31.0722C125.105 31.0419 125.138 31.0216 125.175 31.0159C125.212 31.0101 125.25 31.0194 125.281 31.0415C125.311 31.0637 125.331 31.097 125.337 31.1341L127.624 45.7299L130.143 45.3338L127.856 30.7381C127.853 30.7199 127.854 30.7013 127.859 30.6834C127.863 30.6656 127.871 30.6487 127.882 30.6339C127.893 30.6191 127.906 30.6066 127.922 30.5971C127.938 30.5876 127.955 30.5813 127.974 30.5785C128.01 30.5729 128.047 30.5819 128.077 30.6037C128.107 30.6255 128.127 30.6582 128.133 30.6947L130.463 45.5675L127.382 46.049Z" fill="#363E44"/>
<path d="M125.967 37.1102C130.379 37.1102 133.957 35.0355 133.957 32.4763C133.957 29.9171 130.379 27.8424 125.967 27.8424C121.554 27.8424 117.977 29.9171 117.977 32.4763C117.977 35.0355 121.554 37.1102 125.967 37.1102Z" fill="#EFBC73"/>
<path d="M73.5945 126.175C91.5884 109.34 97.2062 102.687 115.193 85.8505C116.437 82.8471 119.753 74.5898 127.856 69.3989C135.959 64.208 143.02 65.8343 143.227 68.3255C143.44 70.8824 137.831 72.2442 135.433 73.4926C135.853 73.5821 138.134 73.5919 139.072 75.3917C140.022 77.2223 139.246 79.4658 139.141 79.8227C140.502 80.6274 141.65 81.3524 142.054 83.3215C142.533 85.6518 140.935 87.4292 140.935 87.4292C140.935 87.4292 142.894 89.7454 142.823 93.0105C142.732 97.2092 139.695 100.369 137.738 99.6863C136.967 99.4162 135.579 98.1468 136.059 95.0777C135.572 96.1973 134.9 101.584 132.501 104.762C130.505 107.405 127.13 107.981 126.063 108.366C114.027 126.173 107.449 130.599 95.4273 148.404C86.4773 140.228 82.5376 134.359 73.5945 126.175Z" fill="#E2A18D"/>
<path d="M131.589 75.5835C131.57 75.5834 131.551 75.5795 131.534 75.5721C131.517 75.5646 131.501 75.5537 131.488 75.5401C131.462 75.5139 131.447 75.4784 131.447 75.4414C131.447 75.4044 131.462 75.369 131.488 75.3428C132.493 74.3743 133.728 73.6775 135.076 73.3176C135.111 73.3107 135.148 73.3173 135.178 73.3362C135.208 73.355 135.23 73.3847 135.239 73.4191C135.248 73.4536 135.244 73.4902 135.227 73.5216C135.21 73.5529 135.182 73.5766 135.148 73.5878C133.845 73.9362 132.652 74.6104 131.681 75.5471C131.656 75.5701 131.623 75.583 131.589 75.5835Z" fill="#363E44"/>
<path d="M135.346 81.0977C135.315 81.0975 135.285 81.087 135.261 81.0678C135.236 81.0486 135.219 81.0218 135.211 80.9917C135.204 80.9615 135.207 80.9297 135.219 80.9013C135.232 80.8728 135.253 80.8493 135.281 80.8346C136.508 80.1712 137.884 79.8303 139.279 79.8437C139.316 79.8437 139.352 79.8585 139.378 79.8847C139.404 79.9109 139.419 79.9465 139.419 79.9837C139.419 80.0208 139.404 80.0564 139.378 80.0826C139.352 80.1089 139.316 80.1236 139.279 80.1236C137.931 80.1102 136.601 80.4396 135.415 81.0809C135.394 81.0923 135.37 81.098 135.346 81.0977Z" fill="#363E44"/>
<path d="M135.246 89.0904C135.216 89.0905 135.187 89.0812 135.163 89.0638C135.133 89.042 135.113 89.0093 135.108 88.9729C135.102 88.9365 135.111 88.8992 135.132 88.8693C135.809 87.9081 136.812 87.2253 137.955 86.9478C138.845 86.7607 139.771 86.844 140.614 87.1871C140.633 87.1933 140.649 87.2032 140.664 87.2162C140.678 87.2292 140.689 87.2451 140.697 87.2628C140.705 87.2804 140.709 87.2995 140.709 87.3189C140.71 87.3382 140.706 87.3574 140.698 87.3752C140.69 87.3929 140.679 87.4089 140.665 87.4221C140.651 87.4353 140.634 87.4454 140.616 87.4518C140.597 87.4582 140.578 87.4607 140.559 87.4592C140.539 87.4578 140.521 87.4523 140.504 87.4432C139.716 87.1242 138.851 87.0467 138.019 87.2207C136.943 87.4833 135.999 88.1266 135.36 89.0316C135.347 89.0499 135.33 89.0648 135.31 89.075C135.29 89.0853 135.268 89.0905 135.246 89.0904Z" fill="#363E44"/>
<path d="M135.964 95.303C135.944 95.303 135.924 95.2988 135.906 95.2906C135.888 95.2823 135.872 95.2704 135.859 95.2555C135.834 95.2276 135.822 95.1912 135.824 95.1542C135.826 95.1172 135.843 95.0826 135.871 95.0581L138.213 92.9797C138.24 92.9551 138.277 92.9424 138.314 92.9447C138.351 92.9469 138.386 92.9638 138.411 92.9916C138.435 93.0195 138.448 93.056 138.446 93.0931C138.443 93.1303 138.427 93.165 138.399 93.1897L136.057 95.2667C136.032 95.29 135.998 95.303 135.964 95.303Z" fill="#363E44"/>
<path d="M62.0455 163.143C46.9879 139.421 97.3545 96.8914 97.3545 96.8914L122.076 121.26C122.076 121.26 78.8386 189.6 62.0455 163.143Z" fill="#335B90"/>
<path d="M91.8753 157.317C91.8393 157.316 91.8047 157.302 91.7787 157.277C91.7527 157.251 91.738 157.216 91.738 157.179C91.738 157.142 91.7527 157.106 91.7787 157.08C100.827 147.646 120.483 123.038 121.893 121.271L118.954 118.377C118.927 118.351 118.912 118.316 118.912 118.279C118.911 118.241 118.926 118.206 118.951 118.179C118.977 118.153 119.013 118.137 119.05 118.137C119.087 118.137 119.123 118.151 119.15 118.177L122.266 121.256L122.188 121.355C121.978 121.614 101.325 147.527 91.9761 157.273C91.9631 157.287 91.9474 157.298 91.9301 157.305C91.9128 157.313 91.8942 157.317 91.8753 157.317Z" fill="#363E44"/>
<path d="M221.575 147.831C209.635 149.587 181.311 152.334 178.557 152.714C173.408 153.413 141.391 157.706 141.776 162.065C142.003 164.626 151.546 163.279 153.346 163.013C151.998 163.943 143.086 168.674 143.689 170.759C144.722 174.343 155.088 168.864 155.225 168.895C153.76 169.701 145.618 173.105 145.965 174.695C146.708 178.097 155.202 175.175 157.097 174.755C156.957 175.057 149.937 177.348 150.351 179.627C150.681 181.435 160.933 180.504 163.332 180.373C167.907 179.748 179.999 179.52 188.732 179.218C209.243 178.51 223.085 170.926 223.085 170.926C223.085 170.926 227.148 151.17 221.575 147.831Z" fill="#E2A18D"/>
<path d="M153.256 162.971C153.225 162.971 153.195 162.96 153.171 162.941C153.146 162.922 153.129 162.895 153.121 162.865C153.114 162.835 153.116 162.803 153.129 162.774C153.141 162.746 153.163 162.722 153.191 162.708C154.16 162.195 155.164 161.75 156.195 161.377C158.047 160.706 159.974 160.266 161.933 160.067C161.971 160.063 162.008 160.074 162.037 160.098C162.065 160.121 162.084 160.155 162.087 160.193C162.091 160.23 162.08 160.267 162.056 160.296C162.033 160.325 161.999 160.343 161.961 160.347C160.023 160.543 158.117 160.978 156.285 161.641C155.266 162.01 154.273 162.449 153.315 162.955C153.297 162.965 153.277 162.97 153.256 162.971Z" fill="#363E44"/>
<path d="M155.099 168.919C155.067 168.919 155.035 168.907 155.01 168.887C154.985 168.866 154.968 168.837 154.962 168.805C154.956 168.773 154.961 168.74 154.976 168.711C154.992 168.683 155.017 168.661 155.048 168.649C155.265 168.563 155.486 168.479 155.704 168.401C157.556 167.73 159.483 167.29 161.442 167.091C161.479 167.087 161.516 167.098 161.545 167.122C161.574 167.146 161.592 167.18 161.596 167.217C161.6 167.254 161.589 167.291 161.565 167.32C161.541 167.349 161.507 167.367 161.47 167.371C159.532 167.567 157.625 168.002 155.794 168.665C155.578 168.744 155.36 168.826 155.146 168.91C155.131 168.916 155.115 168.919 155.099 168.919Z" fill="#363E44"/>
<path d="M157.209 174.822C157.171 174.827 157.134 174.816 157.105 174.793C157.075 174.77 157.056 174.737 157.051 174.7C157.046 174.662 157.057 174.625 157.08 174.595C157.103 174.566 157.136 174.547 157.174 174.542C158.419 174.208 159.69 173.974 160.973 173.842C161.01 173.838 161.048 173.849 161.077 173.873C161.106 173.896 161.124 173.93 161.128 173.968C161.132 174.005 161.121 174.042 161.097 174.071C161.074 174.1 161.04 174.118 161.003 174.122C159.734 174.251 158.477 174.482 157.245 174.812C157.233 174.817 157.221 174.82 157.209 174.822Z" fill="#363E44"/>
<path d="M189.517 137.748L202.051 142.302L188.722 146.435L188.707 179.313C188.707 179.313 253.442 178.013 252.368 147.839C251.587 125.887 198.593 101.405 198.593 101.405L189.517 137.748Z" fill="#335B90"/>
<path d="M188.953 146.208C188.916 146.213 188.878 146.203 188.849 146.18C188.819 146.157 188.8 146.124 188.795 146.087C188.79 146.049 188.8 146.012 188.823 145.982C188.846 145.953 188.879 145.933 188.917 145.928L227.643 135.168C227.661 135.163 227.68 135.161 227.698 135.164C227.716 135.166 227.734 135.172 227.75 135.181C227.766 135.19 227.78 135.202 227.791 135.217C227.802 135.231 227.811 135.248 227.815 135.265C227.82 135.283 227.822 135.302 227.819 135.32C227.817 135.338 227.811 135.356 227.802 135.372C227.793 135.388 227.781 135.402 227.766 135.413C227.752 135.424 227.735 135.433 227.717 135.438L188.998 146.203C188.983 146.207 188.968 146.209 188.953 146.208Z" fill="#363E44"/>
<path d="M193.115 42.2353H222.318V13.2578H185.261V38.0983V42.2353V53.6052L193.115 42.2353Z" fill="#E3EAFF"/>
<path d="M211.353 21.1806C210.855 20.6831 210.264 20.2884 209.614 20.0191C208.964 19.7498 208.268 19.6112 207.564 19.6112C206.86 19.6112 206.164 19.7498 205.514 20.0191C204.864 20.2884 204.273 20.6831 203.775 21.1806L203.733 21.2226L203.701 21.1904C202.691 20.1958 201.329 19.6408 199.911 19.6464C198.493 19.6519 197.135 20.2175 196.133 21.22C195.13 22.2225 194.565 23.5805 194.559 24.9982C194.554 26.4158 195.109 27.7783 196.103 28.7885L203.711 36.3992L211.348 28.7577C211.846 28.2605 212.241 27.6701 212.511 27.0202C212.781 26.3703 212.92 25.6737 212.92 24.97C212.92 24.2664 212.782 23.5696 212.513 22.9194C212.244 22.2692 211.85 21.6784 211.353 21.1806Z" fill="#D87355"/>
<path d="M242.531 159.91C244.86 166.591 249.883 171.222 255.715 171.239C261.568 171.256 266.622 166.621 268.959 159.91H242.531Z" fill="#D87355"/>
<path d="M255.75 174.363H255.71C245.539 174.334 237.283 163.167 237.304 149.451C237.295 145.893 237.88 142.358 239.034 138.992L239.066 138.897L272.463 138.992L272.496 139.088C273.638 142.459 274.212 145.997 274.192 149.556C274.209 153.432 273.514 157.278 272.143 160.904C270.851 164.274 268.969 167.249 266.699 169.508C263.511 172.686 259.725 174.363 255.75 174.363ZM239.266 139.183C238.144 142.492 237.577 145.963 237.587 149.457C237.566 163.007 245.704 174.054 255.712 174.089H255.752C259.653 174.089 263.369 172.44 266.504 169.319C271.132 164.712 273.904 157.326 273.915 149.566C273.934 146.071 273.377 142.596 272.266 139.282L239.266 139.183Z" fill="white"/>
<path d="M241.882 151.704C241.845 151.704 241.809 151.69 241.783 151.664C241.757 151.637 241.742 151.602 241.742 151.565C241.754 148.854 242.218 146.165 243.115 143.608L243.149 143.513L251.904 143.653C251.941 143.653 251.977 143.668 252.003 143.694C252.029 143.72 252.044 143.756 252.044 143.793C252.044 143.83 252.029 143.866 252.003 143.892C251.977 143.918 251.941 143.933 251.904 143.933L243.35 143.801C242.484 146.301 242.037 148.927 242.026 151.573C242.024 151.609 242.008 151.643 241.981 151.668C241.954 151.693 241.919 151.706 241.882 151.704Z" fill="white"/>
<path d="M256.069 201.051C256.032 201.051 255.996 201.036 255.97 201.01C255.944 200.984 255.929 200.948 255.929 200.911V174.303C255.929 174.266 255.944 174.23 255.97 174.204C255.996 174.178 256.032 174.163 256.069 174.163C256.106 174.163 256.142 174.178 256.168 174.204C256.194 174.23 256.209 174.266 256.209 174.303V200.911C256.209 200.948 256.194 200.984 256.168 201.01C256.142 201.036 256.106 201.051 256.069 201.051Z" fill="white"/>
<path d="M267.029 201.154H245.111C245.074 201.154 245.038 201.14 245.012 201.113C244.986 201.087 244.971 201.052 244.971 201.014C244.971 200.977 244.986 200.942 245.012 200.915C245.038 200.889 245.074 200.874 245.111 200.874H267.029C267.066 200.874 267.102 200.889 267.128 200.915C267.154 200.942 267.169 200.977 267.169 201.014C267.169 201.052 267.154 201.087 267.128 201.113C267.102 201.14 267.066 201.154 267.029 201.154Z" fill="white"/>
<path d="M117.896 208.33L110.261 205.694L107.625 213.329L115.26 215.965L117.896 208.33Z" fill="white"/>
<path d="M141.485 221.748L137.447 214.753L130.452 218.792L134.49 225.786L141.485 221.748Z" fill="white"/>
<path d="M158.419 219.33L154.381 212.336L147.386 216.374L151.425 223.369L158.419 219.33Z" fill="white"/>
<path d="M169.976 212.605L162.188 210.464L160.048 218.252L167.836 220.393L169.976 212.605Z" fill="white"/>
<path d="M128.827 219.638C129.654 217.578 127.623 214.824 124.29 213.485C120.957 212.147 117.584 212.731 116.757 214.79C115.93 216.85 117.962 219.604 121.295 220.943C124.628 222.281 128 221.697 128.827 219.638Z" fill="#D87355"/>
<path d="M145.31 216.998C148.31 215.023 149.752 211.919 148.532 210.065C147.312 208.212 143.891 208.311 140.89 210.286C137.89 212.261 136.448 215.365 137.668 217.218C138.888 219.072 142.31 218.973 145.31 216.998Z" fill="#D87355"/>
<path d="M161.074 224.891C163.266 224.542 164.584 221.383 164.018 217.836C163.452 214.289 161.217 211.697 159.026 212.046C156.835 212.395 155.517 215.554 156.082 219.101C156.648 222.648 158.883 225.241 161.074 224.891Z" fill="#D87355"/>
<path d="M113.334 221.191C115.119 219.406 115.119 216.512 113.334 214.727C111.549 212.942 108.654 212.942 106.869 214.727C105.084 216.512 105.084 219.406 106.869 221.191C108.654 222.976 111.549 222.976 113.334 221.191Z" fill="#8B865C"/>
<path d="M119.779 215.271C122.304 215.271 124.35 213.225 124.35 210.701C124.35 208.176 122.304 206.13 119.779 206.13C117.255 206.13 115.208 208.176 115.208 210.701C115.208 213.225 117.255 215.271 119.779 215.271Z" fill="#8B865C"/>
<path d="M149.265 218.199C149.669 215.7 147.971 213.347 145.471 212.943C142.972 212.539 140.619 214.238 140.215 216.737C139.811 219.236 141.51 221.589 144.009 221.993C146.508 222.397 148.861 220.699 149.265 218.199Z" fill="#8B865C"/>
<path d="M160.586 213.864C160.991 211.372 159.299 209.024 156.807 208.62C154.315 208.215 151.967 209.908 151.563 212.399C151.158 214.891 152.85 217.239 155.342 217.644C157.834 218.048 160.182 216.356 160.586 213.864Z" fill="#8B865C"/>
<path d="M160.908 222.669C159.976 222.669 159.064 222.393 158.289 221.875C157.514 221.357 156.91 220.621 156.554 219.76C156.197 218.899 156.104 217.951 156.286 217.037C156.468 216.123 156.917 215.284 157.576 214.625C158.235 213.966 159.075 213.517 159.989 213.335C160.903 213.154 161.851 213.247 162.712 213.604C163.573 213.961 164.309 214.565 164.826 215.34C165.344 216.115 165.62 217.027 165.62 217.959C165.618 219.208 165.121 220.405 164.238 221.289C163.354 222.172 162.157 222.668 160.908 222.669ZM160.908 213.526C160.031 213.526 159.174 213.786 158.445 214.273C157.716 214.76 157.148 215.452 156.813 216.262C156.477 217.072 156.389 217.963 156.56 218.823C156.731 219.683 157.154 220.473 157.773 221.093C158.393 221.713 159.183 222.135 160.043 222.306C160.903 222.477 161.794 222.389 162.604 222.054C163.414 221.718 164.106 221.15 164.593 220.421C165.08 219.692 165.34 218.835 165.34 217.959C165.339 216.783 164.871 215.657 164.04 214.826C163.209 213.995 162.083 213.527 160.908 213.526Z" fill="#8B865C"/>
<path d="M117.36 220.251C116.427 220.251 115.516 219.975 114.741 219.458C113.966 218.94 113.362 218.204 113.005 217.343C112.648 216.482 112.555 215.535 112.736 214.62C112.918 213.706 113.367 212.866 114.026 212.207C114.685 211.548 115.524 211.099 116.438 210.917C117.352 210.735 118.3 210.829 119.161 211.185C120.022 211.542 120.758 212.146 121.276 212.921C121.794 213.696 122.07 214.607 122.07 215.539C122.069 216.788 121.572 217.985 120.689 218.869C119.806 219.752 118.609 220.249 117.36 220.251ZM117.36 211.108C116.483 211.108 115.626 211.367 114.897 211.854C114.167 212.341 113.599 213.033 113.263 213.843C112.928 214.653 112.84 215.545 113.011 216.405C113.182 217.264 113.604 218.054 114.224 218.674C114.844 219.294 115.634 219.716 116.494 219.887C117.354 220.058 118.245 219.97 119.055 219.635C119.865 219.299 120.557 218.731 121.044 218.002C121.531 217.273 121.791 216.416 121.79 215.539C121.789 214.364 121.322 213.238 120.491 212.407C119.661 211.576 118.534 211.109 117.36 211.108Z" fill="#8B865C"/>
<path d="M125.17 236H148.473C162.931 233.601 173.368 226.86 173.47 218.905H100.173C100.275 226.86 110.712 233.601 125.17 236Z" fill="#363E44"/>
<path d="M185.455 205.366C212.145 205.366 233.781 200.111 233.781 193.629C233.781 187.147 212.145 181.892 185.455 181.892C158.766 181.892 137.129 187.147 137.129 193.629C137.129 200.111 158.766 205.366 185.455 205.366Z" fill="white"/>
<path d="M181.206 199.152C189.768 199.152 196.708 195.932 196.708 191.961C196.708 187.989 189.768 184.77 181.206 184.77C172.645 184.77 165.705 187.989 165.705 191.961C165.705 195.932 172.645 199.152 181.206 199.152Z" fill="#EFBC73"/>
<path d="M177.544 191.552C184.435 191.552 190.021 188.961 190.021 185.764C190.021 182.567 184.435 179.975 177.544 179.975C170.653 179.975 165.067 182.567 165.067 185.764C165.067 188.961 170.653 191.552 177.544 191.552Z" fill="#EFBC73"/>
<path d="M177.54 191.692C173.901 191.692 170.434 190.959 168.041 189.677C168.024 189.669 168.008 189.658 167.995 189.643C167.982 189.629 167.972 189.612 167.966 189.594C167.96 189.576 167.957 189.557 167.959 189.538C167.96 189.519 167.966 189.5 167.975 189.483C167.984 189.466 167.996 189.451 168.011 189.439C168.026 189.427 168.044 189.419 168.062 189.414C168.081 189.409 168.1 189.408 168.119 189.411C168.138 189.414 168.156 189.42 168.173 189.43C170.527 190.69 173.94 191.412 177.54 191.412C182.656 191.412 187.304 189.93 189.104 187.724C189.116 187.71 189.13 187.698 189.146 187.69C189.163 187.681 189.18 187.676 189.199 187.674C189.217 187.672 189.236 187.674 189.253 187.679C189.271 187.684 189.287 187.693 189.301 187.705C189.316 187.716 189.328 187.731 189.336 187.747C189.345 187.763 189.35 187.781 189.352 187.799C189.354 187.818 189.352 187.836 189.347 187.854C189.341 187.871 189.333 187.888 189.321 187.902C187.476 190.169 182.74 191.692 177.54 191.692Z" fill="#FFD092"/>
<path d="M178.809 185.978C184.686 185.978 189.45 183.768 189.45 181.042C189.45 178.315 184.686 176.105 178.809 176.105C172.932 176.105 168.168 178.315 168.168 181.042C168.168 183.768 172.932 185.978 178.809 185.978Z" fill="#EFBC73"/>
<path d="M178.809 186.118C174.923 186.118 171.326 185.138 169.421 183.55C169.405 183.538 169.392 183.524 169.382 183.507C169.373 183.491 169.366 183.472 169.364 183.453C169.362 183.434 169.363 183.415 169.369 183.397C169.374 183.378 169.383 183.361 169.395 183.346C169.408 183.331 169.423 183.319 169.44 183.311C169.457 183.302 169.476 183.297 169.495 183.296C169.515 183.295 169.534 183.298 169.552 183.305C169.57 183.312 169.586 183.322 169.6 183.335C171.456 184.875 174.986 185.838 178.809 185.838C181.227 185.838 183.503 185.47 185.387 184.773C185.404 184.765 185.423 184.761 185.442 184.761C185.461 184.761 185.48 184.764 185.498 184.772C185.515 184.779 185.531 184.79 185.544 184.804C185.558 184.818 185.568 184.834 185.574 184.852C185.581 184.87 185.584 184.889 185.583 184.908C185.582 184.927 185.577 184.945 185.569 184.962C185.561 184.979 185.549 184.995 185.534 185.007C185.52 185.019 185.503 185.029 185.485 185.034C183.569 185.743 181.261 186.118 178.809 186.118Z" fill="#FFD092"/>
<path d="M202.426 192.389C202.895 190.403 201.665 188.414 199.68 187.946C197.695 187.477 195.705 188.707 195.237 190.692C194.768 192.677 195.998 194.666 197.983 195.135C199.968 195.603 201.957 194.374 202.426 192.389Z" fill="#D87355"/>
<path d="M195.676 200.015C197.118 198.573 197.118 196.234 195.676 194.792C194.233 193.35 191.895 193.35 190.453 194.792C189.01 196.234 189.01 198.573 190.453 200.015C191.895 201.458 194.233 201.458 195.676 200.015Z" fill="#D87355"/>
<path d="M204.949 199.468C206.391 198.026 206.391 195.687 204.949 194.245C203.507 192.803 201.168 192.803 199.726 194.245C198.283 195.687 198.283 198.026 199.726 199.468C201.168 200.911 203.507 200.911 204.949 199.468Z" fill="#D87355"/>
<path d="M210.807 196.529C212.846 196.529 214.5 194.875 214.5 192.835C214.5 190.796 212.846 189.142 210.807 189.142C208.767 189.142 207.113 190.796 207.113 192.835C207.113 194.875 208.767 196.529 210.807 196.529Z" fill="#D87355"/>
<path d="M175.835 179.681C175.835 179.681 174.196 182.953 171.077 184.175C167.957 185.397 164.528 184.107 164.528 184.107C164.528 184.107 166.168 180.833 169.287 179.611C172.405 178.389 175.835 179.681 175.835 179.681Z" fill="#8B865C"/>
<path d="M175.832 179.681C175.832 179.681 176.97 182.308 176.098 184.728C175.226 187.148 172.676 188.447 172.676 188.447C172.676 188.447 171.54 185.821 172.412 183.4C173.284 180.979 175.832 179.681 175.832 179.681Z" fill="#8B865C"/>
<path d="M131.691 17.8525H131.673C130.251 17.547 128.95 16.8302 127.932 15.7913C126.915 14.7524 126.225 13.4373 125.948 12.0095V12.0277C125.643 13.4495 124.926 14.7502 123.887 15.7679C122.848 16.7856 121.533 17.4755 120.105 17.7518H120.124C121.546 18.0571 122.847 18.7737 123.865 19.8126C124.883 20.8515 125.573 22.1668 125.849 23.5948V23.5767C126.155 22.155 126.871 20.8544 127.91 19.8367C128.948 18.819 130.263 18.129 131.691 17.8525Z" fill="#E3EAFF"/>
<path d="M147.744 24.9524H147.723C146.127 24.6288 144.661 23.8433 143.508 22.6934C142.355 21.5436 141.565 20.0801 141.237 18.4851V18.5061C140.914 20.1021 140.128 21.5678 138.978 22.721C137.828 23.8741 136.365 24.6637 134.77 24.9916H134.791C136.387 25.3151 137.852 26.1007 139.005 27.2505C140.159 28.4004 140.948 29.8638 141.276 31.4588V31.4378C141.6 29.842 142.386 28.3764 143.535 27.2234C144.685 26.0703 146.149 25.2806 147.744 24.9524Z" fill="#E3EAFF"/>
<path d="M151.533 5.84308H151.514C150.092 5.53753 148.791 4.82074 147.774 3.78186C146.756 2.74298 146.066 1.42784 145.79 0V0.0195913C145.484 1.44145 144.767 2.74213 143.729 3.75986C142.69 4.77759 141.375 5.46746 139.947 5.7437H139.966C141.388 6.04925 142.689 6.76604 143.707 7.80492C144.724 8.8438 145.414 10.1589 145.69 11.5868V11.5672C145.996 10.1453 146.713 8.84466 147.752 7.82693C148.79 6.8092 150.106 6.11932 151.533 5.84308Z" fill="#E3EAFF"/>
<path opacity="0.5" d="M290.624 65.7783H190.898V93.1225H200.298V113.179L220.353 93.1225H290.624V65.7783Z" fill="#F4EADF"/>
<path d="M203.244 116.603V96.3485H193.843V68.7244H293.85V96.3485H223.496L203.244 116.603ZM194.123 96.0686H203.524V115.927L223.382 96.0686H293.57V69.0043H194.123V96.0686Z" fill="#F4EADF"/>
<path d="M205.616 79.1411L210.057 79.7037L206.909 82.8863L207.747 87.285L203.747 85.2739L199.823 87.4306L200.499 83.0052L197.235 79.9389L201.654 79.2139L203.56 75.1637L205.616 79.1411Z" fill="#EFBC73"/>
<path d="M224.13 79.1411L228.571 79.7037L225.423 82.8863L226.262 87.285L222.261 85.2739L218.338 87.4306L219.014 83.0052L215.75 79.9389L220.168 79.2139L222.074 75.1637L224.13 79.1411Z" fill="#EFBC73"/>
<path d="M242.645 79.1411L247.086 79.7037L243.938 82.8863L244.776 87.285L240.775 85.2739L236.852 87.4306L237.528 83.0052L234.264 79.9389L238.683 79.2139L240.589 75.1637L242.645 79.1411Z" fill="#EFBC73"/>
<path d="M261.158 79.1411L265.6 79.7037L262.452 82.8863L263.289 87.285L259.29 85.2739L255.367 87.4306L256.041 83.0052L252.779 79.9389L257.197 79.2139L259.103 75.1637L261.158 79.1411Z" fill="#EFBC73"/>
<path d="M279.672 79.1411L284.115 79.7037L280.967 82.8863L281.804 87.285L277.804 85.2739L273.881 87.4306L274.556 83.0052L271.293 79.9389L275.71 79.2139L277.618 75.1637L279.672 79.1411Z" fill="#EFBC73"/>
</svg>
