<svg width="306" height="205" viewBox="0 0 306 205" fill="none" xmlns="http://www.w3.org/2000/svg">
<path d="M287.526 154.562C280.064 150.395 274.71 145.582 276.101 137.13C277.145 130.791 281.091 125.614 284.017 120.503C298.38 95.3956 296.092 78.2905 285.015 67.244C266.702 48.9766 224.375 47.2796 193.563 53.3555C168.664 58.2665 154.692 68.7729 144.882 78.3024C138.337 84.6563 133.647 90.5826 128.8 94.1156C126.152 96.0429 123.462 97.2608 120.398 97.4487C103.299 98.4984 69.6067 77.577 30.4244 115.336C17.452 127.843 10.7526 143.134 10.4865 160.563C10.1556 182.417 19.3197 198.388 22.0863 204.245L296.812 204.214C313.734 169.657 287.526 154.562 287.526 154.562Z" fill="#E3EAFF"/>
<path d="M260.474 79.8086C260.474 80.5848 260.244 81.3436 259.812 81.989C259.381 82.6344 258.768 83.1374 258.051 83.4345C257.334 83.7315 256.545 83.8092 255.783 83.6578C255.022 83.5064 254.323 83.1326 253.774 82.5837C253.225 82.0349 252.851 81.3356 252.7 80.5743C252.548 79.813 252.626 79.0239 252.923 78.3067C253.22 77.5896 253.723 76.9767 254.369 76.5454C255.014 76.1142 255.773 75.884 256.549 75.884C257.064 75.884 257.575 75.9855 258.051 76.1828C258.527 76.38 258.96 76.6691 259.324 77.0335C259.689 77.3979 259.978 77.8306 260.175 78.3067C260.372 78.7829 260.474 79.2932 260.474 79.8086Z" fill="white"/>
<path d="M282.142 146.45C282.142 147.226 281.912 147.985 281.481 148.631C281.049 149.276 280.436 149.779 279.719 150.076C279.002 150.373 278.213 150.451 277.452 150.299C276.69 150.148 275.991 149.774 275.442 149.225C274.893 148.676 274.52 147.977 274.368 147.216C274.217 146.455 274.295 145.665 274.592 144.948C274.889 144.231 275.392 143.618 276.037 143.187C276.682 142.756 277.441 142.526 278.217 142.526C279.258 142.526 280.257 142.939 280.993 143.675C281.729 144.411 282.142 145.409 282.142 146.45Z" fill="white"/>
<path d="M73.6503 143.179C73.6503 143.956 73.4202 144.714 72.9889 145.36C72.5577 146.005 71.9447 146.508 71.2276 146.805C70.5105 147.102 69.7214 147.18 68.9601 147.028C68.1988 146.877 67.4995 146.503 66.9506 145.954C66.4018 145.406 66.028 144.706 65.8766 143.945C65.7251 143.184 65.8028 142.395 66.0999 141.677C66.3969 140.96 66.9 140.347 67.5454 139.916C68.1908 139.485 68.9495 139.255 69.7257 139.255C70.2411 139.255 70.7515 139.356 71.2276 139.553C71.7038 139.751 72.1364 140.04 72.5008 140.404C72.8653 140.769 73.1544 141.201 73.3516 141.677C73.5488 142.154 73.6503 142.664 73.6503 143.179Z" fill="white"/>
<path d="M54.6822 127.153C54.6822 127.929 54.452 128.688 54.0208 129.333C53.5895 129.979 52.9766 130.482 52.2595 130.779C51.5424 131.076 50.7532 131.154 49.992 131.002C49.2307 130.851 48.5314 130.477 47.9825 129.928C47.4336 129.379 47.0599 128.68 46.9084 127.919C46.757 127.157 46.8347 126.368 47.1318 125.651C47.4288 124.934 47.9318 124.321 48.5772 123.89C49.2226 123.459 49.9814 123.228 50.7576 123.228C51.273 123.228 51.7833 123.33 52.2595 123.527C52.7356 123.724 53.1683 124.013 53.5327 124.378C53.8971 124.742 54.1862 125.175 54.3835 125.651C54.5807 126.127 54.6822 126.638 54.6822 127.153Z" fill="#E3EAFF"/>
<path d="M47.7492 180.461C47.2975 180.461 46.8559 180.327 46.4804 180.076C46.1048 179.825 45.8121 179.468 45.6393 179.051C45.4664 178.634 45.4212 178.175 45.5093 177.732C45.5975 177.289 45.815 176.882 46.1343 176.562C46.4537 176.243 46.8606 176.025 47.3036 175.937C47.7466 175.849 48.2058 175.894 48.6231 176.067C49.0404 176.24 49.397 176.533 49.648 176.908C49.8989 177.284 50.0328 177.725 50.0328 178.177C50.0323 178.783 49.7915 179.363 49.3633 179.791C48.9352 180.219 48.3546 180.46 47.7492 180.461ZM47.7492 176.806C47.478 176.806 47.213 176.887 46.9875 177.037C46.7621 177.188 46.5864 177.402 46.4826 177.652C46.3789 177.903 46.3517 178.179 46.4046 178.445C46.4575 178.71 46.5881 178.955 46.7798 179.146C46.9715 179.338 47.2158 179.469 47.4817 179.522C47.7476 179.574 48.0233 179.547 48.2738 179.444C48.5243 179.34 48.7384 179.164 48.889 178.939C49.0396 178.713 49.12 178.448 49.12 178.177C49.12 177.813 48.9756 177.465 48.7186 177.207C48.4615 176.95 48.1128 176.805 47.7492 176.805V176.806Z" fill="white"/>
<path d="M267.84 181.441C267.1 181.441 266.377 181.222 265.762 180.811C265.148 180.4 264.668 179.816 264.385 179.133C264.102 178.45 264.029 177.698 264.173 176.973C264.317 176.248 264.673 175.581 265.196 175.059C265.719 174.536 266.386 174.18 267.111 174.036C267.836 173.891 268.588 173.966 269.271 174.249C269.954 174.532 270.538 175.011 270.949 175.626C271.36 176.241 271.579 176.964 271.578 177.704C271.577 178.695 271.183 179.645 270.482 180.346C269.781 181.046 268.831 181.441 267.84 181.441ZM267.84 175.459C267.396 175.459 266.962 175.591 266.593 175.837C266.223 176.084 265.935 176.434 265.765 176.844C265.595 177.254 265.551 177.705 265.637 178.141C265.724 178.576 265.937 178.976 266.251 179.29C266.565 179.604 266.965 179.818 267.4 179.905C267.836 179.992 268.287 179.947 268.697 179.777C269.107 179.607 269.458 179.32 269.705 178.951C269.951 178.582 270.083 178.148 270.083 177.704C270.082 177.109 269.846 176.538 269.425 176.118C269.005 175.697 268.435 175.46 267.84 175.459Z" fill="white"/>
<path d="M146.511 90.1875C145.961 90.1877 145.424 90.0249 144.967 89.7198C144.51 89.4146 144.154 88.9808 143.943 88.4732C143.733 87.9655 143.678 87.4069 143.785 86.868C143.892 86.329 144.157 85.834 144.545 85.4454C144.934 85.0569 145.429 84.7923 145.968 84.6851C146.507 84.578 147.066 84.6331 147.573 84.8435C148.081 85.0539 148.515 85.4101 148.82 85.867C149.125 86.324 149.288 86.8612 149.287 87.4107C149.287 88.1469 148.994 88.8527 148.473 89.3732C147.953 89.8938 147.247 90.1866 146.511 90.1875ZM146.511 85.7436C146.181 85.7434 145.859 85.841 145.584 86.024C145.31 86.2071 145.096 86.4674 144.97 86.772C144.843 87.0766 144.81 87.4118 144.874 87.7353C144.939 88.0588 145.097 88.3559 145.33 88.5892C145.564 88.8224 145.861 88.9813 146.184 89.0458C146.507 89.1102 146.843 89.0772 147.147 88.9511C147.452 88.8249 147.712 88.6112 147.896 88.3371C148.079 88.0629 148.177 87.7405 148.177 87.4107C148.177 86.9686 148.001 86.5445 147.689 86.2315C147.377 85.9185 146.953 85.7423 146.511 85.7414V85.7436Z" fill="white"/>
<path d="M167.651 204.224H252.104C252.104 204.224 265.518 199.105 264.812 192.487C264.107 185.868 242.396 194.34 242.396 194.34C242.396 194.34 243.985 187.633 238.249 185.868C232.513 184.104 212.922 203.606 205.421 195.046C197.919 186.485 205.553 173.16 189.028 173.072C172.502 172.983 167.651 204.224 167.651 204.224Z" fill="#A8D29F"/>
<path d="M121.911 203.711H190.355C192.51 203.711 194.256 201.964 194.256 199.81L194.256 62.9379C194.256 60.7834 192.51 59.0369 190.355 59.0369H121.911C119.757 59.0369 118.01 60.7834 118.01 62.9379L118.01 199.81C118.01 201.964 119.757 203.711 121.911 203.711Z" fill="#4A75CB"/>
<path d="M114.519 203.711H182.964C185.118 203.711 186.865 201.964 186.865 199.81L186.865 62.9379C186.865 60.7834 185.118 59.0369 182.964 59.0369H114.519C112.365 59.0369 110.618 60.7834 110.618 62.9379L110.618 199.81C110.618 201.964 112.365 203.711 114.519 203.711Z" fill="#AFCDFB"/>
<path d="M137.568 64.5145H157.388C157.492 64.5102 157.596 64.5269 157.693 64.5637C157.79 64.6005 157.879 64.6566 157.954 64.7287C158.029 64.8007 158.089 64.8871 158.13 64.9828C158.171 65.0785 158.192 65.1815 158.192 65.2855C158.192 65.3896 158.171 65.4925 158.13 65.5882C158.089 65.6839 158.029 65.7704 157.954 65.8424C157.879 65.9145 157.79 65.9706 157.693 66.0074C157.596 66.0442 157.492 66.0609 157.388 66.0566H137.568C137.369 66.0484 137.181 65.9635 137.043 65.8198C136.905 65.6761 136.828 65.4847 136.828 65.2855C136.828 65.0864 136.905 64.895 137.043 64.7513C137.181 64.6076 137.369 64.5227 137.568 64.5145Z" fill="#4A75CB"/>
<path d="M160.908 64.5145C161.061 64.5142 161.21 64.5593 161.337 64.644C161.464 64.7287 161.563 64.8492 161.622 64.9903C161.68 65.1314 161.696 65.2866 161.666 65.4365C161.636 65.5863 161.563 65.7239 161.455 65.8319C161.347 65.9399 161.209 66.0135 161.059 66.0432C160.91 66.0729 160.754 66.0575 160.613 65.999C160.472 65.9404 160.352 65.8413 160.267 65.7142C160.182 65.587 160.137 65.4377 160.137 65.2849C160.138 65.0808 160.22 64.8852 160.364 64.7409C160.508 64.5966 160.704 64.5152 160.908 64.5145Z" fill="#4A75CB"/>
<path d="M152.771 195.718C152.771 194.734 152.479 193.773 151.933 192.955C151.386 192.137 150.61 191.5 149.701 191.123C148.792 190.747 147.792 190.648 146.827 190.84C145.863 191.032 144.977 191.506 144.281 192.201C143.586 192.897 143.112 193.783 142.92 194.748C142.728 195.713 142.827 196.712 143.203 197.621C143.579 198.53 144.217 199.307 145.035 199.853C145.853 200.4 146.814 200.691 147.798 200.691C149.117 200.691 150.382 200.167 151.314 199.235C152.247 198.302 152.771 197.037 152.771 195.718Z" fill="#4A75CB"/>
<path d="M117.126 187.528H180.517L180.517 70.511L117.126 70.511L117.126 187.528Z" fill="#D5E7F7"/>
<path d="M117.126 187.536H180.517V173.952H117.126V187.536Z" fill="#D5E7F7"/>
<path d="M238.029 108.622C238.029 108.622 238.588 105.942 239.983 105.327C241.378 104.713 242.216 102.258 242.775 102.928C243.333 103.597 242.607 108.064 241.546 108.62C240.486 109.176 239.983 109.754 239.983 109.754L238.029 108.622Z" fill="#E2A18D"/>
<path d="M214.071 97.957C214.071 97.957 222.968 113.474 226.195 116.329L238.029 107.506C238.029 107.506 239.75 108.036 240.499 109.757C240.499 109.757 233.313 124.398 226.236 125.019C219.16 125.64 209.23 107.468 209.23 107.468L214.071 97.957Z" fill="#E58638"/>
<path d="M186.541 193.965C186.541 193.965 184.483 195.873 184.885 197.227C185.286 198.581 187.142 199.484 187.4 201.14C187.658 202.796 188.653 203.699 189.557 203.699H193.862C193.862 203.699 194.524 202.534 192.921 202.182C191.318 201.83 190.71 199.886 190.811 198.078C190.911 196.27 190.66 193.865 190.66 193.865L187.249 193.061L186.541 193.965Z" fill="#233862"/>
<path d="M212.172 203.629C212.27 203.67 212.372 203.697 212.478 203.711H223.831C223.742 203.313 223.393 202.499 222.004 202.273C220.207 201.982 217.089 200.937 216.396 198.637C216.373 198.563 216.353 198.489 216.336 198.412C215.784 195.952 211.771 199.164 211.771 199.164C211.771 199.164 211.759 199.262 211.742 199.428C211.652 200.331 211.413 203.247 212.172 203.629Z" fill="#233862"/>
<path d="M221.531 137.879C221.531 137.879 220.922 145.484 220.207 154.626C219.233 167.043 218.062 182.291 217.946 185.186C217.746 190.203 216.942 198.23 216.942 198.23C216.942 198.23 215.036 200.137 211.223 199.333C211.223 199.333 207.825 187.875 206.854 175.752C206.838 175.554 206.824 175.355 206.809 175.154C205.905 162.813 204.502 136.825 204.502 136.825L221.531 137.879Z" fill="#2B478B"/>
<path d="M221.531 137.879C221.531 137.879 220.922 145.484 220.207 154.626L206.854 175.752C206.838 175.554 206.824 175.355 206.809 175.154C205.905 162.813 204.502 136.825 204.502 136.825L221.531 137.879Z" fill="#233862"/>
<path d="M218.748 138.782C218.748 138.782 207.761 166.323 200.536 179.267C193.311 192.21 191.054 195.823 191.054 195.823C191.054 195.823 186.916 194.167 186.541 193.043C186.541 193.043 189.303 168.056 194.14 161.964C196.874 158.523 200.085 148.198 200.229 144.581C200.373 140.965 201.207 133.821 201.207 133.821L218.748 138.782Z" fill="#2B478B"/>
<path d="M213.113 96.2679C213.601 93.3849 213.616 91.6746 213.616 91.6746L208.042 87.1819C208.25 93.3597 204.29 96.3302 204.29 96.3302C204.29 96.3302 211.719 99.9863 216.013 98.6321C215.199 97.6734 214.216 96.8721 213.113 96.2679Z" fill="#E2A18D"/>
<path d="M214.887 93.4087C214.887 93.4087 207.698 93.3835 207.784 88.908C207.87 84.4325 206.997 81.4131 211.591 81.2397C216.184 81.0663 217.043 82.7924 217.378 84.2935C217.713 85.7946 216.758 93.3041 214.887 93.4087Z" fill="#E2A18D"/>
<path d="M222.004 138.512C221.879 138.622 221.719 138.683 221.553 138.684C219.942 138.663 215.24 139.558 211.262 139.149C207.908 138.827 204.94 137.834 201.753 136.405C201.329 136.215 200.355 135.695 200.377 135.222C200.391 134.704 200.442 133.953 200.51 133.007C200.735 129.716 201.128 124.057 200.745 117.528C200.677 116.313 200.639 115.107 200.636 113.92C200.602 105.071 202.356 97.2885 205.883 94.6543C206.185 94.4385 208.032 95.3413 209.732 96.1792C211.164 96.8856 212.794 97.0831 214.353 96.7392L215.837 98.0496C217.643 99.7268 219.62 102.006 220.481 105.463C221.213 108.408 221.642 113.719 221.879 119.221C221.986 121.715 222.072 124.232 222.094 126.618V126.703C222.114 126.94 222.114 127.198 222.114 127.435C222.199 133.568 222.112 138.426 222.004 138.512Z" fill="#EE9849"/>
<path d="M200.507 133.007C200.732 129.716 201.125 124.057 200.743 117.528C200.674 116.313 200.637 115.107 200.633 113.92C202.102 110.356 203.303 107.772 203.303 107.772H207.009C207.009 107.772 209.718 126.311 200.507 133.007Z" fill="#E58638"/>
<path d="M176.249 149.527L177.235 142.605C177.379 141.612 177.911 140.716 178.714 140.113C179.517 139.511 180.526 139.251 181.52 139.39L186.947 140.163L187.157 138.687C187.205 138.359 187.38 138.064 187.645 137.865C187.91 137.666 188.243 137.581 188.571 137.628L193.286 138.3C193.614 138.348 193.909 138.523 194.108 138.788C194.306 139.053 194.392 139.386 194.345 139.714L194.135 141.19L197.279 141.637C197.403 141.656 197.526 141.68 197.645 141.709L199.366 141.955C200.356 142.099 201.248 142.629 201.848 143.429C202.449 144.229 202.708 145.233 202.569 146.224L201.594 153.065C201.45 154.055 200.921 154.947 200.121 155.548C199.321 156.148 198.317 156.408 197.326 156.27L196.037 156.086C195.764 156.107 195.489 156.098 195.218 156.059L179.457 153.809C178.466 153.663 177.572 153.131 176.971 152.329C176.37 151.527 176.11 150.519 176.249 149.527ZM193.175 139.069L188.459 138.397C188.415 138.391 188.37 138.391 188.326 138.397C188.228 138.413 188.137 138.46 188.067 138.531C187.997 138.603 187.952 138.695 187.938 138.794L187.728 140.27L193.367 141.073L193.577 139.599C193.586 139.538 193.582 139.476 193.566 139.416C193.55 139.357 193.523 139.301 193.485 139.252C193.448 139.204 193.401 139.163 193.348 139.132C193.295 139.101 193.236 139.081 193.175 139.073V139.069Z" fill="#233862"/>
<path d="M193.305 134.16L192.602 135.371C192.602 135.371 193.978 138.283 190.713 139.375C190.713 139.375 189.307 139.73 189.188 138.755C189.069 137.781 189.274 138.164 189.07 136.788C188.866 135.413 189.404 134.189 190.418 133.862L191.212 133.095L193.305 134.16Z" fill="#E2A18D"/>
<path d="M191.442 134.49C192.36 134.648 193.293 134.7 194.222 134.645C194.222 134.645 198.18 122.419 198.69 121.302C199.199 120.185 210.444 106.966 210.444 106.966L205.76 95.242C205.76 95.242 193.596 115.56 192.361 118.415C190.32 123.133 189.612 133.711 189.612 133.711C190.165 134.089 190.787 134.353 191.442 134.49Z" fill="#EE9849"/>
<path d="M207.848 88.4858C207.848 88.4858 208.587 88.4858 208.643 87.4797C208.698 86.4737 208.915 85.1804 209.678 85.5577C210.44 85.9349 210.371 86.5849 210.765 86.2645C211.158 85.9442 211.433 84.3637 213.844 84.6589C216.254 84.9541 217.083 85.9521 218.278 85.6517C219.473 85.3512 219.816 83.6793 219.816 83.6793C219.816 83.6793 219.398 84.226 218.89 84.3412C218.89 84.3412 221.176 82.12 219.324 80.0152C217.472 77.9105 215.088 78.6783 213.833 78.5433C211.066 78.2441 209.27 78.1078 208.07 79.7545C206.869 81.4012 206.386 86.4552 207.848 88.4858Z" fill="#2B478B"/>
<path d="M238.503 106.269L241.389 100.415C241.402 100.388 241.421 100.364 241.444 100.344C241.466 100.325 241.493 100.309 241.521 100.3C241.55 100.29 241.58 100.286 241.61 100.288C241.64 100.291 241.669 100.298 241.696 100.312L243.302 101.106C243.356 101.133 243.398 101.181 243.417 101.239C243.437 101.297 243.433 101.36 243.406 101.415L240.522 107.267C240.495 107.321 240.447 107.363 240.389 107.383C240.332 107.402 240.268 107.398 240.214 107.371L238.608 106.577C238.553 106.55 238.511 106.502 238.492 106.445C238.472 106.387 238.476 106.323 238.503 106.269Z" fill="#2B478B"/>
<path d="M239.999 107.071L242.932 101.114C242.953 101.073 242.99 101.041 243.033 101.026C243.077 101.011 243.125 101.014 243.167 101.035L244.108 101.498C244.149 101.519 244.181 101.555 244.196 101.599C244.211 101.643 244.208 101.691 244.187 101.732L241.254 107.689C241.233 107.73 241.197 107.762 241.153 107.777C241.109 107.792 241.061 107.789 241.02 107.768L240.079 107.305C240.037 107.284 240.006 107.248 239.991 107.204C239.976 107.16 239.979 107.112 239.999 107.071Z" fill="#233862"/>
<path d="M213.51 93.3042C213.51 93.3042 213.445 94.0785 213.321 94.9178C213.321 94.9178 210.365 93.6536 209.324 91.8838C209.324 91.8851 210.624 92.9547 213.51 93.3042Z" fill="#C97C47"/>
<path d="M71.0082 176.753L73.4187 175.951L71.1728 169.196L68.7623 169.997L71.0082 176.753Z" fill="#2B478B"/>
<path d="M71.0009 176.762L71.678 176.536L69.4321 169.781L68.755 170.006L71.0009 176.762Z" fill="#233862"/>
<path d="M47.4423 203.552C47.4423 203.552 42.1672 204.003 41.9409 203.004C41.9118 202.871 41.1692 197.874 41.1692 197.874L40.3749 192.305C40.3596 192.2 40.3726 192.093 40.4125 191.994C40.4525 191.895 40.5181 191.809 40.6025 191.744C40.6868 191.679 40.787 191.638 40.8927 191.624C40.9983 191.611 41.1056 191.626 41.2036 191.667C41.6404 191.866 42.1302 192.278 42.4042 193.124C43.0052 194.94 44.779 197.864 47.4105 198.628C50.1784 199.43 47.4423 203.552 47.4423 203.552Z" fill="#163560"/>
<path d="M101.049 193.832C101.049 193.832 80.6175 178.22 74.805 178.049C68.9925 177.878 50.1374 203.684 50.1374 203.684H57.1981C57.1981 203.684 69.6411 197.066 74.0094 190.773C74.1111 190.627 74.2473 190.509 74.4059 190.429C74.5645 190.349 74.7405 190.309 74.9181 190.314C75.0957 190.319 75.2693 190.368 75.4233 190.457C75.5773 190.545 75.7069 190.671 75.8004 190.822C78.0627 194.437 83.9771 203.303 87.8013 203.684C91.9128 204.1 101.049 193.832 101.049 193.832Z" fill="#233862"/>
<path d="M99.0927 151.351C99.0927 151.351 99.225 152.374 99.3878 153.637C99.6089 155.277 99.9041 157.314 100.097 157.95L106.245 159.508L106.696 155.037C106.696 155.037 105.157 151.95 105.166 147.581L99.0927 151.351Z" fill="#E2A18D"/>
<path d="M110.602 194.926L92.2741 197.407C92.2741 197.407 92.2251 197.05 92.1417 196.449C92.1166 196.262 94.4199 196.498 94.4146 196.295C94.3735 194.511 93.4787 194.31 93.7805 191.949C93.9791 190.389 93.2841 186.206 92.8062 184.87C92.2569 183.331 92.0041 180.407 91.8915 177.628C91.7512 174.147 91.832 170.894 91.8307 170.877C91.6519 168.66 92.1788 166.199 93.0617 163.861C94.805 159.247 98.0535 156.634 99.581 155.084C99.581 155.084 101.445 155.544 106.291 154.091C106.435 154.047 106.851 154.657 107.036 155.017C107.036 155.017 109.336 157.71 110.197 164.182C110.969 169.962 110.602 194.926 110.602 194.926Z" fill="#C65447"/>
<path d="M105.669 166.787C105.633 167.598 98.4453 190.481 99.3256 192.169C103.589 200.335 94.4027 196.973 93.8202 194.867C94.0188 193.306 93.2841 186.206 92.8062 184.87C92.2569 183.331 92.0041 180.407 91.8915 177.628C92.1086 176.546 92.504 175.507 93.0617 174.554C95.733 174.137 105.936 160.486 105.669 166.787Z" fill="#B23F36"/>
<path d="M110.634 192.319C110.634 192.319 110.624 193.751 110.614 195.877C110.601 199.274 109.943 203.687 106.621 203.687H47.1655C47.1655 203.687 45.5228 202.579 45.4076 200.466C45.2859 198.226 45.994 197.432 45.994 197.432C45.994 197.432 67.2782 196.692 71.5988 195.244C93.2589 187.982 110.634 192.319 110.634 192.319Z" fill="#2B478B"/>
<path d="M99.0927 151.351C99.0927 151.351 99.225 152.374 99.3878 153.637C105.068 151.98 105.166 147.581 105.166 147.581L99.0927 151.351Z" fill="#E8945B"/>
<path d="M98.1991 151.68C98.1991 151.68 105.104 151.886 105.165 147.585C105.225 143.284 106.157 140.413 101.752 140.1C97.3467 139.788 96.4677 141.416 96.0971 142.847C95.7264 144.278 96.4055 151.515 98.1991 151.68Z" fill="#E2A18D"/>
<path d="M105.288 149.266C105.288 149.266 104.558 149.144 104.676 148.139C104.794 147.135 104.791 145.822 103.975 146.066C103.158 146.311 103.117 146.965 102.783 146.583C102.45 146.2 102.442 144.597 100.01 144.479C97.5783 144.362 96.5921 145.214 95.4617 144.718C94.3312 144.221 94.2703 142.51 94.2703 142.51C94.2703 142.51 94.592 143.12 95.0778 143.314C95.0778 143.314 93.1915 140.735 95.3743 138.966C97.5571 137.198 99.785 138.356 101.048 138.437C103.828 138.605 105.631 138.771 106.54 140.601C107.449 142.43 107.068 147.505 105.288 149.266Z" fill="#233862"/>
<path d="M97.16 149.539C97.16 149.539 97.115 150.068 98.1965 150.255C98.1965 150.255 99.1522 150.326 99.2343 149.848C98.5335 149.822 97.8378 149.718 97.16 149.539Z" fill="white"/>
<path d="M76.0929 176.643L74.9691 176.606C74.9691 176.606 72.6777 174.488 72.1588 175.944C72.1588 175.944 69.1937 174.763 69.0666 175.579C68.9819 176.108 69.7284 176.728 70.9701 177.636C71.9113 178.322 73.9246 178.923 74.7136 178.574L75.5899 178.177L76.0929 176.643Z" fill="#E2A18D"/>
<path d="M104.009 155.122C104.009 155.122 99.6221 156.975 97.344 160.932C95.827 163.57 93.2127 168.056 91.6374 170.757C91.2226 171.467 90.665 172.085 89.9997 172.569C89.3345 173.054 88.576 173.395 87.7721 173.572L82.4468 174.737L74.9704 176.606C74.8501 176.867 74.8043 177.156 74.838 177.441C74.8989 178.176 75.3808 178.324 75.3808 178.324C75.3808 178.324 82.3608 180.004 84.8454 180.191C90.9663 180.651 93.8679 179.849 94.7733 179.518C94.9711 179.444 95.1553 179.337 95.3187 179.203C96.2572 178.441 99.8538 175.427 101.748 172.548C103.589 169.747 108.67 162.469 108.67 162.469L104.009 155.122Z" fill="#C65447"/>
<path d="M91.7963 170.477L95.5027 164.104L91.8572 168.756C91.7977 169.328 91.7773 169.903 91.7963 170.477Z" fill="#B23F36"/>
<path d="M165.35 27.9122C165.35 27.9122 163.788 26.844 163.743 28.0261C163.698 29.2081 164.455 31.0534 164.887 30.107C165.319 29.1605 165.517 28.8057 165.35 27.9122Z" fill="#E49963"/>
<path d="M304.84 204.874H0.63274C0.465263 204.874 0.304725 204.807 0.186177 204.689C0.0676286 204.571 0.000698917 204.41 0 204.243C0.000349752 204.075 0.0671263 203.914 0.185712 203.796C0.304298 203.677 0.465034 203.61 0.63274 203.61H304.84C305.008 203.61 305.169 203.677 305.287 203.796C305.406 203.914 305.473 204.075 305.473 204.243C305.472 204.41 305.405 204.571 305.287 204.689C305.168 204.807 305.008 204.874 304.84 204.874Z" fill="#95A6DB"/>
<path d="M171.041 92.8025H125.758C124.846 92.8056 123.972 93.1692 123.327 93.814C122.683 94.4587 122.319 95.3323 122.316 96.2441V101.698C122.316 102.532 122.621 103.338 123.172 103.964L122.316 107.878L127.256 105.142H171.044C171.955 105.139 172.829 104.775 173.474 104.131C174.119 103.486 174.482 102.612 174.485 101.701V96.2468C174.483 95.3339 174.12 94.4591 173.474 93.8136C172.829 93.1681 171.954 92.8046 171.041 92.8025Z" fill="#A8D29F"/>
<path d="M125.5 96.9576H171.3C171.444 96.9506 171.579 96.8887 171.679 96.7845C171.778 96.6804 171.833 96.5421 171.833 96.3984C171.833 96.2546 171.778 96.1163 171.679 96.0122C171.579 95.908 171.444 95.8461 171.3 95.8391H125.5C125.356 95.8461 125.221 95.908 125.121 96.0122C125.022 96.1163 124.967 96.2546 124.967 96.3984C124.967 96.5421 125.022 96.6804 125.121 96.7845C125.221 96.8887 125.356 96.9506 125.5 96.9576Z" fill="white"/>
<path d="M171.304 98.2867H125.504C125.36 98.2937 125.224 98.3556 125.125 98.4598C125.026 98.5639 124.971 98.7022 124.971 98.846C124.971 98.9897 125.026 99.128 125.125 99.2321C125.224 99.3363 125.36 99.3982 125.504 99.4052H171.304C171.448 99.3982 171.583 99.3363 171.683 99.2321C171.782 99.128 171.837 98.9897 171.837 98.846C171.837 98.7022 171.782 98.5639 171.683 98.4598C171.583 98.3556 171.448 98.2937 171.304 98.2867Z" fill="white"/>
<path d="M171.304 100.643H125.504C125.36 100.65 125.224 100.712 125.125 100.816C125.026 100.92 124.971 101.058 124.971 101.202C124.971 101.346 125.026 101.484 125.125 101.588C125.224 101.692 125.36 101.754 125.504 101.761H171.304C171.448 101.754 171.583 101.692 171.683 101.588C171.782 101.484 171.837 101.346 171.837 101.202C171.837 101.058 171.782 100.92 171.683 100.816C171.583 100.712 171.448 100.65 171.304 100.643Z" fill="white"/>
<path d="M125.758 117.188H171.041C171.953 117.191 172.827 117.554 173.471 118.199C174.116 118.844 174.48 119.718 174.483 120.63V126.085C174.481 126.918 174.177 127.723 173.627 128.35L174.483 132.264L169.548 129.529H125.758C124.846 129.526 123.973 129.162 123.328 128.517C122.683 127.873 122.319 126.999 122.316 126.088V120.632C122.318 119.72 122.682 118.846 123.327 118.201C123.971 117.555 124.845 117.191 125.758 117.188Z" fill="#F1A34F"/>
<path d="M171.299 121.343H125.498C125.423 121.347 125.347 121.335 125.276 121.309C125.205 121.282 125.14 121.242 125.085 121.189C125.03 121.137 124.986 121.074 124.956 121.005C124.927 120.935 124.911 120.86 124.911 120.784C124.911 120.708 124.927 120.633 124.956 120.563C124.986 120.494 125.03 120.431 125.085 120.379C125.14 120.326 125.205 120.286 125.276 120.259C125.347 120.233 125.423 120.221 125.498 120.225H171.299C171.443 120.232 171.578 120.294 171.677 120.398C171.777 120.502 171.832 120.64 171.832 120.784C171.832 120.928 171.777 121.066 171.677 121.17C171.578 121.274 171.443 121.336 171.299 121.343Z" fill="white"/>
<path d="M125.494 122.672H171.295C171.439 122.679 171.574 122.741 171.673 122.845C171.773 122.949 171.828 123.088 171.828 123.232C171.828 123.375 171.773 123.514 171.673 123.618C171.574 123.722 171.439 123.784 171.295 123.791H125.494C125.419 123.795 125.343 123.783 125.272 123.756C125.201 123.73 125.136 123.689 125.081 123.637C125.026 123.585 124.982 123.522 124.952 123.452C124.923 123.382 124.907 123.307 124.907 123.232C124.907 123.156 124.923 123.081 124.952 123.011C124.982 122.941 125.026 122.878 125.081 122.826C125.136 122.774 125.201 122.733 125.272 122.707C125.343 122.68 125.419 122.669 125.494 122.672Z" fill="white"/>
<path d="M125.494 125.029H171.295C171.439 125.036 171.574 125.097 171.673 125.202C171.773 125.306 171.828 125.444 171.828 125.588C171.828 125.732 171.773 125.87 171.673 125.974C171.574 126.078 171.439 126.14 171.295 126.147H125.494C125.419 126.151 125.343 126.139 125.272 126.113C125.201 126.086 125.136 126.046 125.081 125.993C125.026 125.941 124.982 125.878 124.952 125.808C124.923 125.739 124.907 125.664 124.907 125.588C124.907 125.512 124.923 125.437 124.952 125.367C124.982 125.298 125.026 125.235 125.081 125.182C125.136 125.13 125.201 125.089 125.272 125.063C125.343 125.037 125.419 125.025 125.494 125.029Z" fill="white"/>
<path d="M171.041 141.574H125.758C124.846 141.577 123.973 141.941 123.328 142.586C122.683 143.23 122.319 144.104 122.316 145.015V150.469C122.316 151.303 122.621 152.109 123.172 152.734L122.316 156.65L127.256 153.912H171.044C171.956 153.909 172.829 153.546 173.474 152.901C174.119 152.256 174.482 151.382 174.485 150.47V145.017C174.482 144.104 174.119 143.23 173.473 142.585C172.828 141.94 171.953 141.576 171.041 141.574Z" fill="#699DEE"/>
<path d="M125.5 145.724H171.3C171.444 145.717 171.579 145.655 171.679 145.551C171.778 145.446 171.833 145.308 171.833 145.164C171.833 145.021 171.778 144.882 171.679 144.778C171.579 144.674 171.444 144.612 171.3 144.605H125.5C125.356 144.612 125.221 144.674 125.121 144.778C125.022 144.882 124.967 145.021 124.967 145.164C124.967 145.308 125.022 145.446 125.121 145.551C125.221 145.655 125.356 145.717 125.5 145.724Z" fill="white"/>
<path d="M171.304 147.058H125.504C125.36 147.065 125.224 147.127 125.125 147.231C125.026 147.335 124.971 147.473 124.971 147.617C124.971 147.761 125.026 147.899 125.125 148.003C125.224 148.108 125.36 148.17 125.504 148.176H171.304C171.448 148.17 171.583 148.108 171.683 148.003C171.782 147.899 171.837 147.761 171.837 147.617C171.837 147.473 171.782 147.335 171.683 147.231C171.583 147.127 171.448 147.065 171.304 147.058Z" fill="white"/>
<path d="M171.304 149.414H125.504C125.36 149.421 125.224 149.483 125.125 149.587C125.026 149.691 124.971 149.83 124.971 149.973C124.971 150.117 125.026 150.255 125.125 150.36C125.224 150.464 125.36 150.526 125.504 150.533H171.304C171.448 150.526 171.583 150.464 171.683 150.36C171.782 150.255 171.837 150.117 171.837 149.973C171.837 149.83 171.782 149.691 171.683 149.587C171.583 149.483 171.448 149.421 171.304 149.414Z" fill="white"/>
<path d="M125.758 165.959H171.041C171.953 165.963 172.826 166.326 173.471 166.971C174.116 167.616 174.479 168.489 174.483 169.401V174.855C174.482 175.689 174.178 176.494 173.627 177.12L174.483 181.035L169.548 178.302H125.758C124.846 178.298 123.973 177.935 123.328 177.29C122.683 176.645 122.319 175.772 122.316 174.86V169.406C122.318 168.494 122.681 167.619 123.326 166.973C123.971 166.327 124.845 165.963 125.758 165.959Z" fill="#A8D29F"/>
<path d="M171.299 170.115H125.498C125.423 170.118 125.347 170.107 125.276 170.08C125.205 170.054 125.14 170.013 125.085 169.961C125.03 169.908 124.986 169.846 124.956 169.776C124.927 169.706 124.911 169.631 124.911 169.555C124.911 169.479 124.927 169.404 124.956 169.335C124.986 169.265 125.03 169.202 125.085 169.15C125.14 169.098 125.205 169.057 125.276 169.031C125.347 169.004 125.423 168.992 125.498 168.996H171.299C171.443 169.003 171.578 169.065 171.677 169.169C171.777 169.273 171.832 169.412 171.832 169.555C171.832 169.699 171.777 169.837 171.677 169.942C171.578 170.046 171.443 170.108 171.299 170.115Z" fill="white"/>
<path d="M125.494 171.444H171.295C171.444 171.444 171.586 171.503 171.691 171.608C171.796 171.713 171.855 171.855 171.855 172.004C171.855 172.152 171.796 172.294 171.691 172.399C171.586 172.504 171.444 172.563 171.295 172.563H125.494C125.346 172.563 125.203 172.504 125.098 172.399C124.993 172.294 124.934 172.152 124.934 172.004C124.934 171.855 124.993 171.713 125.098 171.608C125.203 171.503 125.346 171.444 125.494 171.444Z" fill="white"/>
<path d="M125.494 173.8H171.295C171.439 173.807 171.574 173.869 171.673 173.973C171.773 174.077 171.828 174.215 171.828 174.359C171.828 174.503 171.773 174.641 171.673 174.745C171.574 174.849 171.439 174.911 171.295 174.918H125.494C125.419 174.922 125.343 174.91 125.272 174.884C125.201 174.857 125.136 174.817 125.081 174.765C125.026 174.712 124.982 174.649 124.952 174.58C124.923 174.51 124.907 174.435 124.907 174.359C124.907 174.283 124.923 174.208 124.952 174.139C124.982 174.069 125.026 174.006 125.081 173.954C125.136 173.901 125.201 173.861 125.272 173.834C125.343 173.808 125.419 173.796 125.494 173.8Z" fill="white"/>
<path d="M133.622 86.613C136.209 84.0262 136.209 79.8321 133.622 77.2453C131.035 74.6585 126.841 74.6585 124.254 77.2453C121.668 79.8321 121.668 84.0262 124.254 86.613C126.841 89.1998 131.035 89.1998 133.622 86.613Z" fill="#699DEE"/>
<path d="M172.367 88.2886H139.593C139.032 88.2886 138.493 88.0654 138.096 87.6682C137.698 87.271 137.475 86.7323 137.475 86.1706C137.475 85.6089 137.698 85.0702 138.096 84.673C138.493 84.2758 139.032 84.0526 139.593 84.0526H172.367C172.929 84.0526 173.468 84.2758 173.865 84.673C174.262 85.0702 174.485 85.6089 174.485 86.1706C174.485 86.7323 174.262 87.271 173.865 87.6682C173.468 88.0654 172.929 88.2886 172.367 88.2886Z" fill="#699DEE"/>
<path d="M157.314 79.5573H139.593C139.032 79.5573 138.493 79.3341 138.096 78.9369C137.698 78.5397 137.475 78.001 137.475 77.4393C137.475 76.8776 137.698 76.3389 138.096 75.9417C138.493 75.5445 139.032 75.3214 139.593 75.3214H157.314C157.876 75.3214 158.414 75.5445 158.812 75.9417C159.209 76.3389 159.432 76.8776 159.432 77.4393C159.432 78.001 159.209 78.5397 158.812 78.9369C158.414 79.3341 157.876 79.5573 157.314 79.5573Z" fill="#699DEE"/>
<path d="M142.979 81.0174C142.964 81.1881 142.998 81.3597 143.078 81.5114C143.158 81.6631 143.28 81.7885 143.429 81.8725C143.997 82.2392 145.031 82.3451 146.163 82.3755C146.307 82.3755 146.437 82.3848 146.56 82.394H146.65L146.72 82.4007C147.834 82.5065 147.692 82.8322 149.801 83.1644C152.203 83.5417 153.147 82.8653 153.312 82.5383C153.453 82.2603 152.439 81.8632 151.306 81.4105L151.14 81.3443L150.687 81.1616C149.34 80.6044 148.02 79.9703 147.775 78.5433C147.521 77.0369 148.894 72.9837 148.894 72.9837L145.092 72.2993C145.092 72.2993 144.417 76.5948 144.081 77.9251C143.901 78.6347 143.534 79.184 143.3 79.7863C143.282 79.8287 143.266 79.8728 143.252 79.9187C143.112 80.2708 143.02 80.6404 142.979 81.0174Z" fill="#E2A18D"/>
<path d="M142.979 81.0174C142.964 81.1881 142.998 81.3597 143.078 81.5114C143.158 81.6631 143.28 81.7885 143.429 81.8725C144.038 82.2074 145.055 82.3212 146.16 82.3689C146.306 82.3755 146.436 82.3835 146.557 82.394H146.647L146.718 82.4007C147.831 82.5066 147.689 82.8322 149.798 83.1645C152.2 83.5417 153.144 82.8653 153.31 82.5383C153.45 82.2603 152.436 81.8632 151.303 81.4105C150.086 81.757 148.798 81.7757 147.571 81.4648C145.983 81.0465 144.434 80.1305 143.301 79.781C143.283 79.8234 143.268 79.8675 143.253 79.9134C143.112 80.2672 143.02 80.6386 142.979 81.0174Z" fill="#233862"/>
<path d="M168.141 78.7432C168.354 79.8101 169.873 79.6314 171.573 79.2171C173.273 78.8028 172.868 79.2952 175.28 79.0278C177.691 78.7604 178.43 77.8589 178.504 77.4989C178.569 77.1799 177.375 77.0674 176.094 76.9204L175.609 76.8622C174.162 76.6808 173.103 75.7476 171.789 74.9799C170.545 74.2545 168.686 71.2959 168.686 71.2959L165.377 71.5607C165.377 71.5607 167.116 74.2081 167.789 75.3518C168.186 76.0282 168.165 76.9218 168.114 77.6114C168.072 77.9882 168.081 78.3688 168.141 78.7432Z" fill="#E2A18D"/>
<path d="M171.573 79.2158C173.271 78.8001 172.868 79.2939 175.28 79.0265C177.691 78.7591 178.43 77.8576 178.504 77.4976C178.569 77.1786 177.375 77.066 176.094 76.9191L176.082 76.9429C175.046 77.6081 173.849 77.9801 172.619 78.0191C170.979 78.0588 169.242 77.5889 168.109 77.6074C168.067 77.9851 168.076 78.3666 168.135 78.7419C168.356 79.8088 169.873 79.6301 171.573 79.2158Z" fill="#233862"/>
<path d="M160.762 30.0447C160.762 30.0447 161.557 28.1094 162.422 28.03C163.288 27.9506 166.056 27.5177 166.253 27.9122C166.45 28.3067 166.253 29.7297 165.66 30.242C165.067 30.7542 161.395 31.5855 161.395 31.5855L160.762 30.0447Z" fill="#E49963"/>
<path d="M155.434 57.5411L148.286 76.7722C147.563 76.8258 146.836 76.7592 146.135 76.5749C145.168 76.2956 144.058 75.5623 144.058 75.5623C144.058 75.5623 145.831 57.099 149.08 53.2575C152.33 49.4161 155.434 57.5411 155.434 57.5411Z" fill="#233862"/>
<path d="M127.171 49.7616C127.171 49.7616 147.704 42.82 152.282 44.296C156.861 45.7719 170.607 73.128 170.607 73.128C170.607 73.128 170.297 73.541 169.45 73.8587C168.656 74.1539 166.755 74.1353 166.755 74.1353C166.755 74.1353 154.351 63.4992 152.869 60.3977C151.386 57.2962 150.801 54.3417 149.324 54.6369C147.847 54.9321 130.262 61.875 126.281 57.7384C122.299 53.6017 123.335 48.2287 123.335 48.2287L127.171 49.7616Z" fill="#2B478B"/>
<path d="M139.719 17.4641C140.047 16.7876 140.414 15.5857 140.593 13.4413C140.565 13.6544 140.196 16.3535 139.156 17.8876C134.886 20.6913 126.702 30.0527 126.863 31.8265C126.863 31.8265 123.981 26.9366 123.931 26.9075C123.931 26.9075 118.614 20.1446 124.916 16.2714C128.119 14.303 128.103 11.7707 127.97 9.58128C127.836 7.39184 128.843 -2.06748 135.259 0.410526C135.259 0.410526 136.289 -0.047483 136.751 0.0213507C136.542 0.060609 136.347 0.151635 136.182 0.286095C136.926 0.242413 137.99 0.296685 138.877 0.801024C141.229 2.14328 143.338 14.1362 139.719 17.4641Z" fill="#163560"/>
<path d="M138.904 18.028C138.925 18.0372 136.841 19.1187 135.275 18.6898C133.801 18.2927 132.838 16.3773 132.858 16.3733C133.483 16.2489 133.663 15.3911 133.652 11.7059L133.934 11.7615L138.679 12.7013C138.679 12.7013 138.57 14.1945 138.567 15.6003C138.561 16.781 138.634 17.9009 138.904 18.028Z" fill="#E2A18D"/>
<path d="M138.676 12.7013C138.676 12.7013 138.567 14.1945 138.565 15.6003C135.909 15.5261 134.506 13.1037 133.932 11.7615L138.676 12.7013Z" fill="#D68D5D"/>
<path d="M133.442 11.2452C133.442 11.2452 132.051 9.04652 131.721 7.16684C131.483 5.82458 132.166 0.850027 137.166 1.56616C138.173 1.70587 139.135 2.07004 139.982 2.63176C141.068 3.36378 142.63 4.94695 140.883 9.28744L140.426 10.7541L133.442 11.2452Z" fill="#163560"/>
<path d="M139.563 14.033C139.563 14.033 133.28 14.1362 133.276 10.2233C133.272 6.31035 132.458 3.68938 136.469 3.45773C140.48 3.22608 141.26 4.71792 141.579 6.02311C141.898 7.3283 141.196 13.9046 139.563 14.033Z" fill="#E2A18D"/>
<path d="M139.33 3.36111C139.33 3.36111 137.609 7.95179 134.971 8.63086C132.333 9.30993 131.186 8.60173 131.186 8.60173C131.186 8.60173 131.44 6.99341 131.861 4.18579C131.861 4.18579 138.033 1.173 139.33 3.36111Z" fill="#163560"/>
<path d="M138.904 3.7344C138.904 3.7344 140.188 4.75896 140.501 5.75573C140.815 6.75249 140.955 8.80029 141.56 8.73278C141.56 8.73278 142.855 5.61276 141.399 3.84824C139.849 1.9765 138.904 3.7344 138.904 3.7344Z" fill="#163560"/>
<path d="M124.916 34.9279C124.296 32.3308 126.404 27.2887 128.604 23.115C130.6 19.3332 132.672 16.2648 132.858 16.3746C138.123 19.4986 138.599 16.9041 138.599 16.9041C138.599 16.9041 143.38 17.5395 144.735 19.8706C146.608 23.0938 148.648 32.7663 150.652 32.6233C151.578 32.5571 160.828 29.0784 160.828 29.0784C160.828 29.0784 162.371 30.5226 162.075 32.295C162.075 32.295 157.505 35.3568 153.639 37.3093C151.595 38.3418 149.748 39.0646 148.874 38.8607C147.113 38.4451 144.363 34.3601 142.876 31.9601L142.867 31.9443C140.97 42.6823 143.549 45.1272 142.243 46.259C140.864 47.4504 138.894 45.6898 134.566 47.5682C131.724 48.8006 127.779 50.5836 125.124 50.8934C123.732 51.0575 122.693 50.8153 122.354 49.8741C121.371 47.138 126.098 39.88 124.916 34.9279Z" fill="#699DEE"/>
<path d="M138.166 11.6609C138.166 11.6609 138.283 12.1572 139.519 12.0805C139.519 12.0805 140.558 12.0169 140.527 11.4702C140.527 11.4702 139.519 11.0824 138.166 11.6609Z" fill="white"/>
<path d="M122.356 49.8701C122.695 50.8113 123.734 51.0536 125.125 50.8894C126.964 50.0886 134.902 47.0136 134.813 44.9327C134.681 41.8471 133.287 41.7478 134.272 37.9394C135.066 34.8816 127.727 29.1962 126.557 27.9612C124.357 32.1349 124.296 32.3295 124.916 34.9293C126.098 39.88 121.371 47.138 122.356 49.8701Z" fill="#3B76CA"/>
<path d="M142.881 31.9562C144.368 34.3601 147.117 38.4424 148.879 38.8568C149.748 39.0606 151.595 38.3379 153.645 37.3054C152.153 37.6906 150.703 37.68 149.295 37.5436C147.769 37.3954 147.325 35.5249 144.913 32.7173C143.338 30.8985 142.958 31.3539 142.881 31.9562Z" fill="#3B76CA"/>
<path d="M135.528 37.864C135.528 37.864 136.852 36.8288 138.113 37.0764C139.375 37.3239 139.985 38.183 139.936 38.5775C139.887 38.9719 139.221 40.0799 138.262 40.1778C137.302 40.2758 134.568 39.5875 134.568 39.5875L135.528 37.864Z" fill="#E2A18D"/>
<path d="M132.858 16.3733C132.858 16.3733 127.738 16.6884 125.967 19.1598C123.472 22.6398 117.483 38.1181 120.32 40.0958C123.514 42.3236 135.896 40.0296 135.896 40.0296C135.896 40.0296 136.273 38.2651 135.749 37.4126C135.225 36.5601 126.688 35.1795 126.295 34.7863C125.902 34.3932 131.218 27.1087 131.218 25.9174C131.218 24.726 132.858 16.3733 132.858 16.3733Z" fill="#699DEE"/>
<path d="M161.272 23.6763L164.782 22.7352C164.834 22.7194 164.888 22.7167 164.94 22.7273C164.993 22.738 165.042 22.7616 165.083 22.796L165.574 23.0926L165.177 32.1561L161.805 33.0602L161.558 33.0403L160.99 32.6922C160.948 32.664 160.913 32.6255 160.89 32.5803C160.867 32.5352 160.856 32.4848 160.858 32.4341V24.1926C160.864 24.074 160.907 23.9604 160.982 23.8678C161.056 23.7752 161.158 23.7082 161.272 23.6763Z" fill="#233862"/>
<path d="M161.815 33.0628L165.324 32.1217C165.436 32.0883 165.535 32.0213 165.607 31.9296C165.68 31.8379 165.722 31.7261 165.729 31.6094V23.3679C165.731 23.3183 165.721 23.2689 165.7 23.2242C165.678 23.1794 165.646 23.1407 165.606 23.1114C165.566 23.0822 165.519 23.0634 165.47 23.0566C165.42 23.0498 165.37 23.0554 165.324 23.0727L161.815 24.0125C161.704 24.0471 161.607 24.1147 161.536 24.2063C161.465 24.2979 161.423 24.4091 161.417 24.5248V32.7663C161.416 32.8151 161.425 32.8636 161.446 32.9076C161.467 32.9517 161.499 32.99 161.538 33.0192C161.577 33.0484 161.623 33.0676 161.671 33.0752C161.719 33.0828 161.768 33.0786 161.815 33.0628Z" fill="#2B478B"/>
<path d="M164.403 24.1489L165.221 23.9053C165.282 23.885 165.336 23.8462 165.375 23.794C165.413 23.7418 165.435 23.679 165.436 23.6141C165.437 23.5864 165.431 23.5591 165.419 23.5344C165.406 23.5098 165.388 23.4886 165.365 23.473C165.342 23.4573 165.316 23.4476 165.288 23.4447C165.261 23.4419 165.233 23.4459 165.207 23.4566L164.391 23.7014C164.329 23.7213 164.275 23.7599 164.236 23.8118C164.198 23.8638 164.176 23.9266 164.175 23.9913C164.174 24.0188 164.18 24.046 164.193 24.0705C164.205 24.095 164.224 24.116 164.246 24.1316C164.269 24.1473 164.295 24.157 164.322 24.16C164.349 24.163 164.377 24.1592 164.403 24.1489Z" fill="#233862"/>
<path d="M165.365 30.0156C165.369 30.0582 165.385 30.0988 165.411 30.1331C165.436 30.1675 165.471 30.1944 165.51 30.211C165.55 30.2277 165.593 30.2334 165.635 30.2277C165.678 30.2219 165.718 30.2049 165.751 30.1784C166.051 29.9402 166.437 29.4199 166.437 28.3252C166.437 26.5885 164.887 25.9187 165.365 30.0156Z" fill="#E2A18D"/>
</svg>
