<svg width="322" height="206" viewBox="0 0 322 206" fill="none" xmlns="http://www.w3.org/2000/svg">
<path d="M19.1339 205.132C4.71461 181.832 -11.3533 149.137 14.2145 128.17C22.1402 121.67 35.532 119.324 41.5282 111.436C48.5881 102.154 35.3603 84.8117 38.4442 64.6531C44.681 23.8854 84.6998 15.5891 132.278 26.2391C176.792 36.2025 182.386 12.8561 224.789 18.2511C266.64 23.576 265.189 46.5278 267.962 69.9781C270.165 88.615 286.328 84.0541 297.478 90.5171C329.007 106.915 325.278 141.579 313.144 171.439C309.634 183.451 305.974 191.31 300.586 202.794L19.1339 205.132Z" fill="#E3EAFF"/>
<path d="M61.7874 183.491C64.2558 179.336 64.1337 174.327 61.4211 168.462C59.0052 174.459 59.1273 179.468 61.7874 183.491Z" fill="#9EB6FF"/>
<path d="M56.9696 175.488C58.6204 171.407 57.8187 166.911 54.5646 162.002C53.2141 167.739 54.0158 172.234 56.9696 175.488Z" fill="#9EB6FF"/>
<path d="M51.7715 167.617C52.7524 163.548 51.3717 159.436 47.6293 155.279C47.1505 160.859 48.5312 164.972 51.7715 167.617Z" fill="#9EB6FF"/>
<path d="M40.2032 151.338C40.795 156.037 42.6644 159.198 45.8113 160.821C45.9002 157.272 44.0309 154.112 40.2032 151.338Z" fill="#9EB6FF"/>
<path d="M33.855 150.326C35.0393 154.109 37.0453 156.435 39.8731 157.304C39.4248 154.376 37.4188 152.05 33.855 150.326Z" fill="#9EB6FF"/>
<path d="M36.8329 157.899C35.3665 155.324 32.6601 153.869 28.7137 153.535C31.1734 156.644 33.8798 158.098 36.8329 157.899Z" fill="#9EB6FF"/>
<path d="M46.3437 179.39C51.0641 183.889 55.8097 185.632 60.5805 184.619C57.6026 180.771 52.857 179.028 46.3437 179.39Z" fill="#9EB6FF"/>
<path d="M51.5572 170.787C48.1916 168.651 44.0538 168.635 39.1439 170.738C44.032 172.872 48.1697 172.888 51.5572 170.787Z" fill="#9EB6FF"/>
<path d="M36.3092 165.786C40.561 167.647 44.161 167.661 47.109 165.828C44.1814 163.969 40.5814 163.955 36.3092 165.786Z" fill="#9EB6FF"/>
<path d="M41.6856 161.724C38.7558 159.872 35.1555 159.858 30.8848 161.682C35.1417 163.543 38.742 163.557 41.6856 161.724Z" fill="#9EB6FF"/>
<path d="M64.6253 192.782C60.5182 181.975 60.3422 182.917 56.7903 176.8C55.8327 175.147 54.8393 173.591 53.8103 172.132C51.6635 169.17 49.2022 166.449 46.4694 164.016C43.3247 161.101 40.6889 159.261 38.5623 158.496L38.3437 158.301C38.3239 158.263 38.291 158.232 38.2508 158.216C38.2107 158.2 38.166 158.199 38.125 158.213C38.0843 158.2 38.0415 158.196 37.9992 158.201C37.9569 158.205 37.916 158.219 37.8791 158.24C37.819 158.307 37.7752 158.387 37.7512 158.474C37.7387 158.514 37.7346 158.557 37.7393 158.6C37.744 158.642 37.7574 158.683 37.7785 158.72L37.8725 158.879C37.9411 158.938 38.0205 158.983 38.1064 159.012V159.052L38.2978 159.102C40.3581 159.895 42.9165 161.698 45.9731 164.51C48.6617 166.936 51.0764 169.649 53.174 172.6C54.2433 174.072 55.2358 175.598 56.1475 177.172L56.3826 177.583C53.2167 174.546 48.7535 173.623 42.9931 174.814C47.8031 178.196 52.2663 179.119 56.3826 177.583C59.8371 183.612 59.9103 182.493 63.9115 193.029L64.6253 192.782Z" fill="#9EB6FF"/>
<path d="M89.3065 186.548C87.6303 183.731 87.713 180.334 89.5547 176.356C91.1916 180.423 91.1088 183.82 89.3065 186.548Z" fill="#8CA9FF"/>
<path d="M92.5698 181.126C91.4503 178.357 91.9936 175.308 94.1997 171.98C95.1173 175.868 94.574 178.917 92.5698 181.126Z" fill="#8CA9FF"/>
<path d="M96.0953 175.784C95.4306 173.024 96.3671 170.236 98.9048 167.417C99.2299 171.201 98.2934 173.99 96.0953 175.784Z" fill="#8CA9FF"/>
<path d="M103.94 164.744C103.539 167.931 102.272 170.074 100.137 171.176C100.078 168.772 101.346 166.628 103.94 164.744Z" fill="#8CA9FF"/>
<path d="M108.245 164.058C107.443 166.623 106.083 168.201 104.164 168.79C104.468 166.804 105.828 165.227 108.245 164.058Z" fill="#8CA9FF"/>
<path d="M106.228 169.194C107.222 167.445 109.057 166.458 111.735 166.234C110.064 168.342 108.229 169.329 106.228 169.194Z" fill="#8CA9FF"/>
<path d="M99.7772 183.767C96.5763 186.818 93.3583 188 90.1231 187.314C92.1426 184.704 95.3607 183.522 99.7772 183.767Z" fill="#8CA9FF"/>
<path d="M96.2407 177.933C98.5233 176.485 101.329 176.475 104.658 177.901C101.347 179.348 98.5415 179.358 96.2407 177.933Z" fill="#8CA9FF"/>
<path d="M106.579 174.542C103.696 175.804 101.254 175.813 99.2546 174.57C101.241 173.31 103.683 173.301 106.579 174.542Z" fill="#8CA9FF"/>
<path d="M102.935 171.788C104.922 170.531 107.364 170.522 110.26 171.758C107.375 173.021 104.933 173.03 102.935 171.788Z" fill="#8CA9FF"/>
<path d="M87.3792 192.85C90.1636 185.525 90.2828 186.159 92.6922 182.012C93.3415 180.89 94.0153 179.833 94.7135 178.841C96.1691 176.834 97.8384 174.99 99.6919 173.342C101.824 171.365 103.61 170.117 105.049 169.598L105.197 169.466C105.211 169.441 105.232 169.421 105.259 169.41C105.285 169.399 105.314 169.397 105.342 169.406C105.369 169.398 105.398 169.395 105.427 169.398C105.456 169.402 105.484 169.41 105.509 169.424C105.55 169.47 105.58 169.524 105.596 169.583C105.604 169.611 105.607 169.64 105.603 169.669C105.6 169.697 105.591 169.725 105.577 169.75L105.513 169.859C105.467 169.9 105.413 169.93 105.355 169.949V169.976L105.226 170.01C103.828 170.548 102.093 171.771 100.021 173.678C98.1983 175.321 96.5611 177.159 95.1388 179.158C94.4135 180.156 93.7403 181.19 93.1218 182.257L92.9622 182.536C95.1092 180.477 98.1359 179.852 102.042 180.659C98.7839 182.951 95.7571 183.577 92.9622 182.536C90.6195 186.626 90.5703 185.866 87.8569 193.011L87.3792 192.85Z" fill="#8CA9FF"/>
<path d="M120.398 189.341L113.343 188.768L117.628 192.018C117.628 192.018 112.381 202.275 96.2986 204.043C94.5921 203.533 92.3423 202.716 90.4434 201.994C88.3161 201.185 86.6271 200.498 86.6271 200.498C86.6271 200.498 88.1401 174.889 126.052 179.202C123.524 185.457 120.398 189.341 120.398 189.341Z" fill="#9EB6FF"/>
<path d="M126.052 179.204C102.177 183.541 92.8048 197.653 90.4435 201.996C88.3161 201.187 86.6271 200.5 86.6271 200.5C86.6271 200.5 85.1458 193.186 91.2306 187.053C96.5993 181.65 108.281 177.183 126.052 179.204Z" fill="#8CA9FF"/>
<path d="M215.978 186.865L221.793 187.74L217.712 189.558C217.712 189.558 220.018 198.85 232.689 203.322C234.166 203.233 236.139 202.994 237.811 202.776C239.685 202.524 241.182 202.288 241.182 202.288C241.182 202.288 244.805 181.291 213.327 177.602C214.182 183.132 215.978 186.865 215.978 186.865Z" fill="#9EB6FF"/>
<path d="M213.324 177.596C231.812 185.623 236.718 198.811 237.811 202.77C239.685 202.519 241.504 202.318 241.504 202.318C241.504 202.318 243.764 196.648 240.003 190.54C236.681 185.149 228.079 179.325 213.324 177.596Z" fill="#8CA9FF"/>
<path d="M65.8956 199.197C65.8956 199.197 64.7084 200.113 63.2009 201.22C60.375 198.299 38.8848 182.349 19.0181 184.156C25.0307 181.71 31.6303 180.597 38.0813 181.477C39.3527 181.647 40.6137 181.888 41.8583 182.198L44.2382 185.259L45.151 183.199C53.3621 186.104 60.8997 192.226 65.8956 199.197Z" fill="#8CA9FF"/>
<path d="M62.8565 195.411C62.9658 195.532 63.0752 195.651 63.1768 195.768C63.0697 195.65 62.9669 195.532 62.8565 195.411Z" fill="#3F964F"/>
<path d="M63.2009 201.22C61.8541 202.204 62.7942 203.574 61.5545 204.352C57.1686 205.063 49.3467 204.076 43.8447 202.205L46.0026 198.661L40.5902 200.985C36.3638 199.262 32.3435 197.071 28.6043 194.453L30.9974 192.506L25.3641 191.949C22.3545 189.393 20.0839 186.701 19.0137 184.156C38.8848 182.349 60.376 198.298 63.2009 201.22Z" fill="#9EB6FF"/>
<path d="M274.815 165.665C274.815 165.665 275.757 169.427 271.329 174.5C266.815 179.669 266.255 183.964 266.255 183.964L262.969 185.529C262.969 185.529 264.137 179.08 267.962 175.099C272.754 170.122 274.815 165.665 274.815 165.665Z" fill="#9EB6FF"/>
<path d="M282.257 169.607C282.257 169.607 282.02 172.456 277.763 175.376C273.417 178.346 272.027 181.341 272.027 181.341L269.321 182.53C269.321 182.53 271.701 177.494 275.291 175.261C279.779 172.466 282.257 169.607 282.257 169.607Z" fill="#9EB6FF"/>
<path d="M267.34 170.343C267.34 170.343 264.454 171.382 261.072 177.817C258.317 183.064 258.81 186.321 257.1 189.528L261.539 186.733C262.397 184.363 261.267 182.346 263.535 177.471C265.658 172.906 267.34 170.343 267.34 170.343Z" fill="#9EB6FF"/>
<path d="M240.634 184.771C240.634 184.771 238.815 187.252 239.598 194.472C240.233 200.361 242.827 201.817 243.034 203.192L244.954 200.819C244.031 198.325 242.284 198.127 241.448 192.816C240.67 187.832 240.634 184.771 240.634 184.771Z" fill="#9EB6FF"/>
<path d="M260.519 173.096C260.519 173.096 257.55 177.482 256.341 180.464C254.614 184.696 255.715 187.507 254.264 191.957L251.053 194.244C251.053 194.244 250.193 188.934 252.534 183.796C256.457 175.172 260.519 173.096 260.519 173.096Z" fill="#9EB6FF"/>
<path d="M251.538 173.11C251.259 176.068 250.549 178.97 249.431 181.723C245.981 190.042 248.502 197.1 248.502 197.1L246.509 199.038C246.509 199.038 242.162 192.986 245.255 186.081C248.53 178.788 251.538 173.11 251.538 173.11Z" fill="#9EB6FF"/>
<path d="M261.189 187.295C261.189 187.295 263.419 187.125 271.58 190.496C276.809 192.658 275.782 190.176 280.475 193.112C276.491 192.399 274.394 194.88 269.414 193.151C265.431 191.766 261.347 190.696 257.197 189.948L261.189 187.295Z" fill="#9EB6FF"/>
<path d="M276.092 197.242C276.092 197.242 271.637 200.522 264.285 197.947C259.756 196.376 254.999 195.561 250.205 195.532L253.493 192.369C253.493 192.369 257.21 190.956 264.601 194.365C269.677 196.705 276.092 197.242 276.092 197.242Z" fill="#9EB6FF"/>
<path d="M270.179 202.102C270.179 202.102 264.057 205.428 256.699 202.857C252.169 201.285 248.593 201.474 243.799 201.445L247.087 198.282C247.087 198.282 250.804 196.869 258.195 200.278C263.272 202.618 270.179 202.102 270.179 202.102Z" fill="#9EB6FF"/>
<path d="M285.117 184.952C285.117 184.952 282.135 186.47 277.549 184.67C272.9 182.842 269.096 182.921 269.096 182.921L270.827 181.876C270.827 181.876 273.179 180.983 277.85 183.136C281.063 184.611 285.117 184.952 285.117 184.952Z" fill="#9EB6FF"/>
<path d="M266.435 184.677C266.435 184.677 270.228 185.305 275.524 187.256C278.869 188.476 283.981 187.65 283.981 187.65C283.981 187.65 279.139 191.602 274.225 189.457C268.592 186.995 262.579 186.213 262.579 186.213L266.435 184.677Z" fill="#9EB6FF"/>
<path d="M270.316 182.342C270.316 182.342 274.688 178.364 280.093 178.807C283.3 179.043 286.524 178.742 289.631 177.915C289.631 177.915 285.437 182.107 280.517 181.164C275.974 180.307 272.09 182.405 272.09 182.405L270.316 182.342Z" fill="#9EB6FF"/>
<path d="M242.764 203.806L242.078 203.273C245.363 199.046 258.542 185.992 271.928 181.334L272.213 182.154C259.013 186.749 246.008 199.634 242.764 203.806Z" fill="#9EB6FF"/>
<path d="M302.989 204.806H11.2345C11.0158 204.806 10.7993 204.763 10.5973 204.679C10.3953 204.595 10.2118 204.473 10.0572 204.318C9.90257 204.164 9.77993 203.98 9.69626 203.778C9.61258 203.576 9.56952 203.36 9.56952 203.141C9.56952 202.699 9.74493 202.276 10.0572 201.964C10.3694 201.651 10.7929 201.476 11.2345 201.476H302.989C303.431 201.476 303.854 201.651 304.166 201.964C304.479 202.276 304.654 202.699 304.654 203.141C304.654 203.36 304.611 203.576 304.527 203.778C304.444 203.98 304.321 204.164 304.166 204.318C304.012 204.473 303.828 204.595 303.626 204.679C303.424 204.763 303.208 204.806 302.989 204.806Z" fill="#95A6DB"/>
<path d="M65.7054 88.0038C65.7054 88.0038 53.3839 94.4177 47.5856 108.277C51.2106 113.38 56.4274 111.076 56.4274 111.076L66.5942 99.7066L65.7054 88.0038Z" fill="#EE9849"/>
<path d="M87.8537 96.0815C88.7228 101.985 94.4074 115.151 98.7616 117.447L103.737 110.833C103.737 110.833 99.1519 96.9167 97.4913 91.7612C97.1718 90.7492 96.5548 89.857 95.7208 89.2009C94.8868 88.5447 93.8744 88.155 92.8157 88.0826C89.9034 87.9033 86.9955 90.3313 87.8537 96.0815Z" fill="#EE9849"/>
<path d="M123.231 107.302C123.231 107.302 107.016 107.498 100.96 108.478C98.3473 108.901 98.5463 115.382 98.7616 117.443C102.446 118.878 115.7 117.251 123.916 113.281C123.889 111.708 123.231 107.302 123.231 107.302Z" fill="#EE9849"/>
<path d="M131.319 109.467C131.446 105.812 130.31 107.25 129.253 107.26C126.263 107.287 129.993 105.285 129.865 104.017C129.756 102.892 125.346 104.518 123.315 108.235L123.746 112.607C126.354 114.72 130.856 114.65 131.319 109.467Z" fill="#E2A18D"/>
<path d="M135.677 90.997L141.636 94.8615C141.995 95.0946 142.248 95.461 142.337 95.8801C142.426 96.2991 142.346 96.7365 142.113 97.096L137.553 103.162C137.319 103.522 136.953 103.774 136.534 103.863C136.114 103.953 135.677 103.872 135.317 103.639L133.966 102.694L124.826 117.435C124.673 117.68 124.429 117.855 124.148 117.921C123.867 117.987 123.571 117.939 123.325 117.787C123.242 117.736 123.166 117.674 123.1 117.602C122.939 117.427 122.839 117.204 122.816 116.968C122.793 116.731 122.848 116.493 122.973 116.29L132.176 101.448L130.39 100.2C130.031 99.9663 129.778 99.5997 129.689 99.1805C129.6 98.7613 129.68 98.3237 129.913 97.964L133.442 91.478C133.557 91.2997 133.707 91.1458 133.881 91.0251C134.056 90.9043 134.252 90.8192 134.46 90.7746C134.667 90.7299 134.882 90.7265 135.091 90.7647C135.299 90.8029 135.499 90.8818 135.677 90.997Z" fill="#062440"/>
<path d="M135.838 102.156C135.912 102.212 135.997 102.252 136.087 102.275C136.177 102.298 136.271 102.303 136.363 102.29C136.455 102.276 136.543 102.245 136.623 102.197C136.703 102.15 136.772 102.087 136.828 102.012L140.859 96.6052C140.914 96.5307 140.955 96.446 140.977 96.3558C141 96.2657 141.005 96.172 140.992 96.08C140.978 95.988 140.947 95.8996 140.899 95.8198C140.852 95.7399 140.789 95.6702 140.714 95.6147C140.64 95.5591 140.555 95.5187 140.465 95.4959C140.375 95.473 140.281 95.4682 140.189 95.4816C140.097 95.495 140.009 95.5264 139.929 95.574C139.849 95.6216 139.779 95.6845 139.724 95.759L135.693 101.166C135.638 101.24 135.597 101.325 135.574 101.415C135.552 101.505 135.547 101.599 135.56 101.691C135.573 101.783 135.605 101.872 135.652 101.951C135.7 102.031 135.763 102.101 135.838 102.156Z" fill="#C9D6FF"/>
<path d="M133.779 100.8C133.857 100.851 133.944 100.887 134.035 100.905C134.127 100.923 134.221 100.923 134.313 100.904C134.404 100.886 134.491 100.849 134.568 100.797C134.645 100.745 134.712 100.678 134.763 100.6L138.48 94.9796C138.531 94.9019 138.567 94.8148 138.585 94.7232C138.603 94.6317 138.603 94.5375 138.584 94.4461C138.566 94.3546 138.529 94.2678 138.477 94.1905C138.425 94.1132 138.358 94.047 138.28 93.9957C138.202 93.944 138.115 93.9081 138.024 93.8901C137.932 93.8721 137.838 93.8723 137.746 93.8908C137.655 93.9093 137.568 93.9457 137.491 93.9978C137.414 94.0499 137.347 94.1168 137.296 94.1947L133.579 99.8148C133.527 99.8926 133.491 99.9798 133.474 100.071C133.456 100.163 133.456 100.257 133.475 100.349C133.493 100.44 133.53 100.527 133.582 100.605C133.634 100.682 133.701 100.748 133.779 100.8Z" fill="#C9D6FF"/>
<path d="M131.538 99.3108C131.7 99.4061 131.893 99.4331 132.075 99.3859C132.257 99.3388 132.412 99.2213 132.508 99.0594L135.924 93.2479C136.019 93.0859 136.046 92.8929 135.999 92.7111C135.951 92.5294 135.834 92.3737 135.672 92.2783C135.51 92.1833 135.317 92.1565 135.136 92.2036C134.954 92.2507 134.798 92.368 134.703 92.5297L131.285 98.3412C131.238 98.4214 131.207 98.5101 131.195 98.6023C131.182 98.6945 131.187 98.7883 131.211 98.8783C131.234 98.9684 131.275 99.0529 131.331 99.1271C131.388 99.2013 131.458 99.2638 131.538 99.3108Z" fill="#C9D6FF"/>
<path d="M129.275 113.02C129.248 112.904 129.254 112.829 129.185 112.747C129.191 112.743 129.197 112.739 129.204 112.737C129.21 112.735 129.217 112.734 129.225 112.735C129.232 112.735 129.238 112.737 129.245 112.741C129.251 112.744 129.256 112.748 129.261 112.754C130.29 112.656 131.071 111.931 130.947 111.202C130.918 111.086 130.891 110.97 130.863 110.854C131.456 110.565 131.847 110.033 131.773 109.536C131.743 109.333 131.655 109.143 131.519 108.989C132.146 108.741 132.533 108.208 132.476 107.561C132.392 106.796 131.601 106.276 130.727 106.387C129.852 106.499 129.223 107.162 129.273 107.884C129.29 108.073 129.366 108.251 129.491 108.394C128.606 108.581 127.981 109.245 128.038 109.892C128.065 110.008 128.092 110.124 128.121 110.24C127.528 110.527 127.137 111.061 127.211 111.558C127.235 111.745 127.311 111.922 127.43 112.068C126.883 112.248 126.497 112.78 126.567 113.278C126.624 113.925 127.306 114.325 128.029 114.276C128.751 114.226 129.297 113.624 129.275 113.02Z" fill="#E2A18D"/>
<path d="M79.6885 78.552H79.6929L83.5049 78.5662L84.3674 87.5698L79.9181 89.9191L75.1725 87.5961L75.1353 77.5124L79.6885 78.552Z" fill="#E2A18D"/>
<path d="M73.8421 71.0647C73.8115 77.6501 77.9799 83.009 83.1529 83.0331C88.3259 83.0571 92.5435 77.7376 92.5741 71.1511C92.6047 64.5645 88.4319 59.2068 83.2633 59.1827C78.0946 59.1587 73.8727 64.4814 73.8421 71.0647Z" fill="#E2A18D"/>
<path d="M86.2193 72.91C86.9846 74.2557 87.9608 75.8999 87.9608 75.8999C87.9608 75.8999 87.424 77.2642 85.5973 77.2118C86.3833 76.9232 87.1682 76.4345 86.896 75.3916C86.6238 74.3487 86.2193 72.91 86.2193 72.91Z" fill="#CA8975"/>
<path d="M72.4614 65.5746C72.7587 59.3434 78.7025 58.0939 78.7025 58.0939C78.7025 58.0939 77.4999 57.4729 78.0586 55.6517C78.8925 56.3313 79.9234 56.7239 80.9982 56.7711C88.1401 57.0422 92.4167 58.811 91.3355 61.4719C90.9507 62.4197 95.4514 63.5489 92.5194 69.7922C92.1915 68.9625 92.1915 66.0185 90.9135 65.1942C89.6356 64.3699 90.1319 66.7334 87.0676 65.9595C83.9761 65.1734 82.1122 63.5894 79.6536 64.5153C77.6694 65.3899 74.3504 72.5766 74.3843 73.1035C74.3078 71.8944 72.3313 68.3175 72.4614 65.5746Z" fill="#333333"/>
<path d="M92.1379 74.6898C92.1379 74.6898 91.0546 78.1213 90.1581 78.9533C90.1997 77.4228 86.7495 77.9125 85.2901 77.8404C82.6468 77.7103 80.3139 75.0276 78.9627 78.3378C75.6098 78.0721 75.4065 70.5837 75.4065 70.5837C72.3543 77.6195 75.283 83.4605 83.2447 85.3135C88.4899 86.5357 92.3675 80.1601 92.1379 74.6898Z" fill="#333333"/>
<path d="M82.5046 72.0092C82.3259 71.9967 82.1549 71.9314 82.0132 71.8217C81.8715 71.712 81.7655 71.5628 81.7086 71.3929C81.6517 71.2229 81.6465 71.0399 81.6936 70.867C81.7407 70.6941 81.838 70.5391 81.9731 70.4215C82.1083 70.3038 82.2754 70.2289 82.4531 70.2062C82.6309 70.1835 82.8114 70.214 82.9718 70.2938C83.1322 70.3737 83.2654 70.4993 83.3544 70.6548C83.4435 70.8103 83.4844 70.9887 83.4721 71.1674C83.4553 71.4073 83.344 71.6307 83.1626 71.7885C82.9812 71.9464 82.7445 72.0257 82.5046 72.0092Z" fill="#333333"/>
<path d="M89.9624 72.7559C89.7837 72.7434 89.6127 72.6781 89.471 72.5684C89.3293 72.4587 89.2233 72.3094 89.1664 72.1395C89.1095 71.9696 89.1043 71.7866 89.1514 71.6137C89.1985 71.4408 89.2957 71.2858 89.4309 71.1681C89.5661 71.0505 89.7332 70.9756 89.9109 70.9529C90.0887 70.9302 90.2692 70.9607 90.4296 71.0405C90.59 71.1203 90.7232 71.2459 90.8122 71.4014C90.9013 71.5569 90.9422 71.7353 90.9299 71.9141C90.9131 72.154 90.8018 72.3774 90.6204 72.5352C90.439 72.693 90.2023 72.7724 89.9624 72.7559Z" fill="#333333"/>
<path d="M91.7116 71.0866C91.6337 71.081 91.5586 71.0554 91.4936 71.012C91.4286 70.9687 91.376 70.9093 91.341 70.8395C91.1376 70.4339 90.8742 70.1836 90.5582 70.0885C90.0116 69.9278 89.4388 70.259 89.4333 70.2623C89.3827 70.2926 89.3265 70.3126 89.2681 70.3212C89.2097 70.3298 89.1502 70.3268 89.0929 70.3124C88.9773 70.2833 88.8779 70.2094 88.8168 70.1071C88.7556 70.0047 88.7376 69.8823 88.7667 69.7666C88.7958 69.651 88.8697 69.5517 88.972 69.4905C89.0092 69.4675 89.8783 68.9548 90.8031 69.2227C91.3716 69.3877 91.8231 69.7955 92.1445 70.435C92.1981 70.5417 92.2071 70.6653 92.1696 70.7787C92.1321 70.8921 92.0511 70.9859 91.9444 71.0396C91.8722 71.0752 91.792 71.0914 91.7116 71.0866Z" fill="#333333"/>
<path d="M80.6768 70.2984C80.5924 70.2922 80.5115 70.2624 80.4433 70.2124C80.3751 70.1624 80.3223 70.0942 80.2911 70.0156C80.2598 69.937 80.2513 69.8512 80.2666 69.768C80.2818 69.6848 80.3202 69.6076 80.3773 69.5451C81.0179 68.8499 81.6989 68.4946 82.3997 68.4891C82.963 68.4935 83.5031 68.7143 83.9083 69.1057C83.9492 69.1482 83.9814 69.1985 84.0029 69.2534C84.0244 69.3084 84.0348 69.3671 84.0337 69.4261C84.0325 69.4852 84.0197 69.5434 83.9961 69.5975C83.9724 69.6516 83.9383 69.7005 83.8957 69.7414C83.8532 69.7823 83.803 69.8144 83.748 69.8359C83.693 69.8574 83.6343 69.8679 83.5753 69.8668C83.5163 69.8656 83.458 69.8528 83.4039 69.8291C83.3499 69.8055 83.301 69.7714 83.26 69.7288C83.0239 69.5122 82.7157 69.391 82.3953 69.3888C81.958 69.3965 81.5 69.6545 81.0387 70.1541C80.9931 70.2038 80.9369 70.2426 80.8742 70.2676C80.8116 70.2926 80.7441 70.3031 80.6768 70.2984Z" fill="#333333"/>
<path d="M75.3135 70.6034C76.2799 71.8135 76.2603 73.4358 75.2698 74.2262C74.2794 75.0166 72.6931 74.6766 71.7268 73.4664C70.7604 72.2563 70.78 70.634 71.7705 69.8436C72.7609 69.0532 74.3504 69.3943 75.3135 70.6034Z" fill="#E2A18D"/>
<path d="M73.8825 73.5944C73.9337 73.5828 73.9813 73.5592 74.0214 73.5255C74.6237 73.0281 74.8314 72.3569 74.5756 71.7283C74.4471 71.415 74.2248 71.1493 73.9393 70.9674C73.6537 70.7856 73.3188 70.6966 72.9807 70.7127C72.9363 70.7163 72.8931 70.7287 72.8535 70.7491C72.8139 70.7694 72.7787 70.7974 72.75 70.8313C72.7212 70.8653 72.6994 70.9046 72.6858 70.947C72.6722 70.9894 72.6671 71.034 72.6707 71.0784C72.6781 71.168 72.7208 71.2509 72.7894 71.3091C72.8233 71.3378 72.8626 71.3596 72.905 71.3732C72.9474 71.3868 72.992 71.3919 73.0364 71.3883C73.2305 71.3843 73.4213 71.439 73.584 71.5451C73.7466 71.6511 73.8735 71.8037 73.9481 71.983C74.0903 72.3328 73.9634 72.6947 73.5907 73.0029C73.5314 73.0513 73.4903 73.1183 73.4741 73.1931C73.4579 73.2678 73.4675 73.3458 73.5014 73.4144C73.5353 73.483 73.5915 73.538 73.6607 73.5705C73.7299 73.603 73.8081 73.611 73.8825 73.5933V73.5944Z" fill="#CA8975"/>
<path d="M82.2444 78.4504C82.2444 78.2142 82.3221 78.0022 82.5494 78.0634C83.3638 78.2864 84.1902 78.4634 85.0245 78.5936C85.8611 78.7074 86.7034 78.7735 87.5476 78.7915C87.7837 78.798 87.8077 79.0265 87.729 79.2495C87.4011 80.1722 86.1789 81.0839 84.7512 80.8762C83.3234 80.6685 82.2641 79.3304 82.2444 78.4504Z" fill="white"/>
<path d="M86.6446 196.34C90.0149 200.991 98.2915 198.137 98.0139 204.43C85.4267 204.349 80.1947 204.43 80.1947 204.43C80.2111 202.985 80.4592 199.555 80.75 198.214L86.6446 196.34Z" fill="black"/>
<path d="M67.812 196.463C71.1823 201.113 79.459 198.259 79.1813 204.552C66.5942 204.471 61.3621 204.552 61.3621 204.552C61.3785 203.108 61.6267 199.679 61.9175 198.336L67.812 196.463Z" fill="black"/>
<path d="M92.4768 125.344C92.4768 125.344 94.52 155.15 93.6903 161.776C92.8605 168.402 89.9198 176.899 90.2532 198.816C86.1494 199.844 80.2056 198.816 80.2056 198.816C80.2056 198.816 79.3234 174.033 83.6612 162.959C81.8979 152.206 76.2373 127.579 76.2373 127.579L92.4768 125.344Z" fill="#2B478B"/>
<path d="M84.7042 126.16C84.7042 126.16 80.5773 159.622 78.5582 165.968C76.539 172.314 74.7801 176.964 71.1244 198.556C66.9068 198.767 60.8177 198.636 60.8177 198.636C60.8177 198.636 61.3643 171.885 67.9355 165.656C68.1542 154.753 66.874 126.374 66.874 126.374L84.7042 126.16Z" fill="#2B478B"/>
<path d="M65.7054 88.0039C65.7054 88.0039 72.8112 85.8557 75.2819 86.598C82.7069 90.1739 84.3674 86.8243 84.3674 86.8243C86.7408 87.0298 92.8157 88.0826 92.8157 88.0826C94.3932 95.9066 94.438 104.211 94.2926 110.264C94.1899 115.536 94.3254 129.988 94.3254 129.988C89.8591 130.508 85.3677 130.784 80.8714 130.815C73.3972 130.767 66.2914 129.758 66.2914 129.758C66.2914 129.758 65.1348 115.437 65.4671 110.035C65.3589 103.981 65.7054 95.982 65.7054 88.0039Z" fill="#EE9849"/>
<path d="M65.9918 125.373L70.3788 127.378L71.4622 122.969C69.5039 122.573 67.5794 122.025 65.7065 121.329C65.6245 122.739 65.7065 124.308 65.9918 125.373Z" fill="white"/>
<path d="M72.0427 160.736C72.0427 160.736 90.7364 160.073 97.4826 160.073C97.1404 150.256 96.0986 139.507 95.4536 129.368C94.5222 114.785 94.5124 104.341 90.5845 87.7076C89.9187 87.3873 88.808 87.3436 88.6167 87.3938L89.7198 100.822L76.187 100.603L73.7044 86.446C73.0393 86.3474 72.3603 86.41 71.7246 86.6286C71.7246 86.6286 74.2444 102.253 70.3788 127.375C70.3329 127.675 72.0427 160.736 72.0427 160.736Z" fill="white"/>
<path d="M91.9565 106.819H76.6254C76.6254 106.819 76.6013 115.776 83.9837 115.776C92.9392 115.776 91.9565 106.819 91.9565 106.819Z" fill="#D1DFFF"/>
<path d="M59.8775 124.414C62.029 127.475 64.7029 126.575 65.4529 126.211C66.2673 125.813 67.4501 125.62 68.0055 126.134C68.5608 126.647 68.9413 127.302 69.5152 126.979C70.3165 126.526 69.0779 124.464 67.3146 124.7C67.3146 124.7 68.6964 124.496 69.2823 125.109C69.9175 125.781 70.3887 126.28 70.897 126.106C70.9726 126.075 71.0408 126.028 71.0975 125.968C71.1543 125.909 71.1983 125.839 71.2268 125.762C71.2554 125.685 71.268 125.604 71.2637 125.522C71.2594 125.44 71.2384 125.36 71.202 125.286C71.5781 125.505 72.3652 125.603 72.3346 125.068C72.2405 123.383 70.7144 121.46 68.2515 121.396C71.0009 120.449 71.6622 122.926 72.5543 122.817C73.0911 122.748 73.0178 122.084 72.8309 121.68C72.2318 120.386 70.9211 119.559 69.4966 119.494C68.0722 119.428 66.0454 120.191 65.4714 121.496C65.4714 121.496 63.9289 122.398 63.0773 121.509L59.8775 124.414Z" fill="#E2A18D"/>
<path d="M63.7005 121.451L56.6384 110.653C56.6384 110.653 54.4072 106.141 47.5856 108.277C47.1111 111.878 48.1136 117.309 59.7792 125.735C60.6362 123.742 63.7005 121.451 63.7005 121.451Z" fill="#EE9849"/>
<path opacity="0.7" d="M114.212 143.693C114.212 143.693 117.865 134.609 113.429 130.639C108.947 126.628 105.876 127.953 102.129 123.771C97.7362 118.871 115.279 113.682 110.829 107.325C108.014 103.303 100.244 104.264 100.244 104.264C100.244 104.264 109.755 98.1247 116.65 105.259C121.214 109.986 112.605 116.746 123.434 117.848C135.339 119.058 141.157 112.137 157.995 122.752C169.822 130.209 170.676 143.696 170.676 143.696L114.212 143.693Z" fill="white"/>
<path d="M117.657 204.359H115.938L125.913 158.57H127.632L117.657 204.359Z" fill="#062440"/>
<path d="M167.97 204.359L157.995 158.57H159.713L169.69 204.359H167.97Z" fill="#062440"/>
<path d="M170.718 144.854C170.718 155.929 158.059 164.907 142.443 164.907C126.826 164.907 114.165 155.929 114.165 144.854C114.165 144.464 114.18 144.077 114.212 143.693C114.241 143.325 114.284 142.962 114.342 142.599C115.921 139.395 127.898 136.903 142.437 136.903C156.977 136.903 168.957 139.395 170.532 142.599C170.59 142.961 170.633 143.324 170.663 143.693C170.7 144.076 170.719 144.463 170.718 144.854Z" fill="#D87355"/>
<path d="M170.718 143.321C170.718 143.446 170.703 143.571 170.671 143.693C169.824 147.065 157.51 149.739 142.443 149.739C127.375 149.739 115.059 147.065 114.212 143.693C114.18 143.571 114.165 143.446 114.165 143.321C114.167 143.07 114.228 142.824 114.342 142.601C115.921 139.396 127.898 136.904 142.437 136.904C156.977 136.904 168.957 139.396 170.532 142.601C170.65 142.823 170.713 143.07 170.718 143.321Z" fill="#062440"/>
<path d="M146.249 204.359L142.921 158.57H144.677L148.005 204.359H146.249Z" fill="#062440"/>
<path d="M160.96 170.237H124.439V171.871H160.96V170.237Z" fill="#062440"/>
<path d="M136.145 140.912C136.145 142.171 132.49 143.192 127.981 143.192C123.471 143.192 119.817 142.171 119.817 140.912V139.502C119.817 139.502 124.853 138.628 127.981 138.628C131.363 138.628 136.145 139.502 136.145 139.502V140.912Z" fill="#CF4E21"/>
<path d="M136.145 139.502C136.145 140.762 132.49 141.783 127.981 141.783C123.471 141.783 119.817 140.762 119.817 139.502C119.817 138.243 123.472 137.222 127.981 137.222C132.489 137.222 136.145 138.243 136.145 139.502Z" fill="#F37A50"/>
<path d="M131.253 140.406L126.771 138.712C126.687 138.68 126.619 138.616 126.582 138.534C126.545 138.452 126.541 138.359 126.573 138.275C126.605 138.191 126.669 138.123 126.751 138.086C126.833 138.049 126.926 138.046 127.01 138.078L131.492 139.771C131.576 139.804 131.644 139.868 131.681 139.949C131.718 140.031 131.721 140.124 131.69 140.209C131.658 140.292 131.594 140.36 131.512 140.397C131.43 140.434 131.337 140.437 131.253 140.406Z" fill="#CF4E21"/>
<path d="M134.381 140.16L129.839 138.441C129.802 138.427 129.767 138.405 129.738 138.378C129.709 138.35 129.685 138.317 129.669 138.281C129.653 138.244 129.643 138.205 129.642 138.165C129.641 138.125 129.648 138.085 129.662 138.047L129.686 137.983C129.7 137.945 129.722 137.911 129.749 137.882C129.776 137.852 129.809 137.829 129.846 137.812C129.882 137.795 129.922 137.786 129.962 137.785C130.002 137.784 130.042 137.79 130.08 137.805L134.622 139.523C134.66 139.537 134.694 139.559 134.723 139.586C134.753 139.614 134.776 139.647 134.793 139.684C134.809 139.72 134.818 139.76 134.82 139.8C134.821 139.84 134.814 139.88 134.8 139.918L134.775 139.982C134.746 140.058 134.689 140.119 134.615 140.153C134.541 140.186 134.457 140.189 134.381 140.16Z" fill="#CF4E21"/>
<path d="M128.462 140.678L123.919 138.959C123.882 138.945 123.847 138.923 123.818 138.896C123.789 138.868 123.765 138.835 123.749 138.799C123.732 138.762 123.723 138.722 123.722 138.682C123.72 138.642 123.727 138.602 123.741 138.564L123.766 138.5C123.781 138.462 123.802 138.428 123.83 138.399C123.857 138.37 123.89 138.346 123.926 138.33C123.963 138.313 124.002 138.304 124.043 138.303C124.083 138.302 124.122 138.309 124.16 138.323L128.702 140.041C128.778 140.07 128.839 140.128 128.873 140.201C128.906 140.275 128.909 140.359 128.88 140.435L128.855 140.5C128.841 140.538 128.82 140.572 128.792 140.601C128.765 140.631 128.732 140.654 128.695 140.671C128.659 140.687 128.619 140.696 128.579 140.697C128.539 140.699 128.499 140.692 128.462 140.678Z" fill="#CF4E21"/>
<path d="M125.586 141.051L121.043 139.333C121.006 139.319 120.971 139.297 120.942 139.27C120.913 139.242 120.889 139.209 120.872 139.173C120.856 139.136 120.847 139.096 120.845 139.056C120.844 139.016 120.851 138.976 120.865 138.938L120.89 138.874C120.904 138.836 120.926 138.802 120.953 138.773C120.981 138.744 121.014 138.72 121.05 138.704C121.087 138.687 121.126 138.678 121.166 138.677C121.206 138.676 121.246 138.682 121.284 138.697L125.826 140.415C125.902 140.444 125.963 140.502 125.996 140.575C126.029 140.649 126.032 140.733 126.004 140.809L125.979 140.874C125.965 140.912 125.943 140.946 125.916 140.975C125.888 141.005 125.856 141.028 125.819 141.044C125.782 141.061 125.743 141.07 125.703 141.071C125.663 141.072 125.623 141.066 125.586 141.051Z" fill="#CF4E21"/>
<path d="M163.842 141.096C163.842 142.356 160.186 143.377 155.678 143.377C151.17 143.377 147.514 142.356 147.514 141.096V139.687C147.514 139.687 152.55 138.813 155.678 138.813C159.059 138.813 163.842 139.687 163.842 139.687V141.096Z" fill="#CF4E21"/>
<path d="M163.842 139.687C163.842 140.946 160.186 141.968 155.678 141.968C151.17 141.968 147.514 140.946 147.514 139.687C147.514 138.428 151.169 137.407 155.678 137.407C160.187 137.407 163.842 138.428 163.842 139.687Z" fill="#F37A50"/>
<path d="M158.982 140.603L154.439 138.884C154.402 138.87 154.367 138.848 154.338 138.821C154.308 138.794 154.285 138.761 154.268 138.724C154.252 138.687 154.243 138.648 154.241 138.608C154.24 138.568 154.247 138.528 154.261 138.49L154.286 138.426C154.3 138.388 154.322 138.354 154.349 138.324C154.377 138.295 154.41 138.271 154.446 138.255C154.483 138.238 154.522 138.229 154.562 138.228C154.602 138.227 154.642 138.233 154.68 138.247L159.222 139.967C159.26 139.981 159.294 140.003 159.323 140.03C159.352 140.058 159.376 140.091 159.392 140.127C159.409 140.164 159.418 140.203 159.419 140.243C159.42 140.283 159.414 140.323 159.399 140.361L159.375 140.425C159.347 140.501 159.289 140.562 159.215 140.595C159.142 140.629 159.058 140.632 158.982 140.603Z" fill="#CF4E21"/>
<path d="M162.078 140.35L157.536 138.63C157.499 138.616 157.464 138.595 157.435 138.567C157.406 138.54 157.382 138.507 157.365 138.47C157.349 138.434 157.34 138.394 157.338 138.354C157.337 138.314 157.344 138.274 157.358 138.236L157.382 138.172C157.397 138.134 157.418 138.1 157.446 138.071C157.473 138.041 157.506 138.018 157.543 138.001C157.579 137.985 157.619 137.975 157.659 137.974C157.699 137.973 157.739 137.98 157.777 137.994L162.319 139.712C162.395 139.741 162.456 139.799 162.489 139.873C162.523 139.947 162.525 140.031 162.496 140.107L162.472 140.171C162.458 140.209 162.437 140.244 162.409 140.273C162.382 140.302 162.349 140.326 162.312 140.342C162.275 140.359 162.236 140.368 162.195 140.369C162.155 140.371 162.115 140.364 162.078 140.35Z" fill="#CF4E21"/>
<path d="M156.158 140.865L151.619 139.147C151.543 139.118 151.482 139.06 151.449 138.986C151.416 138.912 151.413 138.828 151.442 138.752L151.466 138.688C151.495 138.612 151.553 138.551 151.627 138.518C151.701 138.485 151.785 138.482 151.861 138.511L156.403 140.229C156.44 140.244 156.475 140.265 156.504 140.292C156.533 140.32 156.556 140.353 156.573 140.389C156.589 140.426 156.598 140.465 156.6 140.505C156.601 140.546 156.594 140.585 156.58 140.623L156.556 140.688C156.541 140.726 156.52 140.761 156.492 140.79C156.464 140.82 156.431 140.843 156.394 140.86C156.357 140.876 156.317 140.885 156.276 140.886C156.236 140.886 156.196 140.879 156.158 140.865Z" fill="#CF4E21"/>
<path d="M153.282 141.236L148.74 139.518C148.702 139.503 148.668 139.482 148.639 139.455C148.609 139.427 148.586 139.394 148.569 139.358C148.553 139.321 148.544 139.282 148.543 139.242C148.541 139.202 148.548 139.162 148.562 139.124L148.586 139.059C148.615 138.983 148.673 138.922 148.747 138.888C148.821 138.855 148.905 138.853 148.981 138.881L153.523 140.6C153.599 140.629 153.66 140.687 153.694 140.761C153.727 140.835 153.729 140.919 153.7 140.995L153.676 141.059C153.648 141.135 153.59 141.196 153.516 141.229C153.442 141.263 153.358 141.265 153.282 141.236Z" fill="#CF4E21"/>
<path d="M150.265 146.182C150.265 147.441 146.61 148.462 142.1 148.462C137.591 148.462 133.936 147.441 133.936 146.182V144.773C133.936 144.773 138.973 143.898 142.1 143.898C145.483 143.898 150.265 144.773 150.265 144.773V146.182Z" fill="#CF4E21"/>
<path d="M150.265 144.773C150.265 146.032 146.61 147.053 142.1 147.053C137.591 147.053 133.936 146.032 133.936 144.773C133.936 143.513 137.592 142.492 142.1 142.492C146.609 142.492 150.265 143.513 150.265 144.773Z" fill="#F37A50"/>
<path d="M145.404 145.689L140.862 143.97C140.786 143.941 140.725 143.884 140.692 143.81C140.658 143.736 140.656 143.651 140.685 143.576L140.709 143.511C140.723 143.474 140.744 143.439 140.772 143.41C140.799 143.381 140.832 143.357 140.869 143.341C140.905 143.325 140.945 143.315 140.985 143.314C141.025 143.313 141.065 143.32 141.102 143.334L145.645 145.053C145.682 145.067 145.717 145.088 145.746 145.115C145.776 145.143 145.799 145.176 145.816 145.212C145.832 145.249 145.842 145.288 145.843 145.328C145.844 145.369 145.837 145.409 145.823 145.446L145.799 145.511C145.785 145.548 145.763 145.583 145.736 145.612C145.708 145.641 145.675 145.665 145.638 145.681C145.602 145.698 145.562 145.707 145.522 145.708C145.482 145.71 145.442 145.703 145.404 145.689Z" fill="#CF4E21"/>
<path d="M148.501 145.431L143.959 143.711C143.921 143.697 143.887 143.676 143.858 143.648C143.829 143.621 143.805 143.588 143.789 143.551C143.772 143.515 143.763 143.475 143.762 143.435C143.761 143.395 143.768 143.355 143.782 143.318L143.806 143.253C143.835 143.177 143.892 143.116 143.966 143.083C144.04 143.049 144.124 143.047 144.199 143.075L148.742 144.795C148.779 144.809 148.814 144.83 148.843 144.857C148.873 144.885 148.896 144.918 148.913 144.954C148.929 144.991 148.939 145.03 148.94 145.07C148.941 145.111 148.934 145.151 148.92 145.188L148.896 145.253C148.882 145.29 148.86 145.325 148.833 145.354C148.805 145.383 148.772 145.407 148.735 145.423C148.699 145.44 148.659 145.449 148.619 145.45C148.579 145.452 148.539 145.445 148.501 145.431Z" fill="#CF4E21"/>
<path d="M142.581 145.95L138.039 144.232C137.964 144.203 137.902 144.145 137.869 144.072C137.835 143.998 137.833 143.914 137.861 143.838L137.886 143.772C137.9 143.735 137.922 143.701 137.949 143.671C137.977 143.642 138.01 143.619 138.046 143.602C138.083 143.586 138.122 143.577 138.162 143.576C138.202 143.574 138.242 143.581 138.28 143.595L142.822 145.314C142.86 145.328 142.894 145.35 142.923 145.377C142.953 145.405 142.976 145.438 142.993 145.474C143.009 145.511 143.019 145.55 143.02 145.591C143.021 145.631 143.014 145.671 143 145.708L142.975 145.773C142.961 145.81 142.939 145.845 142.912 145.874C142.884 145.903 142.852 145.927 142.815 145.943C142.778 145.96 142.739 145.969 142.699 145.97C142.659 145.971 142.619 145.964 142.581 145.95Z" fill="#CF4E21"/>
<path d="M139.703 146.322L135.161 144.603C135.085 144.575 135.024 144.517 134.99 144.443C134.957 144.37 134.954 144.286 134.983 144.21L135.008 144.144C135.022 144.107 135.043 144.072 135.071 144.043C135.098 144.014 135.131 143.99 135.168 143.974C135.204 143.958 135.244 143.948 135.284 143.947C135.324 143.946 135.364 143.953 135.401 143.967L139.944 145.686C140.019 145.714 140.081 145.772 140.114 145.846C140.147 145.92 140.15 146.004 140.122 146.08L140.097 146.145C140.082 146.182 140.061 146.216 140.034 146.246C140.006 146.275 139.973 146.298 139.937 146.315C139.9 146.331 139.861 146.34 139.821 146.342C139.78 146.343 139.741 146.336 139.703 146.322Z" fill="#CF4E21"/>
<path opacity="0.7" d="M169.688 130.196C170.5 135.689 162.754 112.8 142.921 112.935C151.838 109.706 166.442 108.177 169.688 130.196Z" fill="white"/>
<path d="M171.474 69.8086C171.474 70.5848 171.244 71.3436 170.812 71.989C170.381 72.6344 169.768 73.1374 169.051 73.4345C168.334 73.7315 167.545 73.8092 166.783 73.6578C166.022 73.5064 165.323 73.1326 164.774 72.5837C164.225 72.0349 163.851 71.3356 163.7 70.5743C163.548 69.813 163.626 69.0239 163.923 68.3067C164.22 67.5896 164.723 66.9767 165.369 66.5454C166.014 66.1142 166.773 65.884 167.549 65.884C168.064 65.884 168.575 65.9855 169.051 66.1828C169.527 66.38 169.96 66.6691 170.324 67.0335C170.689 67.3979 170.978 67.8306 171.175 68.3067C171.372 68.7829 171.474 69.2932 171.474 69.8086Z" fill="white"/>
<path d="M193.142 136.45C193.142 137.226 192.912 137.985 192.481 138.631C192.049 139.276 191.436 139.779 190.719 140.076C190.002 140.373 189.213 140.451 188.452 140.299C187.69 140.148 186.991 139.774 186.442 139.225C185.893 138.676 185.52 137.977 185.368 137.216C185.217 136.455 185.295 135.665 185.592 134.948C185.889 134.231 186.392 133.618 187.037 133.187C187.682 132.756 188.441 132.526 189.217 132.526C190.258 132.526 191.257 132.939 191.993 133.675C192.729 134.411 193.142 135.409 193.142 136.45Z" fill="white"/>
<path d="M264.668 88.0727C264.668 88.8492 264.438 89.6083 264.007 90.254C263.576 90.8997 262.963 91.4031 262.245 91.7004C261.528 91.9977 260.739 92.0756 259.977 91.9242C259.216 91.7729 258.516 91.3991 257.967 90.8501C257.418 90.3011 257.044 89.6016 256.892 88.8401C256.741 88.0786 256.818 87.2892 257.115 86.5718C257.412 85.8544 257.916 85.2412 258.561 84.8098C259.207 84.3784 259.966 84.1481 260.742 84.1481C261.783 84.1481 262.782 84.5616 263.518 85.2976C264.254 86.0335 264.668 87.0318 264.668 88.0727Z" fill="#E3EAFF"/>
<path d="M44.6503 133.179C44.6503 133.956 44.4202 134.714 43.9889 135.36C43.5577 136.005 42.9448 136.508 42.2276 136.805C41.5105 137.102 40.7214 137.18 39.9601 137.028C39.1988 136.877 38.4995 136.503 37.9506 135.954C37.4018 135.406 37.028 134.706 36.8766 133.945C36.7251 133.184 36.8029 132.395 37.0999 131.677C37.3969 130.96 37.9 130.347 38.5454 129.916C39.1908 129.485 39.9495 129.255 40.7258 129.255C41.2411 129.255 41.7515 129.356 42.2276 129.553C42.7038 129.751 43.1364 130.04 43.5009 130.404C43.8653 130.769 44.1544 131.201 44.3516 131.677C44.5488 132.154 44.6503 132.664 44.6503 133.179Z" fill="white"/>
<path d="M25.6822 117.153C25.6822 117.929 25.452 118.688 25.0208 119.333C24.5896 119.979 23.9766 120.482 23.2595 120.779C22.5424 121.076 21.7533 121.154 20.992 121.002C20.2307 120.851 19.5314 120.477 18.9825 119.928C18.4336 119.379 18.0599 118.68 17.9084 117.919C17.757 117.157 17.8347 116.368 18.1318 115.651C18.4288 114.934 18.9318 114.321 19.5772 113.89C20.2226 113.459 20.9814 113.228 21.7576 113.228C22.273 113.228 22.7833 113.33 23.2595 113.527C23.7356 113.724 24.1683 114.013 24.5327 114.378C24.8972 114.742 25.1862 115.175 25.3835 115.651C25.5807 116.127 25.6822 116.638 25.6822 117.153Z" fill="#E3EAFF"/>
<path d="M55.8764 72.0748C55.8771 72.3882 55.7847 72.6948 55.6111 72.9558C55.4374 73.2167 55.1902 73.4202 54.9008 73.5406C54.6114 73.661 54.2928 73.6928 53.9854 73.6321C53.6779 73.5713 53.3953 73.4207 53.1734 73.1993C52.9516 72.9779 52.8004 72.6957 52.739 72.3883C52.6776 72.081 52.7088 71.7623 52.8286 71.4727C52.9484 71.183 53.1514 70.9354 53.412 70.7612C53.6726 70.587 53.9789 70.494 54.2924 70.494C54.7118 70.4943 55.1141 70.6609 55.411 70.9572C55.7079 71.2535 55.8753 71.6554 55.8764 72.0748Z" fill="white"/>
<path d="M18.7491 170.461C18.2975 170.461 17.8559 170.327 17.4804 170.076C17.1048 169.825 16.8121 169.468 16.6393 169.051C16.4664 168.634 16.4212 168.175 16.5093 167.732C16.5974 167.289 16.8149 166.882 17.1343 166.562C17.4537 166.243 17.8606 166.025 18.3036 165.937C18.7466 165.849 19.2058 165.894 19.6231 166.067C20.0404 166.24 20.397 166.533 20.648 166.908C20.8989 167.284 21.0328 167.725 21.0328 168.177C21.0323 168.783 20.7915 169.363 20.3633 169.791C19.9352 170.219 19.3546 170.46 18.7491 170.461ZM18.7491 166.806C18.478 166.806 18.213 166.887 17.9875 167.037C17.7621 167.188 17.5864 167.402 17.4826 167.652C17.3789 167.903 17.3517 168.179 17.4046 168.445C17.4575 168.71 17.5881 168.955 17.7798 169.146C17.9715 169.338 18.2158 169.469 18.4817 169.522C18.7476 169.574 19.0233 169.547 19.2737 169.444C19.5242 169.34 19.7383 169.164 19.889 168.939C20.0396 168.713 20.12 168.448 20.12 168.177C20.12 167.813 19.9756 167.465 19.7186 167.207C19.4615 166.95 19.1128 166.805 18.7491 166.805V166.806Z" fill="white"/>
<path d="M196.024 149.86C195.572 149.86 195.131 149.727 194.755 149.476C194.379 149.225 194.087 148.868 193.914 148.451C193.741 148.033 193.696 147.574 193.784 147.131C193.872 146.688 194.09 146.281 194.409 145.962C194.728 145.643 195.135 145.425 195.578 145.337C196.021 145.249 196.48 145.294 196.898 145.467C197.315 145.64 197.672 145.932 197.923 146.308C198.174 146.684 198.307 147.125 198.307 147.577C198.307 148.182 198.066 148.763 197.638 149.191C197.21 149.619 196.629 149.86 196.024 149.86ZM196.024 146.206C195.753 146.206 195.488 146.286 195.262 146.437C195.037 146.588 194.861 146.802 194.757 147.052C194.653 147.303 194.626 147.578 194.679 147.844C194.732 148.11 194.863 148.354 195.054 148.546C195.246 148.738 195.49 148.868 195.756 148.921C196.022 148.974 196.298 148.947 196.548 148.843C196.799 148.74 197.013 148.564 197.164 148.338C197.314 148.113 197.395 147.848 197.395 147.577C197.395 147.396 197.36 147.218 197.292 147.051C197.223 146.884 197.122 146.732 196.995 146.604C196.867 146.476 196.716 146.375 196.549 146.306C196.383 146.236 196.204 146.201 196.024 146.2V146.206Z" fill="white"/>
<path d="M24.3704 128.205C23.9187 128.205 23.4773 128.071 23.1019 127.82C22.7265 127.569 22.434 127.212 22.2613 126.795C22.0886 126.377 22.0435 125.918 22.1318 125.475C22.22 125.032 22.4376 124.626 22.757 124.306C23.0765 123.987 23.4834 123.77 23.9263 123.682C24.3693 123.594 24.8284 123.639 25.2457 123.812C25.6629 123.985 26.0195 124.277 26.2704 124.653C26.5213 125.028 26.6552 125.47 26.6552 125.922C26.6543 126.527 26.4133 127.108 25.9849 127.536C25.5566 127.964 24.976 128.205 24.3704 128.205ZM24.3704 124.551C24.0992 124.551 23.8342 124.632 23.6088 124.782C23.3835 124.933 23.2079 125.148 23.1044 125.398C23.0009 125.649 22.974 125.925 23.0272 126.19C23.0804 126.456 23.2113 126.701 23.4033 126.892C23.5953 127.084 23.8397 127.214 24.1058 127.266C24.3718 127.319 24.6475 127.291 24.8978 127.187C25.1482 127.083 25.3621 126.907 25.5124 126.681C25.6628 126.456 25.7428 126.191 25.7423 125.919C25.7415 125.556 25.5965 125.208 25.3393 124.951C25.0821 124.695 24.7337 124.551 24.3704 124.551Z" fill="#E3EAFF"/>
<path d="M128.709 62.7903C128.257 62.7903 127.816 62.6563 127.44 62.4054C127.064 62.1544 126.772 61.7978 126.599 61.3805C126.426 60.9632 126.381 60.504 126.469 60.061C126.557 59.618 126.775 59.2111 127.094 58.8917C127.413 58.5724 127.82 58.3549 128.263 58.2667C128.706 58.1786 129.165 58.2238 129.583 58.3967C130 58.5695 130.357 58.8622 130.608 59.2378C130.859 59.6134 130.992 60.0549 130.992 60.5066C130.992 61.1121 130.751 61.6926 130.323 62.1207C129.895 62.5489 129.314 62.7897 128.709 62.7903ZM128.709 59.1357C128.438 59.1363 128.173 59.2173 127.948 59.3683C127.723 59.5193 127.548 59.7337 127.445 59.9842C127.341 60.2348 127.315 60.5103 127.368 60.776C127.421 61.0417 127.552 61.2857 127.744 61.4771C127.936 61.6685 128.18 61.7987 128.446 61.8513C128.712 61.904 128.987 61.8766 129.237 61.7728C129.488 61.6689 129.702 61.4932 129.852 61.2678C130.003 61.0425 130.083 60.7776 130.083 60.5066C130.082 60.1426 129.937 59.7937 129.68 59.5367C129.422 59.2796 129.073 59.1354 128.709 59.1357Z" fill="white"/>
<path d="M174.5 64.4257C174.048 64.4257 173.606 64.2918 173.231 64.0408C172.855 63.7899 172.563 63.4332 172.39 63.0159C172.217 62.5986 172.172 62.1395 172.26 61.6965C172.348 61.2535 172.566 60.8466 172.885 60.5272C173.204 60.2078 173.611 59.9903 174.054 59.9022C174.497 59.8141 174.956 59.8593 175.374 60.0321C175.791 60.205 176.148 60.4977 176.399 60.8732C176.649 61.2488 176.783 61.6903 176.783 62.142C176.783 62.7475 176.542 63.328 176.114 63.7562C175.686 64.1843 175.105 64.4251 174.5 64.4257ZM174.5 60.7711C174.229 60.7709 173.963 60.8511 173.738 61.0016C173.512 61.1521 173.336 61.3661 173.232 61.6166C173.128 61.8671 173.101 62.1428 173.154 62.4088C173.207 62.6748 173.337 62.9191 173.529 63.111C173.721 63.3028 173.965 63.4335 174.231 63.4864C174.497 63.5394 174.772 63.5123 175.023 63.4086C175.274 63.3049 175.488 63.1292 175.638 62.9037C175.789 62.6783 175.869 62.4132 175.869 62.142C175.869 61.7787 175.725 61.4303 175.468 61.1733C175.211 60.9163 174.863 60.7717 174.5 60.7711Z" fill="white"/>
<path d="M178.84 171.441C178.1 171.441 177.377 171.222 176.762 170.811C176.148 170.4 175.668 169.816 175.385 169.133C175.102 168.45 175.029 167.698 175.173 166.973C175.317 166.248 175.673 165.581 176.196 165.059C176.719 164.536 177.386 164.18 178.111 164.036C178.836 163.891 179.588 163.966 180.271 164.249C180.954 164.532 181.538 165.011 181.949 165.626C182.36 166.241 182.579 166.964 182.578 167.704C182.577 168.695 182.183 169.645 181.482 170.346C180.781 171.046 179.831 171.441 178.84 171.441ZM178.84 165.459C178.396 165.459 177.962 165.591 177.593 165.837C177.223 166.084 176.935 166.434 176.765 166.844C176.595 167.254 176.551 167.705 176.637 168.141C176.724 168.576 176.937 168.976 177.251 169.29C177.565 169.604 177.965 169.818 178.4 169.905C178.836 169.992 179.287 169.947 179.697 169.777C180.107 169.607 180.458 169.32 180.705 168.951C180.951 168.582 181.083 168.148 181.083 167.704C181.082 167.109 180.846 166.538 180.425 166.118C180.005 165.697 179.435 165.46 178.84 165.459Z" fill="white"/>
<path d="M57.5108 80.1875C56.9613 80.1877 56.424 80.0249 55.9671 79.7198C55.5101 79.4146 55.1539 78.9808 54.9435 78.4732C54.7331 77.9655 54.678 77.4069 54.7852 76.868C54.8923 76.329 55.1569 75.834 55.5454 75.4454C55.934 75.0569 56.4291 74.7923 56.968 74.6851C57.507 74.578 58.0656 74.6331 58.5732 74.8435C59.0808 75.0539 59.5146 75.4101 59.8198 75.867C60.1249 76.324 60.2877 76.8612 60.2875 77.4107C60.2866 78.1469 59.9938 78.8527 59.4732 79.3732C58.9527 79.8938 58.2469 80.1866 57.5108 80.1875ZM57.5108 75.7436C57.181 75.7434 56.8586 75.841 56.5843 76.024C56.3099 76.2071 56.0961 76.4674 55.9698 76.772C55.8434 77.0766 55.8102 77.4118 55.8744 77.7353C55.9386 78.0588 56.0973 78.3559 56.3304 78.5892C56.5635 78.8224 56.8606 78.9813 57.184 79.0458C57.5074 79.1102 57.8427 79.0772 58.1474 78.9511C58.4521 78.8249 58.7125 78.6112 58.8958 78.3371C59.079 78.0629 59.1768 77.7405 59.1768 77.4107C59.1768 76.9686 59.0014 76.5445 58.689 76.2315C58.3767 75.9185 57.9529 75.7423 57.5108 75.7414V75.7436Z" fill="white"/>
<path d="M240.108 57.5123C240.108 57.5123 240.185 61.8282 240.629 65.3396C240.629 65.3396 244.269 60.5623 244.269 60.559C243.935 59.1543 243.552 56.4814 243.657 54.94C243.684 54.5399 236.246 54.236 240.108 57.5123Z" fill="#F37A50"/>
<path d="M270.076 194.818C266.657 199.379 258.259 196.581 258.536 202.751C271.308 202.671 276.616 202.751 276.616 202.751C276.599 201.329 276.347 197.97 276.052 196.653L270.076 194.818Z" fill="black"/>
<path d="M289.184 194.938C285.765 199.499 277.367 196.701 277.644 202.87C290.416 202.791 295.724 202.87 295.724 202.87C295.707 201.449 295.454 198.089 295.16 196.773L289.184 194.938Z" fill="black"/>
<path d="M264.164 125.179C264.164 125.179 262.087 154.415 262.933 160.915C263.779 167.415 266.759 175.747 266.42 197.246C270.583 198.254 276.616 197.246 276.616 197.246C276.616 197.246 277.51 172.937 273.109 162.079C274.898 151.532 280.641 127.374 280.641 127.374L264.164 125.179Z" fill="#183D6F"/>
<path d="M272.045 125.977C272.045 125.977 276.232 158.801 278.276 165.026C280.321 171.252 282.389 175.395 286.1 196.574C290.378 196.782 297.409 196.848 297.409 196.848C297.409 196.848 295.718 170.83 289.055 164.72C288.829 154.024 290.132 126.188 290.132 126.188L272.045 125.977Z" fill="#294F82"/>
<path d="M289.097 72.2792C286.827 77.9508 281.378 81.1025 276.923 79.3206C272.468 77.5386 270.698 71.4954 272.968 65.825C275.237 60.1545 280.688 57.0018 285.142 58.7837C289.595 60.5656 291.366 66.6088 289.097 72.2792Z" fill="#F37A50"/>
<path d="M274.905 67.6856C274.811 67.8211 274.678 67.9256 274.525 67.9859C274.371 68.0462 274.203 68.0596 274.042 68.0245C273.881 67.9893 273.734 67.9072 273.619 67.7884C273.505 67.6696 273.428 67.5195 273.399 67.3572C273.37 67.1948 273.389 67.0274 273.455 66.8762C273.521 66.725 273.631 66.5967 273.769 66.5076C273.908 66.4185 274.07 66.3725 274.235 66.3756C274.4 66.3786 274.561 66.4305 274.696 66.5246C274.877 66.6511 275.001 66.8443 275.04 67.062C275.08 67.2796 275.031 67.5039 274.905 67.6856Z" fill="black"/>
<path d="M281.154 70.236C281.051 70.3826 280.908 70.4956 280.742 70.5607C280.576 70.6259 280.394 70.6403 280.219 70.6021C280.045 70.5639 279.886 70.4749 279.762 70.3462C279.638 70.2175 279.555 70.055 279.524 69.8792C279.492 69.7035 279.514 69.5223 279.585 69.3586C279.656 69.195 279.775 69.0562 279.925 68.9598C280.076 68.8634 280.251 68.8138 280.43 68.8172C280.608 68.8206 280.782 68.8768 280.928 68.9789C281.026 69.0466 281.109 69.1329 281.173 69.2327C281.237 69.3326 281.28 69.4441 281.301 69.5608C281.322 69.6775 281.32 69.7973 281.295 69.9131C281.269 70.029 281.221 70.1387 281.154 70.236Z" fill="black"/>
<path d="M276.172 69.0171C275.044 69.907 273.633 70.9849 273.633 70.9849C273.633 70.9849 273.619 72.3448 275.208 72.9341C274.633 72.4126 274.129 71.7184 274.727 70.9171C275.325 70.1158 276.172 69.0171 276.172 69.0171Z" fill="#DE623C"/>
<path d="M282.803 69.6927C282.71 69.6926 282.619 69.6611 282.546 69.6032C282.472 69.5453 282.42 69.4644 282.399 69.3735C282.388 69.3287 282.108 68.2442 281.179 68.2399C281.068 68.2399 280.962 68.196 280.884 68.1179C280.806 68.0398 280.762 67.9338 280.762 67.8234C280.762 67.7129 280.806 67.6069 280.884 67.5288C280.962 67.4507 281.068 67.4068 281.179 67.4068C282.449 67.4134 283.06 68.57 283.205 69.18C283.231 69.2874 283.213 69.4006 283.155 69.4947C283.097 69.5888 283.005 69.6561 282.897 69.6818C282.866 69.6889 282.835 69.6926 282.803 69.6927Z" fill="black"/>
<path d="M275.778 65.9212C275.718 65.9214 275.659 65.9059 275.607 65.8761C275.554 65.8464 275.51 65.8035 275.48 65.7517C275.473 65.7408 275.249 65.3822 274.877 65.3145C274.615 65.2675 274.319 65.3746 273.996 65.6326C273.96 65.6613 273.919 65.6827 273.875 65.6954C273.831 65.7082 273.785 65.7122 273.739 65.7071C273.693 65.7021 273.649 65.688 273.609 65.6659C273.569 65.6437 273.533 65.6138 273.504 65.5779C273.476 65.542 273.454 65.5008 273.442 65.4567C273.429 65.4125 273.425 65.3663 273.43 65.3206C273.435 65.275 273.449 65.2307 273.471 65.1905C273.493 65.1502 273.523 65.1147 273.559 65.086C274.048 64.6957 274.534 64.5394 275.005 64.629C275.694 64.7558 276.059 65.3658 276.073 65.3943C276.097 65.4335 276.112 65.4769 276.118 65.522C276.125 65.5672 276.122 65.6131 276.11 65.6572C276.099 65.7013 276.079 65.7427 276.051 65.779C276.024 65.8153 275.989 65.8458 275.95 65.8687C275.898 65.9014 275.839 65.9195 275.778 65.9212Z" fill="black"/>
<path d="M287.514 72.8718C285.874 67.5949 287.951 64.7908 287.951 64.7908C286.542 64.5088 285.995 64.9963 285.995 64.9963C285.23 63.4178 285.821 62.2874 285.821 62.2874C282.909 61.1526 281.458 63.0384 278.832 63.6736C275.233 64.5481 270.789 63.1084 270.372 58.7159C270.358 58.5738 270.385 58.4306 270.449 58.3032C270.514 58.1757 270.613 58.0694 270.736 57.9966C270.859 57.9238 271 57.8876 271.143 57.8922C271.286 57.8969 271.424 57.9422 271.542 58.0228C272.118 58.4166 272.805 58.6176 273.502 58.5967C273.502 58.5967 272.748 57.7462 272.71 56.57C272.706 56.4252 272.745 56.2826 272.821 56.1595C272.898 56.0364 273.008 55.938 273.139 55.8762C273.27 55.8144 273.416 55.7919 273.559 55.8114C273.703 55.831 273.837 55.8917 273.947 55.9862C274.696 56.6082 276.083 57.1964 278.558 56.7328C280.205 56.4246 283.975 53.7812 286.32 54.3016C288.241 54.7235 289.764 56.3568 290.419 58.6962C290.419 58.6962 295.138 59.1849 295.611 64.3809C296.077 69.4828 290.166 73.3987 290.166 73.3987L287.514 72.8718Z" fill="#333333"/>
<path d="M286.87 71.9906C285.62 72.699 285.077 74.1027 285.656 75.1248C286.236 76.147 287.719 76.4028 288.969 75.6944C290.218 74.986 290.762 73.5834 290.182 72.5602C289.603 71.537 288.12 71.2833 286.87 71.9906Z" fill="#F37A50"/>
<path d="M287.072 75.0603C287.032 75.0316 286.999 74.9942 286.976 74.951C286.629 74.3148 286.684 73.6643 287.12 73.2128C287.338 72.9868 287.621 72.8342 287.93 72.7764C288.239 72.7186 288.558 72.7585 288.843 72.8903C288.881 72.9081 288.915 72.9332 288.943 72.9644C288.971 72.9955 288.993 73.0319 289.007 73.0715C289.021 73.1111 289.026 73.1531 289.024 73.195C289.021 73.2368 289.01 73.2777 288.991 73.3152C288.972 73.3527 288.946 73.3861 288.914 73.4133C288.882 73.4405 288.845 73.4611 288.805 73.4738C288.765 73.4864 288.723 73.491 288.681 73.4871C288.64 73.4832 288.599 73.471 288.562 73.4511C288.396 73.3809 288.213 73.3623 288.036 73.3975C287.86 73.4328 287.698 73.5205 287.572 73.649C287.329 73.9005 287.313 74.2568 287.528 74.6504C287.562 74.7126 287.574 74.7846 287.563 74.8546C287.551 74.9246 287.515 74.9885 287.462 75.0359C287.41 75.0832 287.342 75.1112 287.271 75.1152C287.2 75.1193 287.13 75.0992 287.072 75.0582V75.0603Z" fill="#DE623C"/>
<path d="M273.891 74.7422C273.864 74.6979 273.85 74.6465 273.852 74.5945C273.853 74.5424 273.87 74.4919 273.9 74.4493C273.93 74.4066 273.972 74.3736 274.02 74.3544C274.068 74.3351 274.121 74.3305 274.172 74.341C275.808 74.7105 277.485 74.8605 279.159 74.787C279.212 74.7853 279.263 74.799 279.308 74.8264C279.352 74.8538 279.387 74.8936 279.409 74.9409C279.431 74.9883 279.439 75.041 279.431 75.0926C279.423 75.1441 279.4 75.1922 279.365 75.2309C278.886 75.7687 277.924 76.5657 276.499 76.4334C275.073 76.3011 274.267 75.3566 273.891 74.7422Z" fill="white"/>
<path d="M267.17 81.895C267.17 81.895 266.532 81.6163 250.398 77.7146C250.396 77.7137 250.394 77.7132 250.392 77.7132C250.39 77.7132 250.387 77.7137 250.385 77.7146L244.282 82.2503C244.279 82.2534 244.277 82.2575 244.277 82.2618C244.277 82.2661 244.279 82.2702 244.282 82.2733C248.268 87.3206 266.485 91.2944 266.485 91.2944L267.173 81.8929L267.17 81.895Z" fill="#183D6E"/>
<path d="M274.576 81.6983L280.373 81.1571L285.981 82.7204L279.661 89.2239L274.576 81.6983Z" fill="#95A6DB"/>
<path d="M276.585 84.6827C278.947 86.622 279.659 87.9623 284.448 85.3703L285.202 77.6545L277.032 77.0106L276.585 84.6827Z" fill="#F37A50"/>
<path d="M287.469 85.8273L285.755 85.1429L285.985 82.716L281.22 86.5422L279.874 86.7609L278.588 86.3105L274.58 81.6972L274.375 84.1252L272.855 84.4302L267.389 85.3157L266.733 115.655L264.576 125.977C271.83 128.39 279.941 128.992 287.915 127.894L287.647 117.531L293.315 87.8759L287.469 85.8273Z" fill="#C5D1F9"/>
<path d="M278.822 89.8273L275.398 112.991L277.295 115.626L279.766 113.727L280.607 90.0186L278.822 89.8273Z" fill="#183D6E"/>
<path d="M278.618 87.0921L279.87 86.762L281.145 87.3184L280.606 90.0645L278.811 89.9038L278.618 87.0921Z" fill="#183D6E"/>
<path d="M274.495 81.9606L273.57 109.93L269.866 127.949C269.866 127.949 264.009 127.359 260.411 123.934L265.022 110.37L267.023 81.8491L274.495 81.9606Z" fill="#294F82"/>
<path d="M274.496 81.9606L273.577 109.555L269.313 88.3974L274.496 81.9606Z" fill="#183D6E"/>
<path d="M286.419 83.6824L278.813 129.05C278.813 129.05 288.907 130.29 293.056 127.561L290.804 112.648L293.557 87.3293L286.419 83.6824Z" fill="#335B91"/>
<path d="M286.418 83.6824L281.973 110.271L289.933 90.2099L286.418 83.6824Z" fill="#183D6E"/>
<path d="M238.434 59.89C240.966 59.0461 242.299 58.6656 244.268 58.6656C248.924 72.5383 252.242 77.7649 250.858 81.7475C249.704 85.0675 246.048 84.8019 244.268 82.3148C241.917 79.0309 239.828 66.5585 238.434 59.89Z" fill="#183D6E"/>
<path d="M275.099 146.981C275.006 146.621 274.994 146.245 275.063 145.88C275.214 142.419 279.937 141.421 286.527 139.513C287.627 139.194 286.649 138.059 285.504 135.301C284.76 133.507 285.209 130.332 287.235 129.797C290.575 128.914 288.055 132.386 292.722 138.091C295.215 141.139 298.229 138.266 299.149 141.747L301.242 149.67C301.601 151.026 301.812 152.363 299.953 153.083C298.153 153.782 298.918 154.988 296.236 155.695L282.839 159.235C282.185 159.409 281.488 159.316 280.902 158.976C280.316 158.637 279.889 158.079 279.714 157.424C279.573 156.883 279.616 156.31 279.837 155.797C279.482 155.711 279.15 155.548 278.864 155.321C278.578 155.093 278.345 154.806 278.181 154.48C278.017 154.153 277.927 153.795 277.916 153.43C277.904 153.064 277.973 152.701 278.117 152.365C277.735 152.272 277.381 152.092 277.081 151.839C276.782 151.585 276.545 151.265 276.391 150.905C276.237 150.544 276.169 150.152 276.192 149.76C276.216 149.369 276.331 148.988 276.527 148.648C276.179 148.496 275.869 148.268 275.621 147.98C275.373 147.692 275.193 147.352 275.094 146.985L275.099 146.981Z" fill="#FACB32"/>
<path d="M284.612 147.102L278.225 148.79C277.796 148.903 277.345 148.903 276.916 148.79C276.488 148.677 276.095 148.455 275.777 148.146C275.714 148.084 275.665 148.011 275.63 147.929C275.596 147.848 275.578 147.761 275.578 147.672C275.577 147.584 275.594 147.497 275.627 147.415C275.661 147.333 275.71 147.259 275.772 147.196C275.834 147.134 275.907 147.084 275.989 147.049C276.07 147.015 276.157 146.997 276.246 146.997C276.334 146.996 276.421 147.013 276.503 147.046C276.585 147.08 276.659 147.129 276.722 147.191C276.872 147.338 277.059 147.444 277.262 147.497C277.466 147.551 277.68 147.551 277.884 147.497L284.424 145.769C284.578 145.728 284.722 145.657 284.849 145.561C284.975 145.465 285.081 145.344 285.161 145.207C285.241 145.07 285.293 144.918 285.315 144.76C285.336 144.603 285.326 144.443 285.285 144.289C285.245 144.135 285.174 143.991 285.078 143.865C284.981 143.738 284.861 143.632 284.724 143.552C284.586 143.472 284.435 143.42 284.277 143.399C284.119 143.377 283.959 143.387 283.806 143.428L279.433 144.584C279.347 144.608 279.258 144.616 279.169 144.605C279.081 144.595 278.995 144.567 278.918 144.523C278.84 144.479 278.772 144.42 278.718 144.349C278.663 144.279 278.624 144.198 278.601 144.112C278.578 144.026 278.573 143.936 278.585 143.848C278.597 143.759 278.627 143.675 278.673 143.598C278.719 143.522 278.779 143.455 278.851 143.402C278.922 143.349 279.004 143.311 279.091 143.29L283.463 142.135C283.97 141.994 284.507 142.015 285.001 142.193C285.495 142.371 285.922 142.698 286.222 143.13C286.522 143.561 286.681 144.074 286.676 144.6C286.671 145.125 286.504 145.636 286.196 146.062C286.507 146.235 286.778 146.473 286.99 146.759C287.202 147.045 287.351 147.373 287.426 147.721C287.502 148.069 287.503 148.429 287.43 148.777C287.356 149.125 287.209 149.454 286.999 149.741C287.322 149.925 287.601 150.178 287.816 150.482C288.031 150.786 288.176 151.134 288.241 151.5C288.306 151.866 288.289 152.242 288.192 152.602C288.095 152.961 287.92 153.294 287.68 153.578C288.203 153.918 288.581 154.439 288.743 155.041C288.914 155.696 288.818 156.393 288.476 156.977C288.134 157.562 287.574 157.986 286.919 158.158L282.848 159.235C282.419 159.347 281.968 159.347 281.54 159.234C281.111 159.121 280.718 158.9 280.4 158.591C280.337 158.529 280.287 158.456 280.253 158.375C280.219 158.294 280.201 158.207 280.2 158.119C280.199 158.031 280.216 157.944 280.249 157.862C280.282 157.781 280.331 157.707 280.393 157.644C280.518 157.518 280.688 157.446 280.866 157.444C281.043 157.442 281.215 157.51 281.343 157.634C281.494 157.781 281.68 157.886 281.884 157.94C282.088 157.994 282.302 157.994 282.506 157.94L286.578 156.865C286.734 156.826 286.881 156.758 287.011 156.662C287.14 156.566 287.249 156.446 287.331 156.307C287.414 156.169 287.467 156.016 287.49 155.857C287.512 155.697 287.502 155.535 287.461 155.379C287.42 155.224 287.348 155.078 287.25 154.951C287.152 154.823 287.029 154.717 286.89 154.637C286.75 154.557 286.595 154.507 286.436 154.487C286.276 154.468 286.114 154.481 285.959 154.525L281.128 155.801C280.699 155.913 280.249 155.913 279.82 155.8C279.391 155.687 278.999 155.466 278.681 155.157C278.554 155.032 278.482 154.862 278.481 154.684C278.479 154.506 278.549 154.334 278.674 154.208C278.799 154.081 278.969 154.009 279.147 154.007C279.325 154.006 279.496 154.076 279.623 154.2C279.773 154.349 279.96 154.455 280.164 154.509C280.369 154.563 280.583 154.562 280.787 154.508L286.035 153.121C286.188 153.081 286.333 153.01 286.459 152.914C286.585 152.818 286.692 152.697 286.772 152.56C286.852 152.423 286.904 152.271 286.925 152.113C286.946 151.956 286.936 151.796 286.896 151.642C286.855 151.488 286.784 151.344 286.688 151.218C286.592 151.091 286.471 150.985 286.334 150.905C286.197 150.825 286.045 150.773 285.887 150.752C285.73 150.73 285.57 150.74 285.416 150.781L279.403 152.368C278.974 152.481 278.524 152.481 278.095 152.368C277.666 152.255 277.274 152.033 276.956 151.724C276.834 151.598 276.767 151.43 276.768 151.255C276.769 151.08 276.839 150.912 276.962 150.788C277.084 150.663 277.251 150.592 277.426 150.588C277.601 150.585 277.77 150.649 277.898 150.769C278.048 150.917 278.235 151.023 278.439 151.077C278.643 151.13 278.857 151.13 279.061 151.075L285.232 149.444C285.389 149.406 285.536 149.337 285.666 149.242C285.796 149.146 285.905 149.025 285.988 148.887C286.07 148.748 286.124 148.595 286.147 148.435C286.169 148.276 286.16 148.113 286.118 147.957C286.077 147.801 286.005 147.655 285.907 147.528C285.809 147.4 285.686 147.293 285.546 147.214C285.405 147.134 285.251 147.083 285.091 147.064C284.931 147.045 284.768 147.058 284.614 147.102H284.612Z" fill="#EBA223"/>
<path d="M301.959 153.194L306.131 152.091C306.408 152.017 306.644 151.836 306.787 151.588C306.931 151.34 306.97 151.045 306.896 150.768L303.617 138.372C303.542 138.096 303.361 137.86 303.113 137.716C302.865 137.573 302.571 137.534 302.294 137.607L298.131 138.71C297.854 138.784 297.618 138.965 297.475 139.213C297.331 139.461 297.292 139.756 297.366 140.033L300.645 152.428C300.72 152.703 300.899 152.937 301.145 153.081C301.391 153.224 301.684 153.264 301.959 153.194Z" fill="#7F99EB"/>
<path d="M300.958 133.7L301.034 137.02C301.034 137.02 298.664 136.95 298.582 138.568L300.807 138.637C300.807 138.637 302.162 140.386 300.22 143.799C299.446 147.142 301.896 145.727 302.064 146.838C302.312 148.478 305.548 145.667 306.062 142.327C306.728 138.006 305.843 137.487 305.843 137.487L304.86 134.207L300.958 133.7Z" fill="#F37A50"/>
<path d="M293.557 87.3293C297.415 87.7316 306.937 111.528 306.937 111.528L306.307 135.546L300.057 134.537L298.636 114.031L292.047 101.156L293.557 87.3293Z" fill="#183D6E"/>
<path d="M279.87 86.762C279.87 86.762 277.712 88.9407 275.729 89.495L273.402 83.3271L274.581 81.6983L279.87 86.762Z" fill="#9AAEF0"/>
<path d="M279.87 86.762C280.772 88.1776 282.004 89.3539 283.459 90.1903L286.865 84.5056L285.982 82.7171L279.87 86.762Z" fill="#9AAEF0"/>
<path d="M191.193 46.0326C191.125 47.1345 191.422 48.3884 191.04 49.439L193.489 50.7333C196.481 48.865 196.888 44.8049 196.929 44.3545C197.032 43.1837 197.148 42.6393 196.996 42.5485C196.844 42.4578 195.793 42.1703 195.592 43.8691C195.336 46.002 193.632 44.5863 195.254 40.2616C195.661 39.1782 195.133 37.1405 194.341 37.8773C193.472 38.6873 191.496 41.0224 191.193 46.0326Z" fill="#E2A18D"/>
<path d="M211.615 193.191L211.27 196.743L214.243 197.646L216.631 195.097L217.023 193.629L211.615 193.191Z" fill="#E2A18D"/>
<path d="M202.332 196.201L201.917 192.971L208.238 192.546L208.162 196.188L202.332 196.201Z" fill="#E2A18D"/>
<path d="M207.46 60.8564C204.003 57.7134 197.861 57.9222 196.931 62.8416C196.001 67.7611 196.312 71.0407 190.186 70.2754C185.307 69.6687 180.291 74.0491 180.295 80.9341C180.295 89.7431 186.401 86.3127 184.989 90.6636C183.577 95.0146 182.666 99.43 188.963 99.5732C195.26 99.7164 200.147 94.4352 199.408 87.2791C198.669 80.123 203.254 82.7456 204.587 79.2047C206.482 74.1661 207.46 60.8564 207.46 60.8564Z" fill="#333333"/>
<path d="M221.111 121.448C221.111 121.448 225.674 150.34 224.443 162.722C223.212 175.104 217.023 193.629 217.023 193.629L211.615 193.192C211.615 193.192 211.955 191.292 211.782 184.009C211.609 176.726 210.518 166.463 214.722 161.607C214.196 152.139 208.238 121.45 208.238 121.45L221.111 121.448Z" fill="#677A80"/>
<path d="M198.671 120.475C196.307 128.973 196.175 152.525 198.135 166.122C200.095 179.719 201.917 192.971 201.917 192.971L208.238 193.06V160.046C208.238 154.219 209.814 136.252 209.814 136.252L211.782 121.443L198.671 120.475Z" fill="#677A80"/>
<path d="M210.902 80.9363C215.127 80.9363 218.551 76.3326 218.551 70.6537C218.551 64.9747 215.127 60.371 210.902 60.371C206.678 60.371 203.253 64.9747 203.253 70.6537C203.253 76.3326 206.678 80.9363 210.902 80.9363Z" fill="#E2A18D"/>
<path d="M207.924 78.8297V89.7552C207.924 89.7552 211.566 91.6978 214.722 89.7552C214.236 87.3272 213.949 79.5884 213.949 79.5884L207.924 78.8297Z" fill="#E2A18D"/>
<path d="M201.408 84.7242H219.534C219.534 84.7242 222.786 92.0301 222.349 98.2876C221.912 104.545 221.112 121.573 221.112 121.573C221.112 121.573 205.661 123.076 198.564 120.886C198.16 111.924 198.233 102.948 198.783 93.9935C199.044 89.8218 201.408 84.7242 201.408 84.7242Z" fill="#A0A15C"/>
<path d="M207.924 84.7242C207.462 84.5056 203.365 84.3438 203.365 84.3438C203.365 84.3438 197.074 71.2254 194.878 67.3183C193.379 61.0521 193.489 50.7333 193.489 50.7333L191.034 49.439C191.034 49.439 186.929 61.7484 187.958 67.444C188.229 68.9461 195.978 89.0358 195.978 89.0358C195.978 89.0358 194.084 112.879 193.114 118.519C199.877 120.031 204.276 118.908 204.276 118.908L207.924 84.7242Z" fill="#7E7949"/>
<path d="M214.214 84.7242L217.655 118.908C217.655 118.908 220.481 119.816 226.55 118.011C226.793 110.789 224.208 88.0946 224.208 88.0946C224.208 88.0946 229.618 79.1566 232.895 65.9846C232.653 61.0203 230.499 49.6401 230.499 49.6401L224.213 49.3056L226.451 65.3757C226.451 65.3757 218.742 82.2077 217.948 84.6379C215.273 84.4422 214.214 84.7242 214.214 84.7242Z" fill="#7E7949"/>
<path d="M202.745 70.6537C206.968 70.1136 210.893 67.7611 213.11 64.7198C214.544 68.2738 218.551 70.6537 218.551 70.6537C218.551 70.6537 221.555 63.855 216.092 60.1884C210.88 56.6902 198.445 59.0799 202.745 70.6537Z" fill="#333333"/>
<path d="M207.685 72.8466C207.524 72.8466 207.367 72.7989 207.233 72.7095C207.099 72.6201 206.995 72.493 206.933 72.3443C206.872 72.1956 206.856 72.032 206.887 71.8742C206.919 71.7164 206.996 71.5715 207.11 71.4578C207.224 71.3441 207.369 71.2667 207.527 71.2354C207.685 71.2042 207.848 71.2204 207.997 71.2822C208.146 71.3439 208.272 71.4483 208.362 71.5822C208.451 71.7161 208.498 71.8735 208.498 72.0344C208.498 72.1411 208.477 72.2468 208.436 72.3455C208.395 72.4441 208.336 72.5337 208.26 72.6091C208.184 72.6845 208.095 72.7444 207.996 72.7851C207.897 72.8259 207.792 72.8468 207.685 72.8466Z" fill="#333333"/>
<path d="M214.163 72.8466C214.002 72.8466 213.845 72.7989 213.711 72.7095C213.577 72.6201 213.473 72.493 213.412 72.3443C213.35 72.1956 213.334 72.032 213.366 71.8742C213.397 71.7164 213.475 71.5715 213.588 71.4578C213.702 71.3441 213.847 71.2667 214.005 71.2354C214.163 71.2042 214.327 71.2204 214.475 71.2822C214.624 71.3439 214.751 71.4483 214.84 71.5822C214.929 71.7161 214.977 71.8735 214.977 72.0344C214.977 72.1411 214.956 72.2468 214.915 72.3455C214.874 72.4441 214.814 72.5337 214.738 72.6091C214.663 72.6845 214.573 72.7444 214.474 72.7851C214.376 72.8259 214.27 72.8468 214.163 72.8466Z" fill="#333333"/>
<path d="M215.596 71.3019C215.529 71.3019 215.462 71.2842 215.403 71.2507C215.344 71.2172 215.294 71.1689 215.26 71.1106C215.059 70.7717 214.816 70.5695 214.537 70.5072C214.055 70.3978 213.577 70.7258 213.573 70.7258C213.531 70.7551 213.483 70.7758 213.433 70.7868C213.383 70.7977 213.332 70.7987 213.281 70.7897C213.231 70.7807 213.182 70.7618 213.139 70.7341C213.096 70.7065 213.059 70.6706 213.03 70.6285C213 70.5864 212.98 70.539 212.969 70.489C212.958 70.4389 212.957 70.3872 212.966 70.3367C212.975 70.2862 212.994 70.2381 213.021 70.1949C213.049 70.1518 213.085 70.1145 213.127 70.0852C213.157 70.0633 213.879 69.567 214.697 69.743C215.198 69.8523 215.614 70.1803 215.931 70.7127C215.966 70.7719 215.985 70.8392 215.985 70.908C215.986 70.9768 215.969 71.0445 215.935 71.1043C215.901 71.1641 215.851 71.2139 215.792 71.2486C215.733 71.2833 215.665 71.3017 215.596 71.3019Z" fill="#333333"/>
<path d="M206.142 71.3413C206.07 71.3401 205.999 71.3188 205.938 71.2798C205.878 71.2407 205.829 71.1854 205.797 71.1201C205.766 71.0548 205.754 70.982 205.762 70.9101C205.77 70.8381 205.797 70.7698 205.842 70.7127C206.355 70.0721 206.923 69.7234 207.53 69.6763C208.017 69.644 208.498 69.8006 208.873 70.1136C208.946 70.184 208.989 70.28 208.992 70.3813C208.996 70.4826 208.96 70.5813 208.892 70.6564C208.823 70.7315 208.729 70.7773 208.628 70.7839C208.527 70.7905 208.427 70.7575 208.35 70.6919C208.133 70.5201 207.86 70.434 207.584 70.4503C207.205 70.4831 206.825 70.7335 206.455 71.1948C206.418 71.2416 206.37 71.2792 206.316 71.3046C206.262 71.33 206.202 71.3426 206.142 71.3413Z" fill="#333333"/>
<path d="M211.709 73.1013C212.761 73.86 213.089 74.1705 213.494 74.423C213.214 75.3621 211.745 75.8289 211.323 75.7195C212.349 75.2145 212.493 74.5301 212.493 74.5301L211.709 73.1013Z" fill="#CA8975"/>
<path d="M204.397 71.4462C205.271 72.5569 205.316 73.9835 204.494 74.6329C203.672 75.2823 202.293 74.9095 201.416 73.7988C200.54 72.6881 200.497 71.2626 201.319 70.6132C202.141 69.9638 203.52 70.3366 204.397 71.4462Z" fill="#E2A18D"/>
<path d="M203.627 73.8447C203.592 73.8448 203.558 73.8377 203.526 73.8239C203.495 73.8107 203.466 73.7913 203.442 73.767C203.418 73.7427 203.399 73.7139 203.386 73.6822C203.373 73.6505 203.367 73.6166 203.367 73.5824C203.367 73.5482 203.374 73.5144 203.388 73.4829C203.573 73.0456 203.578 72.6892 203.4 72.4312C203.126 72.0322 202.479 71.9097 202.009 71.9251C201.975 71.9262 201.941 71.9206 201.909 71.9086C201.877 71.8966 201.847 71.8784 201.822 71.855C201.797 71.8317 201.777 71.8036 201.763 71.7725C201.749 71.7414 201.741 71.7078 201.74 71.6736C201.739 71.6394 201.745 71.6054 201.757 71.5734C201.769 71.5414 201.787 71.5121 201.81 71.4871C201.833 71.4621 201.861 71.442 201.893 71.4278C201.924 71.4137 201.957 71.4058 201.992 71.4047C202.622 71.3839 203.436 71.5654 203.829 72.136C204.025 72.4203 204.19 72.921 203.866 73.6862C203.846 73.7332 203.813 73.7733 203.77 73.8015C203.728 73.8297 203.678 73.8447 203.627 73.8447Z" fill="#CA8975"/>
<path d="M208.873 77.1079C208.849 77.0685 208.837 77.0228 208.838 76.9765C208.84 76.9302 208.855 76.8853 208.881 76.8475C208.908 76.8096 208.945 76.7803 208.988 76.7632C209.031 76.7462 209.078 76.7421 209.124 76.7515C210.579 77.0807 212.073 77.2142 213.564 77.1484C213.61 77.1471 213.656 77.1595 213.695 77.1838C213.735 77.2082 213.766 77.2435 213.785 77.2854C213.805 77.3273 213.812 77.3741 213.805 77.4198C213.798 77.4656 213.778 77.5084 213.748 77.543C213.32 78.0229 212.464 78.7324 211.195 78.6187C209.926 78.505 209.208 77.6556 208.873 77.1079Z" fill="white"/>
<path d="M214.314 197.252C215.052 195.312 216.631 195.097 216.631 195.097C219.699 199.19 227.235 196.678 226.985 202.214C215.526 202.143 210.763 202.214 210.763 202.214C210.779 200.944 211.005 197.925 211.27 196.748L211.866 196.857L214.314 197.252Z" fill="#2C64AF"/>
<path d="M210.761 202.062H226.989V203.135C226.989 203.283 226.93 203.425 226.826 203.529C226.721 203.633 226.58 203.692 226.432 203.692H211.321C211.173 203.692 211.032 203.633 210.927 203.529C210.823 203.425 210.764 203.283 210.764 203.135V202.062H210.761Z" fill="white"/>
<path d="M209.551 202.225C209.551 202.225 208.65 198.863 208.567 198.431C208.477 197.941 208.212 196.78 208.158 196.185C208.145 196.038 206.598 195.092 205.417 195.092C203.816 195.092 202.356 196.021 202.328 196.196C202.14 197.319 202.134 198.637 201.829 199.729C201.6 200.542 200.982 202.436 200.982 202.436L209.551 202.225Z" fill="#2C64AF"/>
<path d="M209.551 201.967C209.341 202.635 206.75 201.864 204.86 201.865C203.273 201.865 201.219 202.481 200.986 202.241C200.589 202.942 200.916 204.395 200.916 204.395C200.916 204.395 202.57 204.48 204.553 204.395C206.536 204.31 208.829 204.435 209.691 204.176C210.239 203.269 209.551 201.967 209.551 201.967Z" fill="white"/>
<path d="M257.389 31.2798C257.469 30.5199 257.379 29.7517 257.125 29.0311C255.757 22.0346 245.847 21.4596 231.864 19.6012C229.527 19.2918 231.168 16.6823 232.65 10.7233C233.615 6.84787 231.725 0.52917 227.442 0.0623732C220.381 -0.702868 226.568 5.57867 218.831 18.6107C214.697 25.5744 207.687 20.6572 206.885 28.0122L205.058 44.7645C204.745 47.6297 204.73 50.4141 208.726 51.3084C212.601 52.1753 211.415 54.8635 217.074 55.48L245.401 58.5782C246.786 58.7304 248.174 58.3273 249.261 57.4573C250.348 56.5873 251.046 55.3214 251.201 53.9375C251.321 52.7934 251.057 51.6418 250.45 50.6645C251.147 50.3825 251.774 49.9514 252.287 49.4015C252.8 48.8516 253.186 48.1962 253.419 47.4811C253.652 46.7661 253.726 46.0088 253.635 45.2623C253.544 44.5158 253.292 43.7981 252.894 43.1596C253.643 42.8549 254.31 42.3796 254.842 41.7715C255.375 41.1635 255.758 40.4395 255.961 39.6572C256.164 38.8749 256.182 38.056 256.013 37.2657C255.844 36.4754 255.492 35.7355 254.987 35.1049C255.649 34.6901 256.209 34.1312 256.626 33.4699C257.042 32.8086 257.304 32.0618 257.392 31.2853L257.389 31.2798Z" fill="#FACB32"/>
<path d="M238.085 34.4468L251.591 35.9194C252.498 36.016 253.414 35.8771 254.251 35.5158C255.088 35.1546 255.817 34.5835 256.368 33.8576C256.563 33.5637 256.638 33.2066 256.578 32.8594C256.517 32.5122 256.327 32.2011 256.044 31.99C255.762 31.7788 255.41 31.6835 255.06 31.7237C254.71 31.7638 254.388 31.9363 254.161 32.2058C253.899 32.5505 253.553 32.8216 253.155 32.9931C252.757 33.1645 252.322 33.2303 251.892 33.1842L238.062 31.6756C237.406 31.6041 236.805 31.2749 236.391 30.7604C235.978 30.2459 235.786 29.5883 235.857 28.9322C235.929 28.2761 236.258 27.6752 236.772 27.2618C237.287 26.8484 237.945 26.6563 238.601 26.7277L247.843 27.7357C248.025 27.7611 248.21 27.7498 248.388 27.7022C248.566 27.6546 248.733 27.5718 248.878 27.4588C249.023 27.3457 249.144 27.2046 249.234 27.0438C249.324 26.8831 249.38 26.7059 249.4 26.5229C249.42 26.34 249.403 26.1548 249.35 25.9785C249.297 25.8022 249.21 25.6383 249.092 25.4965C248.975 25.3547 248.83 25.238 248.667 25.1531C248.503 25.0683 248.325 25.0171 248.141 25.0027L238.898 23.9947C237.514 23.8421 236.126 24.2448 235.039 25.1144C233.951 25.984 233.253 27.2495 233.097 28.6332C233.018 29.3947 233.107 30.1645 233.359 30.8876C233.611 31.6106 234.02 32.269 234.556 32.8158C233.978 33.2644 233.502 33.8303 233.159 34.4763C232.816 35.1223 232.614 35.8337 232.565 36.5636C232.517 37.2935 232.624 38.0252 232.88 38.7107C233.135 39.3962 233.533 40.0197 234.046 40.5403C233.445 41.0132 232.955 41.6129 232.611 42.2968C232.268 42.9807 232.079 43.732 232.06 44.497C232.04 45.262 232.189 46.022 232.496 46.7228C232.804 47.4236 233.262 48.0479 233.839 48.5513C232.88 49.4018 232.27 50.577 232.126 51.8506C231.979 53.2353 232.388 54.6216 233.263 55.7052C234.137 56.7888 235.406 57.4811 236.79 57.6303L245.399 58.5694C246.306 58.6664 247.222 58.5277 248.059 58.1666C248.896 57.8056 249.626 57.2346 250.178 56.5087C250.287 56.3645 250.366 56.2001 250.411 56.025C250.457 55.8499 250.467 55.6675 250.441 55.4885C250.416 55.3094 250.355 55.1372 250.263 54.9817C250.171 54.8262 250.048 54.6906 249.903 54.5825C249.61 54.3638 249.242 54.2697 248.88 54.3207C248.518 54.3716 248.191 54.5636 247.969 54.8547C247.708 55.2007 247.361 55.4732 246.963 55.6456C246.565 55.818 246.129 55.8845 245.698 55.8386L237.088 54.8995C236.763 54.8641 236.448 54.765 236.161 54.6079C235.875 54.4508 235.622 54.2388 235.417 53.984C235.213 53.7292 235.06 53.4366 234.969 53.1229C234.877 52.8092 234.848 52.4805 234.884 52.1556C234.919 51.8307 235.018 51.516 235.175 51.2294C235.333 50.9428 235.544 50.69 235.799 50.4854C236.054 50.2807 236.347 50.1283 236.66 50.0367C236.974 49.9451 237.303 49.9162 237.628 49.9517L247.841 51.0646C248.748 51.162 249.664 51.0235 250.502 50.6624C251.339 50.3014 252.068 49.73 252.62 49.0039C252.839 48.7111 252.934 48.343 252.882 47.9808C252.83 47.6185 252.636 47.2917 252.343 47.0722C252.05 46.8527 251.682 46.7586 251.32 46.8104C250.958 46.8623 250.631 47.056 250.412 47.3488C250.152 47.6973 249.805 47.9716 249.407 48.1442C249.008 48.3169 248.571 48.3818 248.139 48.3327L237.052 47.1247C236.395 47.0532 235.794 46.7239 235.38 46.2092C234.967 45.6945 234.775 45.0366 234.846 44.3802C234.918 43.7238 235.247 43.1227 235.762 42.709C236.276 42.2954 236.934 42.1032 237.591 42.1747L250.292 43.5598C251.199 43.6567 252.115 43.518 252.953 43.157C253.79 42.796 254.52 42.2249 255.072 41.4991C255.291 41.2061 255.385 40.838 255.333 40.4757C255.281 40.1135 255.087 39.7867 254.794 39.5674C254.501 39.348 254.133 39.2541 253.771 39.3062C253.409 39.3582 253.082 39.5521 252.863 39.8451C252.603 40.1931 252.256 40.4671 251.858 40.6397C251.459 40.8123 251.022 40.8776 250.591 40.8289L237.542 39.4078C237.216 39.3746 236.899 39.277 236.61 39.1208C236.321 38.9645 236.066 38.7526 235.859 38.4973C235.653 38.242 235.498 37.9484 235.406 37.6332C235.313 37.3181 235.284 36.9878 235.319 36.6613C235.355 36.3348 235.455 36.0185 235.613 35.7308C235.772 35.4431 235.986 35.1895 236.242 34.9848C236.499 34.7801 236.794 34.6282 237.11 34.5379C237.426 34.4477 237.756 34.4208 238.082 34.4589L238.085 34.4468Z" fill="#EBA223"/>
<path d="M205.051 52.1928L196.231 51.2308C194.64 51.0569 193.758 49.9594 193.89 48.7372L196.747 22.5277C196.812 21.9415 197.107 21.405 197.567 21.036C198.027 20.667 198.614 20.4958 199.201 20.5599L208.021 21.5208C208.607 21.5854 209.143 21.8801 209.512 22.3401C209.881 22.8001 210.052 23.3878 209.988 23.974L207.131 50.1835C207.001 51.4035 205.902 52.2857 205.051 52.1928Z" fill="#7F99EB"/>
</svg>
